<svg width="27" height="34" viewBox="0 0 27 34" fill="none" xmlns="http://www.w3.org/2000/svg">
<path d="M18.9182 0.0387415C18.8277 0.0516695 18.4979 0.0969309 18.1746 0.135723C17.5604 0.21331 17.2759 0.316757 17.2113 0.484863C17.1337 0.698223 17.1725 0.969776 17.3083 1.10555C17.4634 1.26072 17.5927 1.25426 18.8212 1.09262C19.1509 1.05382 19.7134 1.03443 20.1143 1.05382C21.3686 1.11202 22.0345 1.44822 22.6229 2.29521C23.0367 2.90297 23.0367 2.90297 23.5087 2.98055C24.7565 3.18098 25.5777 4.31891 25.8686 6.23917C26.1402 8.03659 25.8169 10.2413 24.9311 12.6271C24.3621 14.1659 23.1078 16.4547 22.0475 17.8965L21.6531 18.4267L21.2716 18.2262C20.6962 17.9224 20.3471 17.6443 19.8104 17.0689C19.4096 16.6487 19.2867 16.5517 19.1251 16.5517C18.8923 16.5517 18.5949 16.8297 18.5949 17.056C18.5949 17.5215 19.7975 18.6336 20.9095 19.1961L21.3104 19.3965V21.4008L20.8061 21.653C19.6229 22.2478 17.832 22.9202 16.4936 23.2758C15.7242 23.4827 14.2953 23.7478 14.1854 23.7155C14.1466 23.7025 14.3341 23.3987 14.6057 23.0495L15.0906 22.403V20.9224C15.0906 19.4547 15.0906 19.4418 14.9419 19.293C14.8578 19.209 14.7285 19.1379 14.6509 19.1379C14.5798 19.1379 14.0173 19.2672 13.4031 19.4224C12.0389 19.7715 11.7738 19.8168 11.4376 19.7262C11.1337 19.6422 10.6423 19.306 10.6423 19.1767C10.6423 19.1314 10.888 18.9698 11.1854 18.8275C11.7996 18.5301 12.0001 18.362 12.0001 18.1551C12.0001 18.0775 11.9225 17.806 11.8255 17.5538C11.4828 16.6874 10.8427 16.2284 9.9699 16.2284H9.64015L9.51731 15.7887C9.44619 15.5495 9.3686 15.3103 9.34274 15.2521C9.31041 15.1939 9.013 14.9805 8.67033 14.7737C8.32765 14.5668 8.03671 14.3793 8.02377 14.3534C8.01084 14.3275 8.2824 13.9461 8.638 13.4935C8.98714 13.0474 9.31041 12.6206 9.34274 12.5495C9.388 12.4719 9.41386 11.8642 9.41386 10.9525V9.49132L9.56257 9.53012C9.64015 9.55598 9.86645 9.62064 10.0604 9.67882C10.3643 9.76934 10.8557 9.78874 13.3708 9.8146L16.3255 9.834L16.4936 9.67236C16.6876 9.47839 16.707 9.19391 16.5324 8.98055L16.4096 8.82538L13.4742 8.78658C10.2673 8.74779 10.2608 8.74779 9.41386 8.334C8.86429 8.06245 8.10136 7.30598 7.75869 6.69176C7.31903 5.89003 7.01515 4.78443 6.86645 3.4396C6.84058 3.19391 6.85352 3.16158 6.94403 3.20038C7.69403 3.49133 9.05179 3.49779 10.319 3.21331C11.3406 2.98702 13.8104 2.27581 13.985 2.15943C14.1919 2.03012 14.2371 1.77796 14.1143 1.51288C13.9527 1.17667 13.8104 1.17667 12.6014 1.54521C10.332 2.22408 9.35567 2.41805 8.31472 2.37926C7.44188 2.35339 7.13153 2.23055 6.84058 1.81029C6.5755 1.41589 6.20696 1.35771 5.92895 1.66805C5.77377 1.83615 5.77377 1.84262 5.81257 2.94176C5.89662 5.43098 6.69834 7.49995 8.02377 8.64434L8.37938 8.94822V12.1422L7.53886 13.2219C6.67895 14.3275 6.58843 14.5086 6.7824 14.7607C6.82119 14.8189 7.22205 15.0969 7.66817 15.3685L8.4699 15.8728L8.61214 16.3836C8.85783 17.2693 8.94188 17.3405 9.67895 17.2823C10.2608 17.237 10.5841 17.3534 10.7328 17.6443C10.8557 17.8706 10.9074 17.8254 10.0475 18.2392C9.53024 18.4913 9.41386 18.6206 9.41386 18.9245C9.41386 19.4612 10.1962 20.3663 10.8815 20.6249C11.5216 20.8706 11.8966 20.8642 13.0539 20.5732L14.069 20.3211V22.0344L13.5389 22.7456C11.4311 25.5581 10.1186 28.9396 9.95696 31.9719L9.91171 32.7672L10.0798 32.9353C10.2996 33.1551 10.5906 33.1616 10.8039 32.9418C10.9397 32.8124 10.9656 32.7219 10.9656 32.3793C10.9656 30.3426 11.7996 27.5948 13.1121 25.2995L13.3772 24.834L13.8686 24.7952C16.0281 24.6077 18.9246 23.7543 21.1229 22.6551L21.6789 22.3771L22.2027 23.1659C23.3083 24.8469 23.9936 26.3081 24.4139 27.8987C24.7048 28.9849 24.8018 29.709 24.86 31.2284C24.8923 31.9913 24.9505 32.6961 24.9893 32.793C25.1186 33.1293 25.5453 33.2068 25.8039 32.9418C25.9527 32.7995 25.9656 32.7349 25.9656 32.1788C25.9656 31.39 25.8621 30.0775 25.7328 29.237C25.3643 26.806 24.4527 24.6077 22.8169 22.2284L22.3449 21.5366V19.2219L22.6552 18.8081C25.4936 15.0452 27.1294 10.6034 26.9807 7.07969C26.8578 4.35124 25.7845 2.5021 24.0453 2.03012C23.6768 1.93314 23.6186 1.89434 23.4376 1.60986C23.0044 0.937446 22.2608 0.433135 21.3169 0.18098C20.8449 0.0581354 19.332 -0.0323797 18.9182 0.0387415Z" fill="#675823"/>
<path d="M15.2652 0.678828C15.1617 0.775811 15.1035 0.911587 15.1035 1.03443C15.1035 1.15728 15.1617 1.29305 15.2652 1.39004C15.3621 1.49348 15.4979 1.55167 15.6208 1.55167C15.7436 1.55167 15.8794 1.49348 15.9764 1.39004C16.0798 1.29305 16.138 1.15728 16.138 1.03443C16.138 0.911587 16.0798 0.775811 15.9764 0.678828C15.8794 0.57538 15.7436 0.517191 15.6208 0.517191C15.4979 0.517191 15.3621 0.57538 15.2652 0.678828Z" fill="#675823"/>
<path d="M18.1742 9.95684C17.6117 10.2478 17.2625 10.7974 17.1979 11.5086C17.1655 11.8771 17.1785 11.9482 17.3013 12.1034C17.4112 12.2456 17.4953 12.2844 17.6828 12.2844C18.0061 12.2844 18.1483 12.1228 18.2194 11.6573C18.3099 11.056 18.6073 10.7586 19.0082 10.8685C19.7841 11.0883 20.0168 12.7047 19.4155 13.7262C19.1957 14.0948 18.9048 14.2758 18.3875 14.3599C17.7927 14.4633 17.5729 14.7349 17.7604 15.1551C17.8638 15.3749 18.0966 15.4396 18.5815 15.3879C19.9716 15.2198 20.8703 13.8814 20.7733 12.1228C20.7151 11.1465 20.366 10.4482 19.7259 10.0538C19.4608 9.89219 19.3379 9.85986 18.9242 9.84046C18.5362 9.82753 18.3811 9.85339 18.1742 9.95684Z" fill="#675823"/>
<path d="M5.43709 16.7133C5.33364 16.8103 5.27545 16.9461 5.27545 17.0689C5.27545 17.1918 5.33364 17.3275 5.43709 17.4245C5.58579 17.5797 5.63752 17.5862 6.30993 17.5862C6.98235 17.5862 7.03407 17.5797 7.18278 17.4245C7.28622 17.3275 7.34441 17.1918 7.34441 17.0689C7.34441 16.9461 7.28622 16.8103 7.18278 16.7133C7.03407 16.5581 6.98235 16.5517 6.30993 16.5517C5.63752 16.5517 5.58579 16.5581 5.43709 16.7133Z" fill="#675823"/>
<path d="M1.83579 18.2521C1.75174 18.3426 1.55778 18.7758 1.39614 19.2155C1.24097 19.6486 0.898293 20.5797 0.633207 21.2715C0.368121 21.9633 0.141828 22.5905 0.122431 22.6616C0.1095 22.7327 0.445707 24.3103 0.872431 26.1594L1.65476 29.528V32.7866L1.8164 32.9417C1.91338 33.0452 2.04916 33.1034 2.172 33.1034C2.29484 33.1034 2.43062 33.0452 2.5276 32.9417L2.68924 32.7866V29.4245L1.94571 26.2047C1.53191 24.4331 1.19571 22.9137 1.19571 22.8232C1.18924 22.5517 2.45648 19.2995 2.55993 19.2995C2.61166 19.2995 2.70864 19.4094 2.77976 19.5452L2.89614 19.7909L2.52114 21.2909L2.1526 22.7909L2.61812 24.1939C2.9026 25.0538 3.15476 25.6939 3.26467 25.8491C3.65907 26.3857 4.48665 26.5215 5.11381 26.1594C5.66338 25.8361 5.79269 25.4935 5.79269 24.3943C5.79269 23.6314 5.79915 23.5861 5.95433 23.4374C6.16769 23.2241 6.45864 23.2241 6.67847 23.4439L6.84657 23.612L6.80778 24.7499C6.74959 26.5344 6.42631 27.5948 5.55347 28.9202L5.26252 29.3598L5.36597 30.6982C5.54053 32.9547 5.52114 32.8254 5.70864 32.9741C5.89614 33.1228 6.03838 33.1357 6.26467 33.0323C6.55562 32.8965 6.56855 32.7736 6.43924 31.1508L6.3164 29.6443L6.53622 29.3146C7.047 28.5323 7.47372 27.4784 7.70002 26.4439C7.84226 25.7715 7.90691 23.7672 7.797 23.3728C7.68062 22.959 7.2345 22.4741 6.84657 22.3448C6.21941 22.1314 5.7151 22.2478 5.24312 22.7262C4.82933 23.1336 4.75821 23.3728 4.75821 24.3361C4.75821 25.0021 4.74528 25.0991 4.6289 25.2155C4.48019 25.3642 4.31209 25.3836 4.15691 25.2607C4.09872 25.2219 3.86597 24.64 3.63967 23.9611L3.23234 22.7327L3.57502 21.3426C3.8401 20.2887 3.91769 19.8749 3.89183 19.668C3.78191 18.8275 3.15476 18.2068 2.32717 18.1228C2.02329 18.0905 1.97157 18.1034 1.83579 18.2521Z" fill="#675823"/>
<path d="M6.45892 19.2866C5.88995 19.8556 5.79297 19.9849 5.79297 20.1594C5.79297 20.4439 6.03866 20.6896 6.31668 20.6896C6.48478 20.6896 6.62055 20.5862 7.18952 20.0237C7.77142 19.4547 7.86193 19.3319 7.86193 19.1508C7.86193 18.8663 7.61624 18.6206 7.33176 18.6206C7.15719 18.6206 7.02788 18.7176 6.45892 19.2866Z" fill="#675823"/>
<path d="M8.54053 20.334C8.38536 20.4827 8.3789 20.5344 8.3789 21.2068C8.3789 21.8793 8.38536 21.931 8.54053 22.0797C8.63752 22.1831 8.77329 22.2413 8.89614 22.2413C9.01898 22.2413 9.15476 22.1831 9.25174 22.0797C9.40691 21.931 9.41338 21.8793 9.41338 21.2068C9.41338 20.5344 9.40691 20.4827 9.25174 20.334C9.15476 20.2305 9.01898 20.1724 8.89614 20.1724C8.77329 20.1724 8.63752 20.2305 8.54053 20.334Z" fill="#675823"/>
<path d="M18.4974 24.8987C18.3229 24.9374 17.9414 25.0797 17.6504 25.2155C16.6677 25.6874 15.8789 26.7155 15.6914 27.7629C15.6461 27.9892 15.6203 29.1012 15.6203 30.4655V32.7866L15.7819 32.9418C15.9694 33.1357 16.2604 33.1487 16.4673 32.9805L16.6224 32.8577L16.6871 27.834L16.894 27.4008C17.1785 26.7995 17.5405 26.4245 18.1289 26.1336C18.5944 25.9073 18.6526 25.8943 19.241 25.8943C19.8293 25.8943 19.8875 25.9073 20.353 26.1336C20.9414 26.4245 21.3035 26.7995 21.5879 27.4008L21.7948 27.834L21.8595 32.8577L22.0147 32.9805C22.228 33.1551 22.5125 33.1357 22.7065 32.9418L22.8681 32.7801L22.8487 30.2392C22.8229 27.7887 22.8164 27.6918 22.6742 27.3038C22.1375 25.8426 20.9026 24.918 19.4026 24.8599C19.0858 24.8469 18.6785 24.8599 18.4974 24.8987Z" fill="#675823"/>
</svg>
