<svg width="12" height="7" viewBox="0 0 12 7" fill="none" xmlns="http://www.w3.org/2000/svg">
<path d="M11.0611 1.12934C10.9088 0.982432 10.7024 0.899902 10.4871 0.899902C10.2718 0.899902 10.0653 0.982432 9.91302 1.12934L5.89393 5.00836L1.87483 1.12934C1.7217 0.986595 1.5166 0.907609 1.30371 0.909394C1.09082 0.91118 0.887178 0.993594 0.736638 1.13889C0.586099 1.28418 0.500709 1.48073 0.498858 1.6862C0.497008 1.89166 0.578847 2.08961 0.726748 2.23741L5.31989 6.67046C5.47215 6.81737 5.67863 6.8999 5.89393 6.8999C6.10922 6.8999 6.31571 6.81737 6.46797 6.67046L11.0611 2.23741C11.2133 2.09045 11.2988 1.89117 11.2988 1.68338C11.2988 1.47558 11.2133 1.2763 11.0611 1.12934Z" fill="#404040"/>
</svg>
