<svg width="39" height="28" viewBox="0 0 39 28" fill="none" xmlns="http://www.w3.org/2000/svg">
<path d="M38.9996 21.0296C38.9996 24.7721 36.9758 27.8061 32.9996 27.8061H6.59961C2.62341 27.8061 0.599609 24.7721 0.599609 21.0296V7.47667C0.599609 3.73421 2.62341 0.700195 6.59961 0.700195H32.9996C36.9758 0.700195 38.9996 3.73421 38.9996 7.47667V21.0296Z" fill="#137A08"/>
<path fill-rule="evenodd" clip-rule="evenodd" d="M18.9548 13.8342C18.9122 13.2225 19.0076 13.0691 19.6898 12.6631C19.496 12.482 19.262 12.4401 19.022 12.421C18.7346 12.3988 18.4478 12.389 18.1634 12.3613C18.017 12.3483 17.9894 12.2892 18.017 12.1407C18.0938 11.7341 18.299 11.452 18.7022 11.3232C19.0946 11.1969 19.478 11.0405 19.8764 10.892C19.8638 10.8569 19.8476 10.8224 19.8326 10.7867C19.7878 10.6995 19.7632 10.603 19.7606 10.5045C19.758 10.406 19.7775 10.3082 19.8176 10.2187C19.8494 10.1484 19.8848 10.0782 19.9244 10.0135C20.1704 9.61002 20.4092 9.53548 20.8274 9.73754C20.9594 9.80161 21.0878 9.87862 21.2024 9.97041C21.5348 10.2359 21.5648 10.6105 21.2678 10.9203C21.1436 11.0466 20.9756 11.1335 20.8262 11.2376C20.7404 11.2955 20.6024 11.2795 20.5724 11.4224C20.5706 11.4335 20.5202 11.4347 20.4926 11.4397C20.4176 11.444 20.3354 11.428 20.2682 11.4551C19.9472 11.577 19.631 11.7089 19.3148 11.8419C19.2656 11.8604 19.223 11.8943 19.1756 11.9208L19.184 11.9615C19.4672 11.9615 19.754 11.9658 20.0366 11.9596C20.6708 11.943 21.3062 11.922 21.9404 11.9017C22.1468 11.8968 22.1714 11.9362 22.1096 12.1389C22.0951 12.1823 22.0815 12.2261 22.0688 12.2701C22.0076 12.4986 21.8564 12.6009 21.6326 12.636C20.9534 12.7358 20.3042 12.9576 19.6664 13.2176C19.52 13.2792 19.3688 13.3623 19.3616 13.5453C19.3562 13.7246 19.4846 13.8373 19.625 13.9162C19.7672 13.9944 19.9184 14.0511 20.0666 14.1108C20.2358 14.1761 20.2664 14.2273 20.2226 14.4022C20.1266 14.7681 20.117 14.7897 19.7342 14.7478C18.9686 14.6628 18.3008 14.3776 17.8496 13.6932C17.7584 13.5539 17.6894 13.3975 17.5988 13.2293C17.5622 13.2773 17.5262 13.3211 17.4902 13.3673C17.2022 13.7732 16.8902 14.1576 16.493 14.462C16.2068 14.6831 15.9038 14.8562 15.5258 14.8476C15.08 14.8365 14.8016 14.6037 14.7158 14.1503C14.705 14.0942 14.693 14.0394 14.6816 13.9864C14.2652 14.1447 13.856 14.3018 13.4474 14.4509C13.247 14.5217 13.0454 14.5864 12.8414 14.6425C12.77 14.6628 12.692 14.6554 12.617 14.6597C12.6086 14.6412 12.5996 14.6228 12.5936 14.603C12.65 14.5624 12.704 14.5162 12.7634 14.4811C13.3694 14.1195 13.9694 13.7572 14.5754 13.3981C14.6696 13.342 14.7128 13.2632 14.7446 13.1597C14.8382 12.8818 14.9426 12.6089 15.0464 12.3342C15.0656 12.2824 15.101 12.2405 15.149 12.1604C15.2654 12.4229 15.1544 12.6681 15.212 12.9126C15.2474 12.8935 15.2822 12.8757 15.3086 12.8523C15.5312 12.6637 15.7568 12.4814 15.9686 12.2824C16.2638 12.0033 16.3076 11.7699 16.1492 11.3928C16.0592 11.1846 15.9584 10.9819 15.857 10.7799C15.8374 10.7388 15.8055 10.7053 15.7658 10.6844C15.6452 10.6123 15.6086 10.5088 15.6536 10.3819C15.7058 10.2421 15.7664 10.1072 15.8342 9.97595C15.8864 9.87677 15.977 9.8626 16.0466 9.94576C16.2014 10.1275 16.3478 10.3185 16.4834 10.5138C16.5638 10.6296 16.5194 10.7195 16.3982 10.7577C16.4594 11.0078 16.5284 11.2518 16.577 11.4988C16.67 11.9916 16.5224 12.4149 16.2014 12.7839C15.902 13.1295 15.5714 13.4369 15.1808 13.6747C15.1328 13.703 15.0944 13.7862 15.0968 13.8459C15.098 13.9808 15.1532 14.1182 15.29 14.1435C15.4496 14.173 15.6248 14.1878 15.7778 14.1503C16.1438 14.0646 16.4366 13.8293 16.6784 13.549C16.9202 13.2632 17.1236 12.9403 17.3426 12.6348C17.408 12.5424 17.4104 12.4506 17.378 12.3409C17.1758 11.699 16.982 11.0516 16.7822 10.4103C16.6856 10.1004 16.7852 9.68764 17.0144 9.50776C17.0534 9.57429 17.0912 9.63589 17.1242 9.70304C17.5358 10.5698 17.7818 11.4853 17.9036 12.4401C17.9468 12.795 18.0122 13.1486 18.2588 13.4301C18.4436 13.6426 18.6842 13.7628 18.9548 13.8342ZM20.8382 10.6253C20.8394 10.6105 20.8394 10.5945 20.8394 10.5809C20.6654 10.5008 20.5274 10.3388 20.2814 10.3388C20.2994 10.4836 20.315 10.6099 20.3306 10.7602L20.8382 10.6253ZM26.0456 21.9894C25.7288 21.9894 25.448 21.9845 25.1654 21.9925C24.5858 22.0054 24.0086 22.0338 23.426 22.0381C20.1632 22.0633 16.8974 22.0855 13.6328 22.0978C13.0358 22.0991 12.4358 22.0572 11.8544 21.8871C11.5814 21.8071 11.3258 21.6857 11.1236 21.4682C11.0756 21.4165 11.0348 21.3512 10.9664 21.26H11.2274C14.8154 21.2834 18.4034 21.3136 21.9902 21.3302C23.2754 21.3382 24.5582 21.3222 25.8434 21.3136C25.895 21.3136 25.9868 21.2964 25.9892 21.2785C25.9988 21.2113 26.0012 21.1183 25.9622 21.0764C25.7852 20.875 25.8854 20.7105 26.0234 20.5417C26.0792 20.4739 26.138 20.4635 26.1998 20.538C26.369 20.7468 26.4194 20.8553 26.2682 21.0542C26.2256 21.1109 26.2286 21.2046 26.2058 21.2964C26.2724 21.3019 26.312 21.3099 26.3492 21.3087C26.9612 21.2976 27.5678 21.284 28.1786 21.2711C28.2938 21.2711 28.4108 21.2791 28.526 21.2933C28.802 21.3259 28.9484 21.4639 29.0084 21.7461C29.06 21.982 29.06 22.2204 28.9712 22.449C28.8524 22.7582 28.5782 22.8211 28.334 22.6011C28.2916 22.5688 28.241 22.5497 28.1882 22.5463C28.0322 22.5414 27.8756 22.5463 27.7196 22.5475C27.6038 22.5494 27.4886 22.5309 27.404 22.6652C27.3488 22.7521 27.248 22.7157 27.161 22.659C27.0983 22.6158 27.0266 22.5884 26.9516 22.579C26.8262 22.5679 26.699 22.5851 26.5742 22.5765C26.4272 22.5691 26.3084 22.5944 26.2424 22.7514C26.2052 22.8358 26.138 22.8328 26.0714 22.7681C25.8908 22.6011 25.8758 22.4656 25.9964 22.2444C26.0318 22.1785 26.027 22.0917 26.0456 21.9894ZM28.19 22.3282L28.2266 21.9309C28.1966 21.9278 28.172 21.9179 28.1492 21.9179C27.5612 21.9333 26.9738 21.9463 26.3846 21.9641C26.2472 21.9685 26.195 22.0664 26.2628 22.1939C26.3222 22.3023 26.393 22.3911 26.5472 22.3627C26.6846 22.3399 26.828 22.3578 26.9672 22.3442C27.0316 22.3364 27.0918 22.308 27.1394 22.2629C27.2342 22.1705 27.3236 22.173 27.4208 22.2475C27.4604 22.2802 27.5018 22.3227 27.5426 22.3245C27.7568 22.3344 27.9734 22.3282 28.19 22.3282Z" fill="white"/>
<path fill-rule="evenodd" clip-rule="evenodd" d="M12.0836 11.5296C11.9216 11.5789 11.7602 11.6282 11.5988 11.683C11.4326 11.736 11.2778 11.6959 11.1332 11.6196C11.0864 11.598 11.0342 11.5425 11.0276 11.4988C10.9724 11.0836 10.9496 10.6739 11.2442 10.3216C11.4494 10.0733 11.6558 10.0308 11.8892 10.2507C12.068 10.4158 12.2144 10.6166 12.3884 10.8168C12.4436 10.7842 12.5306 10.7429 12.6068 10.6869C12.6238 10.6712 12.6375 10.6521 12.6471 10.6308C12.6567 10.6095 12.662 10.5865 12.6626 10.563C12.6194 10.0394 12.5708 9.51207 12.5216 8.9872C12.4664 8.39642 12.4088 7.80686 12.3512 7.21485C12.348 7.17416 12.3408 7.13391 12.3296 7.09472C12.2546 6.85877 12.3848 6.55445 12.6158 6.45896C12.6446 6.44602 12.7214 6.48114 12.7376 6.51379C12.7928 6.63022 12.8306 6.75405 12.8738 6.87541C12.9536 7.0978 13.0328 7.32265 13.1108 7.54504C13.1334 7.60207 13.1471 7.66234 13.1516 7.7237C13.1684 7.93746 13.0862 8.00461 12.887 7.94917C12.9398 8.75495 12.9962 9.55889 13.0544 10.3936C13.1444 10.3185 13.2074 10.2544 13.2788 10.2039C13.3262 10.1706 13.3844 10.1552 13.4378 10.1312C13.4612 10.1916 13.4978 10.2476 13.5032 10.3074C13.5176 10.4115 13.4912 10.5224 13.5218 10.6166C13.5554 10.7152 13.616 10.8452 13.6958 10.8766C13.7738 10.9068 13.9316 10.86 13.9844 10.7904C14.1146 10.6259 14.2076 10.43 14.3102 10.2427C14.336 10.1953 14.3522 10.1435 14.3726 10.0942H14.4194C14.4392 10.1971 14.4518 10.3061 14.483 10.4059C14.5202 10.5218 14.5568 10.6481 14.6252 10.7398C14.7428 10.8969 14.9066 10.8594 14.9474 10.6727C14.972 10.5556 14.9612 10.4263 14.9432 10.3092C14.9198 10.1774 14.9708 10.0499 15.0962 10.0259C15.131 10.0203 15.2012 10.064 15.2114 10.0985C15.296 10.4226 15.2894 10.7485 15.158 11.0559C15.0524 11.2974 14.6342 11.3128 14.42 11.0978C14.381 11.059 14.3456 11.0109 14.2952 10.9548C14.132 11.1273 13.9634 11.2832 13.7162 11.3066C13.4702 11.3294 13.271 11.2629 13.1354 11.0103C13.1186 11.0633 13.1018 11.0898 13.1018 11.1169C13.112 11.3867 13.1258 11.6553 13.1354 11.9239C13.154 12.4069 13.1276 12.8837 12.9368 13.3377C12.7822 13.7078 12.5041 14.0092 12.1526 14.1878C11.5772 14.4885 10.97 14.6837 10.3172 14.6868C10.2032 14.6868 10.085 14.6665 9.97404 14.6431C9.53964 14.5507 9.32184 14.2451 9.21444 13.8299C9.04584 13.1812 9.08544 12.543 9.29724 11.9103C9.31524 11.8567 9.34944 11.8068 9.37524 11.7563C9.38993 11.7617 9.40527 11.765 9.42084 11.7662C9.42084 11.9368 9.43944 12.1099 9.41904 12.275C9.36564 12.6791 9.38184 13.0697 9.52044 13.451C9.64704 13.8047 9.90504 14.003 10.2716 14.0252C10.985 14.0671 11.5946 13.788 12.1616 13.371C12.554 13.082 12.71 12.6853 12.71 12.2079C12.7082 11.8974 12.71 11.5857 12.71 11.2542C12.5966 11.3041 12.4652 11.3078 12.4838 11.4736C12.5798 12.3841 12.0782 12.9102 11.3672 13.2946C11.1752 13.3999 10.9634 13.488 10.7498 13.5317C10.2032 13.6445 9.71244 13.265 9.62844 12.6976C9.56904 12.2917 9.63504 11.8962 9.73224 11.5037C9.74904 11.4409 9.79644 11.3867 9.82884 11.3263C9.84138 11.3327 9.8547 11.3372 9.86844 11.3399C9.86844 11.4187 9.87564 11.497 9.86844 11.574C9.83964 11.8863 9.83784 12.1962 9.96564 12.4888C10.1354 12.8837 10.4108 13.0093 10.8092 12.8744C11.3042 12.7069 11.6858 12.3736 12.0068 11.967C12.0896 11.8604 12.0956 11.6966 12.137 11.5579C12.122 11.5475 12.1016 11.5382 12.0836 11.5296ZM11.9036 11.0208C11.8316 10.9308 11.7914 10.8513 11.7296 10.8088C11.6606 10.7608 11.5688 10.7448 11.4896 10.7152C11.4698 10.8002 11.4272 10.8889 11.4404 10.9696C11.4458 11.0195 11.5334 11.0891 11.5868 11.0935C11.6822 11.0965 11.7776 11.0528 11.9036 11.0208ZM29.1122 9.69442C29.1284 10.0449 29.1482 10.3936 29.1638 10.7448C29.1914 11.3294 29.234 11.9122 29.2322 12.4956C29.2285 12.7328 29.1716 12.9659 29.066 13.1769C28.8074 13.6925 28.3526 13.7597 27.866 13.4492C27.716 13.3549 27.6014 13.1985 27.4862 13.0549C27.4196 12.9761 27.3704 12.9551 27.311 13.0383C27.2237 13.1574 27.1435 13.2818 27.071 13.411C26.885 13.7548 26.7086 14.1041 26.5244 14.4484C26.4875 14.5218 26.436 14.5864 26.3732 14.6382C26.318 14.6801 26.2328 14.7152 26.1692 14.7065C25.8494 14.6536 25.3904 14.1201 25.3952 13.7843C25.397 13.4979 25.433 13.2089 25.475 12.9237C25.5008 12.7383 25.559 12.5596 25.6034 12.3773C25.6256 12.3797 25.6472 12.3797 25.6676 12.3816C25.6796 12.4715 25.7036 12.5615 25.7036 12.652C25.6994 13.0451 25.7282 13.4252 25.8842 13.7899C25.904 13.8318 25.9214 13.8761 25.946 13.9149C26.063 14.1047 26.213 14.1114 26.3372 13.9248C26.4032 13.8225 26.4524 13.7086 26.5124 13.6001C26.7326 13.2003 26.945 12.7931 27.1766 12.4019C27.3254 12.1475 27.4712 12.1475 27.6668 12.3736C27.794 12.5239 27.9068 12.6945 28.0478 12.8295C28.2602 13.0315 28.5596 12.957 28.6592 12.6779C28.7138 12.5147 28.7534 12.3342 28.7468 12.1629C28.7186 11.3337 28.676 10.5002 28.6346 9.67101C28.6238 9.48989 28.5974 9.30754 28.5992 9.12766C28.604 8.9676 28.5493 8.81168 28.4462 8.6915C28.1486 8.31387 27.8624 7.92576 27.5648 7.54812C27.413 7.35838 27.3188 7.16556 27.3536 6.91298C27.3722 6.79594 27.3506 6.67273 27.3596 6.55506C27.3644 6.50393 27.3854 6.42878 27.4208 6.41091C27.4568 6.39428 27.533 6.42077 27.566 6.45403C27.7982 6.67704 28.025 6.90374 28.2476 7.13538C28.3436 7.23394 28.3256 7.29432 28.184 7.38795C28.2716 7.52164 28.361 7.65347 28.4468 7.78407C28.4621 7.78049 28.4775 7.77761 28.493 7.77545C28.4654 7.56045 28.4714 7.33313 28.403 7.13722C28.2956 6.83598 28.4072 6.61297 28.568 6.39366C28.652 6.27846 28.7186 6.35423 28.754 6.44664C28.844 6.68258 28.9286 6.9173 29.0108 7.15755C29.0618 7.30356 29.1026 7.4551 29.1548 7.62944C29.0702 7.6239 29.0258 7.61835 28.985 7.61466C28.9838 7.62575 28.9772 7.63314 28.9772 7.643C28.9958 7.95287 29.0126 8.2652 29.0342 8.57322C29.0372 8.60834 29.0402 8.64715 29.06 8.67548C29.2664 8.97673 29.48 9.27797 29.7152 9.56751C29.6822 9.34327 29.6414 9.11595 29.6192 8.88987C29.5556 8.27814 29.5172 7.66333 29.4338 7.05529C29.399 6.79532 29.4524 6.58956 29.5988 6.39366C29.7134 6.2415 29.8088 6.24458 29.8646 6.42569C29.9792 6.7984 30.0794 7.1785 30.1736 7.55983C30.2084 7.69782 30.149 7.7508 29.996 7.75696C30.0296 8.24795 30.0644 8.7377 30.1016 9.22499C30.1262 9.53671 30.149 9.8472 30.1838 10.154C30.1952 10.2402 30.2228 10.3351 30.2702 10.4096C30.5546 10.8544 30.851 11.2937 31.133 11.7384C31.3184 12.0317 31.4162 12.3539 31.3916 12.7075C31.3886 12.7562 31.379 12.803 31.37 12.8991C30.9974 12.3379 30.6518 11.8198 30.3074 11.2992C30.2666 11.8555 30.3998 12.4118 30.1376 12.9243C30.1214 12.9243 30.1022 12.9243 30.086 12.9256C30.0764 12.8492 30.0548 12.774 30.0584 12.6952C30.0824 12.0853 30.0368 11.4766 29.9288 10.8772C29.9204 10.8366 29.915 10.791 29.891 10.7602C29.6468 10.4004 29.3978 10.0449 29.15 9.68703C29.1374 9.68887 29.1242 9.69195 29.1122 9.69442Z" fill="white"/>
<path fill-rule="evenodd" clip-rule="evenodd" d="M10.6292 6.85877C10.8956 7.06761 11.0174 7.31464 10.9874 7.61651C10.9478 7.99291 11.0336 8.3459 11.129 8.69951C11.1992 8.95455 11.3492 9.05989 11.591 9.06729C11.7896 9.07037 11.8688 8.98905 11.8268 8.79192C11.753 8.4611 11.663 8.13337 11.5796 7.80563C11.5636 7.73959 11.5392 7.676 11.507 7.61651C11.3744 7.36824 11.4434 7.16803 11.6312 6.98506C11.711 6.90621 11.7806 6.89635 11.8472 6.97952C11.9498 7.10704 12.0578 7.23333 12.1364 7.37686C12.2354 7.54936 12.2048 7.62451 12.029 7.72678C12.086 7.97997 12.1652 8.23317 12.1922 8.4919C12.2198 8.72723 12.2246 8.97858 12.179 9.21021C12.1106 9.54903 11.654 9.80223 11.3342 9.72337C11.1464 9.6747 11.0336 9.54595 10.9616 9.37038C10.931 9.29584 10.9064 9.21699 10.8698 9.11472C10.8272 9.17448 10.7936 9.21021 10.7672 9.25148C10.7138 9.33157 10.6802 9.43506 10.61 9.4942C10.4294 9.6439 10.457 9.83118 10.4726 10.0277C10.5104 10.5649 10.5488 11.1008 10.5704 11.638C10.5794 11.8555 10.526 12.0643 10.3412 12.2301C10.3064 11.8481 10.2728 11.4686 10.2338 11.0873C10.1948 10.7023 10.1504 10.3166 10.106 9.92297C10.0838 9.91804 10.0634 9.90819 10.0388 9.90634C9.63864 9.86506 9.40044 9.65438 9.29424 9.25272C9.20904 8.93176 9.22164 8.6071 9.25344 8.2843C9.26604 8.14877 9.27084 8.01447 9.28104 7.87771C9.25644 7.87401 9.23604 7.86785 9.21264 7.86477C9.15384 8.08285 9.09204 8.30093 9.04044 8.52147C8.96364 8.83257 8.90304 9.14491 8.82624 9.45416C8.80234 9.52718 8.76393 9.59431 8.71344 9.6513C8.56044 9.85397 8.37144 9.85028 8.25804 9.62419C8.15729 9.42235 8.07842 9.20978 8.02284 8.99028C7.89025 8.52115 7.88176 8.02421 7.99824 7.55059C8.01144 7.49145 8.04444 7.43477 8.06664 7.37686C8.08044 7.3781 8.09604 7.38179 8.11224 7.38179C8.11824 7.44833 8.12604 7.51856 8.13264 7.5857C8.17164 7.96334 8.20104 8.34467 8.25864 8.72292C8.27724 8.85475 8.34744 8.98535 8.42004 9.09932C8.49504 9.22191 8.60064 9.21267 8.64324 9.07899C8.70684 8.86707 8.75724 8.64961 8.78364 8.43215C8.82684 8.02925 8.93124 7.65162 9.14664 7.31095C9.20784 7.21854 9.28284 7.12737 9.37104 7.067C9.52284 6.96473 9.68124 7.0479 9.67524 7.23148C9.66778 7.4215 9.64103 7.61021 9.59544 7.79454C9.49524 8.17957 9.50484 8.55166 9.68124 8.9102C9.77004 9.07961 9.86184 9.13998 10.0514 9.15538C10.04 8.98967 10.0376 8.8258 10.0172 8.66378C9.96384 8.18943 9.90504 7.71261 9.84324 7.23826C9.82381 7.10298 9.79555 6.9692 9.75864 6.83783C9.72984 6.71154 9.82284 6.43986 9.93504 6.38627C9.96804 6.36963 10.052 6.39489 10.0688 6.42631C10.1834 6.65363 10.2974 6.88403 10.3898 7.12244C10.4111 7.17592 10.4144 7.23514 10.3993 7.29078C10.3842 7.34643 10.3516 7.39534 10.3064 7.42984C10.28 7.44956 10.2644 7.49823 10.2662 7.53519C10.3106 8.03849 10.3598 8.54365 10.4066 9.04511C10.4078 9.05497 10.4174 9.06113 10.4246 9.06852C10.625 8.93669 10.7408 8.66316 10.6988 8.43584C10.6382 8.12659 10.5746 7.8198 10.5224 7.50808C10.4846 7.2937 10.5392 7.09164 10.6292 6.85877ZM15.9302 6.97767C15.9254 7.02819 15.923 7.07624 15.914 7.12306C15.8474 7.49268 15.8336 7.86539 15.9098 8.2344C15.9422 8.38902 16.0184 8.54303 16.0994 8.68164C16.1366 8.74448 16.2338 8.80855 16.3004 8.80485C16.3544 8.80177 16.4264 8.70937 16.454 8.64037C16.6082 8.28922 16.742 7.92638 16.9058 7.57646C17.0072 7.35838 17.1356 7.15016 17.2706 6.95303C17.3198 6.88341 17.4452 6.79162 17.5004 6.8138C17.621 6.85754 17.6738 6.98937 17.6564 7.13476C17.6354 7.29801 17.5976 7.46126 17.591 7.62451C17.5784 7.96026 17.5616 8.29723 17.5784 8.63236C17.5946 8.99275 17.8598 9.14491 18.188 9.00014C18.6854 8.78206 18.8114 8.46295 18.7778 7.94917C18.7532 7.55737 18.6584 7.16556 18.5882 6.77622C18.5462 6.52241 18.704 6.35731 18.8144 6.138C18.995 6.35423 19.0454 6.5871 19.076 6.81811C19.13 7.20129 19.151 7.58878 19.208 7.97319C19.2488 8.25534 19.3424 8.52455 19.5272 8.74941C19.6082 8.84859 19.7024 8.92868 19.8392 8.88309C19.9802 8.83935 20.024 8.71676 20.036 8.58061C20.0666 8.2307 19.9952 7.89188 19.8944 7.56106C19.8313 7.35433 19.7628 7.14932 19.6892 6.94625C19.6484 6.83598 19.6586 6.75035 19.7366 6.6641C19.7948 6.60003 19.8296 6.51625 19.874 6.44171C19.952 6.30125 20.0012 6.28893 20.1218 6.38442C20.3576 6.57478 20.4986 6.82859 20.5754 7.11874C20.588 7.16679 20.5574 7.23148 20.546 7.28569C20.4944 7.27522 20.441 7.27091 20.3948 7.24996C20.3492 7.23086 20.3108 7.19513 20.2424 7.1477C20.3 7.37686 20.3522 7.5703 20.3948 7.7699C20.4596 8.08839 20.5052 8.41182 20.4134 8.73462C20.3996 8.78945 20.3876 8.84489 20.369 8.89972C20.1644 9.46279 19.7222 9.57737 19.2812 9.18187C19.187 9.09686 19.0898 9.01677 19.0088 8.94777C18.854 9.09686 18.6764 9.27612 18.4886 9.44061C18.4202 9.50406 18.326 9.54102 18.2366 9.57737C17.8334 9.74247 17.477 9.58107 17.3216 9.16709C17.1932 8.83381 17.216 8.48574 17.2376 8.13891C17.2418 8.06006 17.2376 7.97874 17.2376 7.89865C17.221 7.89383 17.2042 7.88952 17.1872 7.88572C17.1518 7.95841 17.1104 8.02987 17.0834 8.10811C16.97 8.41736 16.8692 8.73154 16.7528 9.04018C16.5866 9.48496 16.3328 9.517 16.0406 9.14737C15.5318 8.4956 15.5546 7.789 15.8324 7.05714C15.845 7.02634 15.8696 6.99738 15.8876 6.96905C15.9009 6.97582 15.9154 6.9796 15.9302 6.98013M22.1246 8.11119C22.0964 7.81918 22.1138 7.5087 22.0226 7.24134C21.986 7.14105 21.9697 7.03416 21.9747 6.92719C21.9796 6.82022 22.0057 6.7154 22.0514 6.61913C22.0814 6.55814 22.148 6.47806 22.2014 6.47436C22.2548 6.47067 22.3388 6.54089 22.3634 6.59942C22.5152 6.97151 22.6616 7.34298 22.7906 7.72431C22.8548 7.91714 22.7948 7.98428 22.6046 7.96827C22.6196 8.3151 22.6322 8.66008 22.6556 9.00383C22.6568 9.05065 22.6976 9.09624 22.7222 9.14244C23.1566 9.89833 23.6024 10.6487 24.0212 11.4138C24.2294 11.7902 24.3908 12.1956 24.4508 12.6329C24.4634 12.7204 24.461 12.8128 24.464 12.9034C24.4482 12.9125 24.432 12.921 24.4154 12.9286C24.3782 12.8781 24.3326 12.8319 24.308 12.7752C23.909 11.8056 23.3612 10.921 22.8158 10.0314C22.7882 9.9895 22.76 9.95008 22.7066 9.87307C22.7342 10.2168 22.76 10.5193 22.7834 10.8187C22.8368 11.4822 22.9634 12.1426 22.886 12.8104C22.8476 13.1264 22.7528 13.4338 22.673 13.7412C22.6568 13.8151 22.6004 13.8792 22.5602 13.9457C22.5386 13.9402 22.5146 13.9371 22.4948 13.9322C22.4948 13.8527 22.4798 13.7695 22.4978 13.6925C22.6472 13.0968 22.5938 12.4925 22.5266 11.8918C22.4396 11.0959 22.3328 10.3031 22.2464 9.50776C22.2122 9.19974 22.145 8.91944 21.9476 8.66994C21.6578 8.29662 21.404 7.89989 21.1244 7.51856C21.0416 7.40705 20.9246 7.32204 20.8352 7.21546C20.7836 7.15755 20.7314 7.08055 20.7224 7.00909C20.7042 6.81852 20.698 6.62694 20.7038 6.43555C20.7038 6.38196 20.7338 6.30434 20.7716 6.28216C20.8112 6.26368 20.8934 6.28339 20.9318 6.3185C21.227 6.59264 21.5186 6.87048 21.8024 7.15632C21.8516 7.20437 21.8582 7.29863 21.8846 7.3744C21.806 7.39103 21.7298 7.41075 21.6398 7.43169C21.7862 7.65162 21.9392 7.88756 22.097 8.12289C22.106 8.11796 22.1138 8.11304 22.1246 8.10934M31.7306 7.55675C31.7612 7.94424 31.7924 8.34528 31.8254 8.74386C31.8908 9.53363 31.9604 10.3197 32.027 11.1082C32.081 11.6591 32.0596 12.2151 31.9634 12.7598C31.8242 13.5133 31.508 14.1453 30.7718 14.4515C30.5564 14.5414 30.3212 14.5883 30.092 14.6486C30.029 14.6628 29.9588 14.6499 29.8916 14.6499C29.8856 14.6314 29.8766 14.616 29.8712 14.5981C29.9378 14.5341 29.9984 14.4644 30.0692 14.4084C30.3098 14.2186 30.5594 14.0461 30.7946 13.8515C31.358 13.3796 31.6244 12.7611 31.586 12.0255C31.5456 11.2668 31.4886 10.5091 31.415 9.75294C31.343 8.98289 31.2518 8.21407 31.1642 7.44525C31.1414 7.24503 31.109 7.04667 31.0802 6.84768C31.0568 6.70353 31.2332 6.3376 31.3616 6.29633C31.3922 6.2877 31.4672 6.32774 31.4834 6.36532C31.6394 6.70107 31.787 7.03866 31.9328 7.37933C31.9508 7.43169 31.9388 7.49514 31.9418 7.55675H31.7306Z" fill="white"/>
<path fill-rule="evenodd" clip-rule="evenodd" d="M22.7396 14.7755C22.8206 14.7343 22.898 14.6776 22.9814 14.6542C23.54 14.4977 23.9324 14.1121 24.311 13.6956C24.6566 13.3161 24.7526 12.867 24.7142 12.3637C24.6692 11.7415 24.6506 11.115 24.6002 10.4928C24.5378 9.71906 24.4538 8.95085 24.374 8.18018C24.346 7.90843 24.311 7.63748 24.269 7.36762C24.2582 7.28591 24.2397 7.20545 24.2138 7.12737C24.1694 6.97582 24.1892 6.84522 24.3014 6.7294C24.4082 6.62776 24.5066 6.51933 24.6254 6.39366C24.6662 6.46204 24.7136 6.51256 24.7316 6.56923C24.8258 6.89389 24.9194 7.22224 25.004 7.55121C25.049 7.72185 25.0082 7.75573 24.8114 7.71692C24.8114 7.88387 24.8 8.04774 24.8126 8.20914C24.9026 9.5324 25.1 10.8489 25.0844 12.1808C25.0778 12.6785 25.0718 13.1775 24.8486 13.6352C24.647 14.0474 24.3434 14.38 23.984 14.656C23.8872 14.7289 23.7753 14.7778 23.657 14.799C23.4134 14.8378 23.1674 14.8525 22.922 14.8704C22.8656 14.8735 22.8074 14.847 22.7504 14.8359C22.7478 14.8156 22.7442 14.7955 22.7396 14.7755ZM25.9376 7.84691C25.9658 8.15677 25.9868 8.43892 26.0192 8.72292C26.1032 9.49174 26.1902 10.2618 26.282 11.0294C26.3258 11.4021 26.3912 11.7742 26.4416 12.1469C26.504 12.62 26.4104 13.0629 26.1968 13.4788C26.159 13.5527 26.0882 13.6063 26.0324 13.6685C26.015 13.6654 25.9982 13.6593 25.982 13.6568C25.967 13.5903 25.9328 13.5194 25.9466 13.4634C26.0762 12.9157 25.9898 12.3742 25.919 11.8309C25.8176 11.0854 25.7342 10.3357 25.6316 9.59092C25.5236 8.81902 25.4144 8.04712 25.289 7.2783C25.2356 6.94317 25.2926 6.65609 25.4966 6.39304C25.61 6.24704 25.7072 6.25505 25.7768 6.42323C25.844 6.58648 25.8866 6.75343 25.9526 6.91668C26.0444 7.14646 26.153 7.36701 26.2442 7.59679C26.2784 7.68181 26.2814 7.77914 26.2976 7.86785C26.2124 7.87216 26.1254 7.87771 26.039 7.87771C26.015 7.87709 25.9928 7.86477 25.9376 7.84691ZM13.5494 8.60833C13.613 8.55351 13.679 8.49313 13.7444 8.43892C14.024 8.20359 14.3078 7.9732 14.5832 7.73047C14.69 7.63437 14.7722 7.50747 14.8664 7.39966C14.6414 7.05529 14.6642 6.6869 14.9168 6.46574C15.0254 6.37087 15.1454 6.31727 15.2906 6.38504C15.4292 6.45465 15.4694 6.58094 15.4538 6.72324C15.4406 6.85508 15.4004 6.98568 15.3776 7.1132C15.3614 7.20561 15.3662 7.30232 15.3422 7.39103C15.3196 7.45212 15.2835 7.50696 15.2366 7.55121C15.1826 7.60603 15.1004 7.63807 15.0548 7.69721C14.7044 8.15369 14.2406 8.44077 13.7192 8.64283C13.6766 8.65885 13.6262 8.657 13.5782 8.66316C13.5692 8.64591 13.5602 8.62682 13.5494 8.60833ZM15.1424 6.76637C15.1166 6.76205 15.0908 6.75343 15.0662 6.74973C15.05 6.83598 15.0308 6.92346 15.0158 7.00909L15.0782 7.02079C15.1016 6.93455 15.1196 6.85138 15.1424 6.76637ZM8.50704 12.389C8.55924 12.6071 8.55804 12.79 8.51364 12.9866C8.46024 13.2268 8.43564 13.4732 8.40324 13.7166C8.39844 13.7548 8.40324 13.8028 8.42304 13.8355C8.46264 13.9014 8.50284 13.9876 8.56224 14.0141C8.59764 14.0289 8.67684 13.9426 8.72844 13.8971C8.75904 13.8693 8.77404 13.8188 8.80824 13.804C8.83524 13.7936 8.89944 13.8065 8.90784 13.8293C8.98884 14.0116 8.83884 14.4041 8.65944 14.4915C8.46804 14.5852 8.26284 14.5045 8.21664 14.271C8.16744 14.0369 8.13144 13.7812 8.16744 13.549C8.22504 13.1861 8.34384 12.8338 8.43984 12.4765C8.44764 12.45 8.47524 12.4309 8.50704 12.389ZM27.4418 9.82748L27.0554 9.13012C26.8394 9.23978 26.789 9.20898 26.7998 8.98474C26.8034 8.92806 26.7848 8.86707 26.798 8.81594C26.8148 8.75865 26.8472 8.68041 26.8922 8.66193C26.9354 8.64776 27.026 8.68534 27.0536 8.72723C27.14 8.86522 27.2066 9.01554 27.281 9.16216C27.3122 9.22315 27.341 9.29029 27.4022 9.34882C27.4022 9.23547 27.4004 9.12643 27.4022 9.01246C27.4064 8.87139 27.3926 8.7223 27.4292 8.58862C27.4538 8.50114 27.5468 8.42722 27.62 8.365C27.644 8.34282 27.7328 8.35391 27.7478 8.37793C27.8036 8.46356 27.8546 8.5572 27.8768 8.65454C27.8966 8.73462 27.8558 8.8067 27.7574 8.75372C27.6146 8.6798 27.5684 8.7568 27.5642 8.87878C27.5552 9.10794 27.5594 9.33342 27.5504 9.56135C27.5492 9.64452 27.5216 9.7283 27.5048 9.81516C27.4838 9.82132 27.4616 9.82379 27.4418 9.82748ZM8.12064 11.5259C8.33304 11.1778 8.61564 10.9099 8.95524 10.709C9.17064 10.5815 9.40464 10.486 9.63684 10.3844C9.70524 10.353 9.79884 10.284 9.84504 10.4232C9.89244 10.5624 9.85224 10.6665 9.73284 10.7158C9.58344 10.7756 9.42384 10.8144 9.28224 10.8895C8.92104 11.0787 8.56764 11.282 8.21004 11.4809C8.18064 11.4976 8.15124 11.5117 8.12064 11.5259ZM22.0868 14.1219C21.8396 14.34 21.6116 14.5913 21.2588 14.6382C21.0284 14.6702 20.9072 14.5223 20.9594 14.2889C20.978 14.2069 20.9936 14.1238 21.0158 14.0234C20.8994 14.0418 20.8094 14.0585 20.7092 14.0769C20.7596 13.9488 21.1094 13.7005 21.2168 13.7172C21.2522 13.7221 21.299 13.7991 21.2972 13.8379C21.2942 13.9303 21.2552 14.0203 21.2456 14.1114C21.2378 14.1786 21.2534 14.2476 21.2564 14.316C21.3236 14.3104 21.3986 14.316 21.4586 14.295C21.5942 14.2433 21.7238 14.1718 21.8588 14.1158C21.9224 14.0887 21.9944 14.0769 22.0616 14.0578C22.0682 14.0794 22.0796 14.1022 22.0868 14.1219ZM28.8056 13.7665C28.8572 13.7726 28.9094 13.7677 28.9556 13.7843C29.0456 13.8096 29.0894 13.873 29.0498 13.9716C29.033 14.0147 29.0102 14.0554 28.988 14.0948C28.9376 14.1971 28.9166 14.2741 29.0756 14.2698C29.1116 14.2698 29.1752 14.2993 29.1794 14.3277C29.189 14.3696 29.177 14.4392 29.144 14.4657C28.985 14.5963 28.8074 14.6936 28.5974 14.6868C28.5548 14.6856 28.4876 14.6505 28.4816 14.6166C28.469 14.5722 28.4894 14.5045 28.5188 14.4657C28.5692 14.4028 28.6424 14.356 28.6958 14.2969C28.7552 14.2316 28.763 14.1558 28.6832 14.0991C28.6034 14.0424 28.4882 13.9925 28.5578 13.878C28.6004 13.8096 28.7078 13.7812 28.7876 13.7338C28.7924 13.7443 28.8008 13.7548 28.8056 13.7665ZM18.8888 10.4928C18.9056 10.4737 18.8984 10.4799 18.8918 10.4879C18.845 10.5772 18.7958 10.7072 18.6824 10.6647C18.6346 10.6416 18.5917 10.609 18.5562 10.5687C18.5208 10.5284 18.4935 10.4812 18.476 10.43C18.4382 10.2883 18.4532 10.13 18.4466 9.97965C18.464 9.9778 18.4808 9.9741 18.4988 9.97102C18.5588 10.1121 18.62 10.2556 18.6776 10.3973C18.6992 10.3961 18.722 10.393 18.7418 10.3918C18.7772 10.2415 18.8102 10.0887 18.8456 9.93837L18.8864 9.93406C18.9602 10.0634 19.0334 10.1953 19.1066 10.3289C19.1282 10.3277 19.1456 10.3228 19.1648 10.3216L19.235 9.76773C19.3592 9.92913 19.3796 10.0764 19.3814 10.2322C19.3814 10.3591 19.3508 10.4891 19.2266 10.5255C19.1384 10.5519 19.028 10.5082 18.8888 10.4928ZM26.942 11.1212C26.9792 11.0583 27.0038 10.9801 27.0566 10.9308C27.2156 10.7891 27.386 10.6598 27.5486 10.5236C27.7274 10.3708 27.8996 10.2144 28.0814 10.0634C28.1156 10.0351 28.178 10.0006 28.2074 10.0141C28.2428 10.0308 28.2608 10.0973 28.2698 10.1423C28.2938 10.2723 28.2572 10.3708 28.1414 10.4435C27.8 10.6616 27.464 10.8889 27.1232 11.1082C27.0824 11.1335 27.0368 11.1477 26.9894 11.168C26.9745 11.1515 26.9587 11.1358 26.942 11.1212ZM30.6956 8.36993C30.6806 8.26027 30.6788 8.14877 30.65 8.04157C30.5858 7.79085 30.5258 7.53396 30.4274 7.29678C30.3686 7.1477 30.3656 7.03311 30.4532 6.91052C30.5366 6.7947 30.5978 6.79039 30.6464 6.91915C30.7256 7.13106 30.806 7.34545 30.833 7.56537C30.8624 7.78222 30.827 8.00461 30.8132 8.22392C30.8102 8.27567 30.7724 8.32372 30.752 8.37301C30.7333 8.37109 30.7145 8.37006 30.6956 8.36993ZM23.4596 7.76128C23.4596 7.65901 23.4464 7.58262 23.4632 7.51363C23.5268 7.24688 23.4386 7.03866 23.2586 6.85631C23.1206 6.714 23.1164 6.55753 23.261 6.42878C23.2964 6.39859 23.3924 6.38935 23.4254 6.41707C23.7224 6.65856 23.7848 7.42492 23.5406 7.72185C23.5316 7.73294 23.516 7.73417 23.4596 7.76128ZM15.1904 8.85044C15.2384 9.08946 14.9996 9.40734 14.738 9.42213C14.585 9.43014 14.4332 9.27304 14.432 9.0833C14.426 8.78021 14.594 8.56151 14.798 8.36931C14.8094 8.35822 14.8352 8.365 14.8946 8.35822C14.8382 8.47712 14.789 8.57014 14.753 8.66255C14.7158 8.75249 14.6762 8.84428 14.6654 8.93853C14.6576 8.99213 14.6912 9.08885 14.7308 9.1061C14.7824 9.12766 14.8694 9.11226 14.9216 9.07961C15.014 9.02232 15.0908 8.93915 15.1904 8.85044Z" fill="white"/>
<path fill-rule="evenodd" clip-rule="evenodd" d="M23.8028 8.50299C23.8508 8.37424 23.9024 8.24549 23.9558 8.10872C24.0584 8.23501 24.0776 8.58554 23.9972 8.68965C23.933 8.7722 23.8484 8.78021 23.7686 8.71614C23.6786 8.64345 23.6084 8.64222 23.5154 8.71737C23.405 8.80978 23.3288 8.78637 23.2934 8.64899C23.2646 8.53811 23.2688 8.42167 23.2598 8.31017C23.2778 8.30339 23.2982 8.29847 23.315 8.29292C23.3612 8.37116 23.405 8.45001 23.468 8.5609C23.5202 8.42291 23.5562 8.31818 23.6102 8.17341C23.6666 8.31079 23.7086 8.40258 23.7488 8.49868C23.7662 8.49868 23.7842 8.50176 23.8028 8.50299ZM14.1608 12.8282C14.1854 12.6114 14.2082 12.4186 14.2286 12.2257C13.9496 12.1869 13.8872 12.0921 13.9868 11.8832C14.0156 11.8241 14.0966 11.736 14.141 11.7452C14.2238 11.7594 14.33 11.8124 14.3684 11.8851C14.489 12.1075 14.3996 12.6046 14.228 12.7919C14.2202 12.803 14.2016 12.8061 14.1608 12.8282ZM10.9076 6.28154C10.925 6.39859 10.928 6.47744 10.9508 6.54952C10.9658 6.60312 11.0084 6.64685 11.036 6.69675C11.081 6.66718 11.1362 6.64685 11.1674 6.60866C11.2148 6.53843 11.2466 6.45835 11.3186 6.38134C11.3264 6.44479 11.3264 6.51009 11.3462 6.56492C11.3708 6.62283 11.4176 6.67026 11.453 6.72201C11.4878 6.67766 11.5268 6.63761 11.5586 6.59018C11.5766 6.56369 11.5844 6.53104 11.6024 6.49469C11.699 6.62837 11.6888 6.79224 11.582 6.8865C11.4488 7.00293 11.366 6.89389 11.2856 6.80395C11.0654 6.9481 10.9778 6.95364 10.8728 6.83167C10.7516 6.6869 10.7498 6.47744 10.9076 6.28154ZM28.0766 11.9491C28.0682 11.8709 28.052 11.8241 28.0604 11.7847C28.1294 11.5487 28.037 11.3873 27.8552 11.2542C27.7226 11.1594 27.7226 11.0442 27.8576 10.9487C27.9002 10.9191 27.989 10.908 28.0316 10.9333C28.3058 11.0965 28.3838 11.6269 28.1774 11.8684C28.16 11.89 28.1342 11.9054 28.0766 11.9491ZM18.1616 7.80686C18.1616 7.73725 18.1586 7.66825 18.1616 7.59926C18.1802 7.2937 18.1238 7.00847 17.9552 6.74788C17.9264 6.70538 17.9018 6.63022 17.9186 6.59018C17.9489 6.52895 17.999 6.4804 18.0602 6.4528C18.0878 6.44418 18.164 6.51317 18.1856 6.56061C18.3158 6.8446 18.3416 7.14585 18.3074 7.45141C18.2948 7.57523 18.2594 7.69598 18.2336 7.81857C18.2096 7.8161 18.185 7.80994 18.1616 7.80686ZM8.75964 7.25612C8.77224 6.99553 8.90304 6.78177 8.80224 6.5489C8.76444 6.5643 8.74284 6.57909 8.71824 6.58587C8.66124 6.59449 8.60064 6.59942 8.54244 6.60558C8.55564 6.54213 8.55024 6.46266 8.58684 6.41707C8.66124 6.32651 8.73924 6.19591 8.88204 6.25567C9.01164 6.31173 9.01764 6.45034 9.00924 6.57663C8.99724 6.81565 8.90304 7.02018 8.75964 7.25612Z" fill="white"/>
</svg>
