<?xml version="1.0" encoding="utf-8"?>
<!-- Generator: Adobe Illustrator 28.2.0, SVG Export Plug-In . SVG Version: 6.00 Build 0)  -->
<svg version="1.1" id="Layer_1" xmlns="http://www.w3.org/2000/svg" xmlns:xlink="http://www.w3.org/1999/xlink" x="0px" y="0px"
	 viewBox="0 0 247.47 393.94" style="enable-background:new 0 0 247.47 393.94;" xml:space="preserve">
<style type="text/css">
	.st0{fill:#19204B;}
	.st1{fill:#1E8D8B;}
</style>
<g>
	<g>
		<path class="st0" d="M197.65,160.58l-72.48,72.48l-56.35-56.35l12.3-12.23l43.07,43.07l0,0l0.98,0.98l60.22-60.22l-44.05-44.05
			l0,0l-16.17-16.17l-0.98,0.98l0,0l-0.48,0.48l-87.2,87.2l88.66,88.66l72.49-72.49l12.29,12.23l-84.78,84.78L24.24,189.01
			L8.07,205.19l117.09,117.09l117.09-117.09L197.65,160.58z M125.16,176.19l-27.87-27.87l27.87-27.87l27.87,27.87L125.16,176.19z"/>
	</g>
	<g>
		
			<rect x="111.22" y="5.78" transform="matrix(0.7071 -0.7071 0.7071 0.7071 22.7129 94.2865)" class="st1" width="27.9" height="27.9"/>
	</g>
	<g>
		
			<rect x="152.8" y="76.1" transform="matrix(0.7071 -0.7071 0.7071 0.7071 -14.8352 144.2861)" class="st1" width="27.9" height="27.9"/>
	</g>
	<g>
		
			<rect x="181.39" y="104.68" transform="matrix(0.7071 -0.7071 0.7071 0.7071 -26.6746 172.8708)" class="st1" width="27.9" height="27.9"/>
	</g>
	<g>
		
			<rect x="111.21" y="324.72" transform="matrix(0.7071 -0.7071 0.7071 0.7071 -202.8152 187.6962)" class="st1" width="27.9" height="27.9"/>
	</g>
	<g>
		
			<rect x="111.21" y="360.26" transform="matrix(0.7071 -0.7071 0.7071 0.7071 -227.9497 198.107)" class="st1" width="27.9" height="27.9"/>
	</g>
	<g>
		<polygon class="st0" points="145.95,38.87 125.16,59.66 104.38,38.87 72.03,38.87 125.16,92 178.29,38.87 		"/>
	</g>
</g>
</svg>
