<?xml version="1.0" encoding="utf-8"?>
<!-- Generator: Adobe Illustrator 28.2.0, SVG Export Plug-In . SVG Version: 6.00 Build 0)  -->
<svg version="1.1" id="Layer_1" xmlns="http://www.w3.org/2000/svg" xmlns:xlink="http://www.w3.org/1999/xlink" x="0px" y="0px"
	 viewBox="0 0 595.28 393.94" style="enable-background:new 0 0 595.28 393.94;" xml:space="preserve">
<style type="text/css">
	
		.st0{clip-path:url(#SVGID_00000179636743919072108610000003412520209707685781_);fill:url(#SVGID_00000106128992565981872270000011294911413131270800_);}
	.st1{fill:#23B7B2;}
	.st2{fill:#055759;}
	.st3{fill:#FFFFFF;}
</style>
<g>
	<g>
		<g>
			<g>
				<g>
					<g>
						<defs>
							<path id="SVGID_1_" d="M363.55,64.45c-19.22,0-34.8,15.58-34.8,34.79v195.44c0,19.22,15.58,34.8,34.8,34.8h195.44
								c19.22,0,34.8-15.58,34.8-34.8V99.25c0-19.22-15.58-34.79-34.8-34.79H363.55z"/>
						</defs>
						<clipPath id="SVGID_00000072248896951943136440000009706733096871464120_">
							<use xlink:href="#SVGID_1_"  style="overflow:visible;"/>
						</clipPath>
						
							<linearGradient id="SVGID_00000101806092554980412250000016000258281726858632_" gradientUnits="userSpaceOnUse" x1="477.5746" y1="581.7175" x2="480.152" y2="581.7175" gradientTransform="matrix(-50.6359 99.7308 99.7308 50.6359 -33301.5742 -77025.3281)">
							<stop  offset="0" style="stop-color:#19204B"/>
							<stop  offset="1" style="stop-color:#23B7B2"/>
						</linearGradient>
						
							<polygon style="clip-path:url(#SVGID_00000072248896951943136440000009706733096871464120_);fill:url(#SVGID_00000101806092554980412250000016000258281726858632_);" points="
							700.77,118.77 539.47,436.47 221.76,275.17 383.07,-42.53 						"/>
					</g>
				</g>
				<g>
					<g>
						<g>
							<path class="st1" d="M55.49,211.49l18.44-0.02l0.1,89.88l-19.59,0.02l-34.12-60.01l0.07,60.05l-18.44,0.02l-0.1-89.88
								l19.59-0.02l34.12,60.01L55.49,211.49z"/>
							<path class="st1" d="M153.02,301.27l-6.3-17.92l-36.62,0.04l-6.25,17.93l-19.08,0.02l32.81-89.92l21.51-0.02l33,89.85
								L153.02,301.27z M128.37,231.39l-12.89,36.76l25.87-0.03L128.37,231.39z"/>
							<path class="st1" d="M225.62,302.22l-14.6,0.02c-11.1,0.01-19.14-2.39-24.14-7.21c-5-4.82-7.5-12.69-7.52-23.62l-0.03-30.09
								c-0.01-11.01,2.47-18.93,7.46-23.76c4.99-4.83,13.03-7.25,24.13-7.26l14.6-0.02c11.1-0.01,19.14,2.39,24.14,7.21
								c5,4.82,7.5,12.73,7.52,23.74l0.03,30.09c0.02,12.21-3.22,20.71-9.7,25.49l11.03,16.5l-20.36,0.02l-7.44-11.38
								C228.52,302.13,226.81,302.22,225.62,302.22z M212.93,286.87l10.76-0.01c5.21-0.01,9.02-1.21,11.46-3.6
								c2.43-2.39,3.64-6.45,3.63-12.17l-0.03-29.58c-0.01-5.72-1.23-9.79-3.66-12.22c-2.44-2.43-6.26-3.64-11.46-3.64l-10.76,0.01
								c-5.21,0.01-9.03,1.23-11.46,3.66c-2.43,2.43-3.64,6.51-3.63,12.23l0.03,29.58c0.01,5.72,1.23,9.77,3.66,12.16
								C203.9,285.68,207.72,286.87,212.93,286.87z"/>
							<path class="st1" d="M293.99,301.12l-18.44,0.02l-0.1-89.88l18.44-0.02L293.99,301.12z"/>
						</g>
					</g>
				</g>
			</g>
			
				<rect x="276.36" y="74.72" transform="matrix(0.7071 0.7071 -0.7071 0.7071 143.3022 -177.4813)" class="st2" width="19.05" height="19.05"/>
			<g>
				
					<rect x="227.47" y="74.72" transform="matrix(0.7071 0.7071 -0.7071 0.7071 128.9799 -142.9043)" class="st2" width="19.05" height="19.05"/>
				
					<rect x="203.12" y="74.72" transform="matrix(0.7071 0.7071 -0.7071 0.7071 121.8484 -125.6873)" class="st2" width="19.05" height="19.05"/>
			</g>
			<g>
				
					<rect x="43.95" y="172.22" transform="matrix(0.7071 0.7071 -0.7071 0.7071 144.1738 15.4216)" class="st2" width="19.05" height="19.05"/>
				
					<rect x="19.6" y="172.22" transform="matrix(0.7071 0.7071 -0.7071 0.7071 137.0423 32.6385)" class="st2" width="19.05" height="19.05"/>
			</g>
			<g>
				<path class="st2" d="M294.11,161.76l-0.1-53.36l-18.44,0.02l0.06,34.83l-22.41,0.01l-0.06-34.86l-56.79,0.02l0.06,34.87
					l-86.11,0.04l-0.04-21.52l-0.01-7.09c-0.08-0.8-0.24-1.57-0.5-2.31c-0.81-2.3-2.45-4.2-4.56-5.35c-0.68-0.41-1.49-0.71-2.4-0.9
					c-0.71-0.17-1.45-0.28-2.21-0.28H63.23c-4.26,0-7.85,2.75-9.18,6.55c-0.35,0.99-0.57,2.04-0.58,3.15l0.01,6.23l0.05,24.21
					L20,146.05l-0.07-37.66l-18.44,0.02l0.01,7.41c0,0.07-0.01,0.13-0.01,0.21l0.04,38.03c0,0.19,0.03,0.35,0.04,0.53l0.01,7.2
					c0,0,7.92,0.25,8.94,0.25l61.71-0.07l-0.04-40.09l19.65-0.02l0.08,39.92l0.27,0v0.17l15.97-0.02v-0.15L294.11,161.76z
					 M214.87,143.28l-0.03-16.37l19.92-0.04l0.03,16.39L214.87,143.28z"/>
			</g>
		</g>
	</g>
	<g>
		<g>
			<path class="st3" d="M505.66,174.68l-44.39,44.39l-34.51-34.51l7.53-7.49l26.38,26.38l0,0l0.6,0.6l36.88-36.88l-26.98-26.98l0,0
				l-9.91-9.91l-0.6,0.6l0,0l-0.29,0.29l-53.41,53.41l54.3,54.3l44.4-44.4l7.53,7.49l-51.93,51.93l-61.81-61.81l-9.91,9.9
				l71.72,71.72L532.99,202L505.66,174.68z M461.27,184.24l-17.07-17.07l17.07-17.07l17.07,17.07L461.27,184.24z"/>
		</g>
		<g>
			
				<rect x="452.72" y="79.87" transform="matrix(0.7071 -0.7071 0.7071 0.7071 72.5953 352.0739)" class="st3" width="17.09" height="17.09"/>
		</g>
		<g>
			
				<rect x="478.19" y="122.94" transform="matrix(0.7071 -0.7071 0.7071 0.7071 49.5901 382.687)" class="st3" width="17.09" height="17.09"/>
		</g>
		<g>
			
				<rect x="495.7" y="140.45" transform="matrix(0.7071 -0.7071 0.7071 0.7071 42.3386 400.1949)" class="st3" width="17.09" height="17.09"/>
		</g>
		<g>
			
				<rect x="452.72" y="275.21" transform="matrix(0.7071 -0.7071 0.7071 0.7071 -65.5456 409.2752)" class="st3" width="17.09" height="17.09"/>
		</g>
		<g>
			
				<rect x="452.72" y="296.99" transform="matrix(0.7071 -0.7071 0.7071 0.7071 -80.9402 415.6517)" class="st3" width="17.09" height="17.09"/>
		</g>
		<g>
			<polygon class="st3" points="474,100.14 461.27,112.87 448.54,100.14 428.73,100.14 461.27,132.68 493.81,100.14 			"/>
		</g>
	</g>
</g>
</svg>
