<?xml version="1.0" encoding="utf-8"?><svg viewBox="0 0 100 100" xmlns="http://www.w3.org/2000/svg" width="200px" height="200px" xmlns:xlink="http://www.w3.org/1999/xlink" style="width:100%;height:100%;background-size:initial;background-repeat:initial;background-position-y:initial;background-position-x:initial;background-origin:initial;background-image:initial;background-color:rgb(255, 255, 255);background-clip:initial;background-attachment:initial;animation-play-state:paused" ><g class="ldl-scale" style="transform-origin:50% 50%;transform:rotate(0deg) scale(0.8, 0.8);animation-play-state:paused" ><path fill="#abbd81" d="M50 15.484V10c-14.804 0-27.72 8.049-34.637 20.002C11.958 35.887 10 42.713 10 50s1.958 14.113 5.363 19.998l4.745-2.74.232-6.629 5.857 3.114 4.319-2.494C28.602 57.939 27.5 54.099 27.5 50s1.102-7.939 3.017-11.249C34.407 32.027 41.673 27.5 50 27.5v-4.984L55.625 19 50 15.484z" style="fill:rgb(171, 189, 129);animation-play-state:paused" ></path>
<path fill="#f8b26a" d="M79.891 67.258l-5.857 3.114-.232-6.629-4.319-2.494C65.593 67.973 58.327 72.5 50 72.5s-15.593-4.527-19.483-11.251l-4.319 2.494-5.857-3.114-.232 6.629-4.745 2.74C22.28 81.951 35.196 90 50 90s27.72-8.049 34.637-20.002l-4.746-2.74z" style="fill:rgb(248, 178, 106);animation-play-state:paused" ></path>
<path fill="#e15b64" d="M84.637 30.002C77.72 18.049 64.804 10 50 10v5.484L55.625 19 50 22.516V27.5c8.327 0 15.593 4.527 19.483 11.251C71.398 42.061 72.5 45.901 72.5 50s-1.102 7.939-3.017 11.249l4.319 2.494.232 6.629 5.857-3.114 4.745 2.74C88.042 64.113 90 57.287 90 50s-1.958-14.113-5.363-19.998z" style="fill:rgb(225, 91, 100);animation-play-state:paused" ></path>
<metadata xmlns:d="https://loading.io/stock/" style="animation-play-state:paused" ><d:name style="animation-play-state:paused" >wheel</d:name>


<d:tags style="animation-play-state:paused" >wheel,ring,cycle,composition,part,circle,infographics</d:tags>


<d:license style="animation-play-state:paused" >by</d:license>


<d:slug style="animation-play-state:paused" >3wsg31</d:slug></metadata></g><!-- generated by https://loading.io/ --></svg>