<svg width="23" height="23" viewBox="0 0 23 23" fill="none" xmlns="http://www.w3.org/2000/svg">
<path d="M18.387 0.0584247L22.843 4.74756V22.5792H6.19687V22.6374H22.8999V4.80658L18.387 0.0584247Z" fill="#909090"/>
<path d="M18.3317 0H6.14002V22.579L22.843 22.5792V4.74756L18.3317 0Z" fill="#F4F4F4"/>
<path d="M0.899902 1.21271V6.73214H16.9975V1.21271H0.899902Z" fill="#7A7B7C"/>
<path d="M17.0831 6.63829H1.004V1.11481H17.0831V6.63829Z" fill="#DD2025"/>
<path d="M6.33542 2.04842H5.28868V5.92909H6.11198V4.62017L6.29377 4.63068C6.47042 4.62761 6.64541 4.59567 6.81194 4.53609C6.95794 4.4854 7.09225 4.40536 7.20677 4.30082C7.3233 4.20124 7.41517 4.07555 7.47506 3.93378C7.55539 3.69811 7.58408 3.44764 7.55916 3.19969C7.55415 3.02256 7.52339 2.84713 7.46786 2.67903C7.4173 2.55768 7.34227 2.44829 7.24755 2.35782C7.15282 2.26734 7.04047 2.19777 6.91766 2.15352C6.81147 2.11472 6.70175 2.08655 6.5901 2.06944C6.50555 2.05627 6.42017 2.04925 6.33462 2.04842M6.18325 3.90306H6.11198V2.70652H6.26654C6.33476 2.70155 6.40321 2.71212 6.46684 2.73745C6.53047 2.76278 6.58765 2.80222 6.63415 2.85285C6.73051 2.98303 6.78198 3.14148 6.78071 3.30398C6.78071 3.50286 6.78071 3.68315 6.60291 3.81008C6.47483 3.8812 6.32903 3.91403 6.18325 3.90306ZM9.12326 2.03791C9.03437 2.03791 8.94787 2.04438 8.887 2.04681L8.6964 2.05166H8.07172V5.93232H8.80692C9.08788 5.9401 9.36762 5.89202 9.63022 5.79084C9.84158 5.70621 10.0287 5.56979 10.1748 5.39388C10.3169 5.21638 10.4188 5.00972 10.4735 4.78833C10.5365 4.5376 10.5671 4.27974 10.5648 4.02109C10.5804 3.71562 10.557 3.40939 10.4952 3.10995C10.4365 2.88953 10.3267 2.68638 10.1748 2.51734C10.0556 2.38084 9.90975 2.27073 9.74634 2.19395C9.60601 2.12839 9.4584 2.08008 9.30666 2.05004C9.24632 2.03998 9.18521 2.03538 9.12406 2.0363M8.9783 5.21925H8.89822V2.74209H8.90863C9.07374 2.72291 9.24079 2.75299 9.38915 2.8286C9.4978 2.91618 9.58633 3.02651 9.64864 3.15199C9.71587 3.28404 9.75463 3.42897 9.76236 3.57724C9.76957 3.75511 9.76236 3.90063 9.76236 4.02109C9.76562 4.15986 9.75678 4.29864 9.73593 4.43584C9.71125 4.5767 9.66562 4.71298 9.60058 4.84008C9.52698 4.95824 9.42753 5.0578 9.30987 5.13113C9.21106 5.19564 9.09405 5.22574 8.9767 5.21682M13.0451 2.05166H11.099V5.93232H11.9223V4.39299H12.9635V3.67183H11.9223V2.77281H13.0435V2.05166" fill="#464648"/>
<path d="M16.5297 14.7583C16.5297 14.7583 19.0829 14.291 19.0829 15.1714C19.0829 16.0518 17.5012 15.6937 16.5297 14.7583ZM14.6421 14.8254C14.2364 14.9159 13.8411 15.0483 13.4624 15.2207L13.7827 14.4931C14.1031 13.7655 14.4355 12.7735 14.4355 12.7735C14.8177 13.4229 15.2625 14.0328 15.7633 14.5941C15.3856 14.651 15.0113 14.7287 14.6421 14.827V14.8254ZM13.6314 9.5703C13.6314 8.80306 13.8773 8.59367 14.0687 8.59367C14.2601 8.59367 14.4755 8.68664 14.4827 9.35283C14.4204 10.0227 14.2814 10.683 14.0687 11.3206C13.7772 10.7853 13.6264 10.1836 13.6306 9.57273L13.6314 9.5703ZM9.90812 18.0722C9.12487 17.5992 11.5507 16.1432 11.9904 16.0963C11.988 16.0971 10.7282 18.567 9.90812 18.0722ZM19.8286 15.2757C19.8205 15.1948 19.7485 14.2999 18.1707 14.3379C17.5131 14.3272 16.8558 14.374 16.2062 14.4777C15.5769 13.8377 15.035 13.1159 14.5948 12.3312C14.8722 11.5223 15.04 10.6793 15.0938 9.82497C15.0706 8.85481 14.8407 8.29858 14.1039 8.30666C13.3671 8.31475 13.2598 8.96557 13.3567 9.93412C13.4516 10.585 13.6307 11.2205 13.8893 11.8243C13.8893 11.8243 13.5489 12.8939 13.0988 13.9579C12.6487 15.0218 12.3412 15.5797 12.3412 15.5797C11.5585 15.8369 10.8217 16.219 10.1588 16.7115C9.49887 17.3316 9.23058 17.8078 9.57816 18.284C9.87769 18.6947 10.926 18.7877 11.8631 17.5483C12.3609 16.9082 12.8158 16.2351 13.2245 15.5336C13.2245 15.5336 14.6533 15.1382 15.0978 15.0299C15.5423 14.9216 16.0797 14.8359 16.0797 14.8359C16.0797 14.8359 17.3843 16.161 18.6425 16.1141C19.9006 16.0672 19.8398 15.3549 19.8318 15.2773" fill="#DD2025"/>
<path d="M18.2701 0.0623723V4.81053H22.7814L18.2701 0.0623723Z" fill="#909090"/>
<path d="M18.3317 0L18.3317 4.74816L22.843 4.74756L18.3317 0Z" fill="#F4F4F4"/>
<path d="M6.27376 1.98605H5.22701V5.86671H6.05351V4.55861L6.23611 4.56912C6.41276 4.56605 6.58775 4.5341 6.75428 4.47453C6.90027 4.42381 7.03458 4.34378 7.14911 4.23926C7.26476 4.13941 7.3558 4.01374 7.415 3.87221C7.49532 3.63654 7.52402 3.38608 7.49909 3.13812C7.49409 2.96099 7.46333 2.78557 7.40779 2.61747C7.35724 2.49612 7.28221 2.38673 7.18748 2.29625C7.09276 2.20578 6.98041 2.13621 6.85759 2.09196C6.75092 2.05277 6.64066 2.02434 6.52843 2.00707C6.44388 1.9939 6.3585 1.98688 6.27295 1.98605M6.12159 3.84068H6.05031V2.64415H6.20568C6.2739 2.63918 6.34235 2.64975 6.40598 2.67508C6.46961 2.70041 6.52678 2.73985 6.57328 2.79048C6.66964 2.92066 6.72112 3.07911 6.71984 3.24161C6.71984 3.44049 6.71984 3.62078 6.54205 3.74771C6.41396 3.81883 6.26817 3.85085 6.12239 3.83988M9.0616 1.97554C8.9727 1.97554 8.88621 1.98201 8.82534 1.98443L8.63714 1.98928H8.01245V5.86995H8.74766C9.02862 5.87772 9.30836 5.82965 9.57095 5.72847C9.78232 5.64384 9.96948 5.50741 10.1155 5.33151C10.2576 5.15401 10.3595 4.94735 10.4143 4.72596C10.4772 4.47523 10.5079 4.21736 10.5056 3.95872C10.5211 3.65325 10.4977 3.34702 10.4359 3.04757C10.3773 2.82715 10.2674 2.62401 10.1155 2.45496C9.99637 2.31846 9.85049 2.20836 9.68708 2.13157C9.54675 2.06602 9.39914 2.01771 9.2474 1.98767C9.18706 1.9776 9.12595 1.97301 9.0648 1.97392M8.91904 5.15688H8.83896V2.67972H8.84937C9.01447 2.66054 9.18153 2.69062 9.32989 2.76623C9.43854 2.8538 9.52707 2.96414 9.58937 3.08961C9.65661 3.22167 9.69537 3.3666 9.7031 3.51487C9.71031 3.69273 9.7031 3.83826 9.7031 3.95872C9.70636 4.09748 9.69752 4.23627 9.67667 4.37347C9.65199 4.51433 9.60635 4.65061 9.54132 4.7777C9.46772 4.89587 9.36826 4.99543 9.25061 5.06875C9.1518 5.13327 9.03479 5.16337 8.91744 5.15445M12.9835 1.98928H11.0374V5.86995H11.8607V4.33062H12.9018V3.60946H11.8607V2.71044H12.9819V1.98928" fill="white"/>
</svg>
