<svg width="29" height="34" viewBox="0 0 29 34" fill="none" xmlns="http://www.w3.org/2000/svg">
<path d="M18.431 0.0711148C17.2414 0.213356 16.278 0.56896 15.069 1.29956C13.1164 2.48275 12.4375 2.61206 10.9569 2.09482C10.2586 1.8556 9.89008 1.82327 9.52154 1.97844C8.76508 2.28879 8.40301 3.26508 8.77801 3.98275C9.14654 4.68749 10.0582 5.7543 10.7888 6.34267L11.2866 6.74353L11.3254 10.8233C11.3578 14.4828 11.3707 14.9418 11.4741 15.2909C12.0366 17.1918 13.3103 18.5108 15.1271 19.0733L15.6832 19.2478L15.722 21.0905L15.3534 21.4849C14.6099 22.2866 13.7177 23.5862 13.1746 24.6789C12.7996 25.4224 12.4828 26.2241 12.4828 26.4375C12.4828 26.7996 12.8642 27.0065 13.194 26.8319C13.2586 26.7996 13.4009 26.5409 13.5172 26.2694C14.9396 22.8427 17.3707 20.3082 19.7694 19.7457C20.3836 19.6034 21.4957 19.6487 21.9871 19.8362C22.7177 20.1207 23.4353 20.8642 23.9655 21.8858C24.2694 22.4677 24.4181 22.6293 24.6509 22.6293C24.8707 22.6293 25.1552 22.3771 25.1552 22.1832C25.1552 22.028 24.7672 21.2586 24.4116 20.722C24.2759 20.5086 23.9332 20.1078 23.6552 19.8297L23.1509 19.3254V17.528L23.6552 17.1465C26.0215 15.3362 27.7155 13.028 28.3039 10.8039C28.5302 9.96982 28.5884 8.18534 28.4267 7.24137C28.278 6.37499 27.9806 5.43749 27.6056 4.68749C26.9914 3.44611 26.6099 3.1293 26.2155 3.5237C26.0021 3.73706 26.028 3.92456 26.3577 4.43534C27.5539 6.30387 27.903 9.03879 27.1983 11.0948C26.6293 12.7759 25.0776 14.7866 23.2478 16.2284L22.834 16.5453L22.0129 15.2069C21.5668 14.4698 21.1465 13.778 21.0754 13.6746L20.959 13.4741L21.2435 13.3254C21.6509 13.1056 22.097 12.6336 22.3297 12.1552C22.5237 11.7672 22.5366 11.6896 22.5366 11.0884C22.5366 10.5194 22.5172 10.3965 22.3556 10.0603C21.8901 9.05818 21.0819 8.53448 20.0021 8.52801C19.472 8.52154 19.0452 8.64439 18.6056 8.92241L18.3082 9.10991L18.1853 8.93534C18.1207 8.83836 17.8685 8.43749 17.6293 8.03663C17.3901 7.64224 17.1444 7.2737 17.0862 7.22198C17.0021 7.15086 16.7112 7.11853 15.8125 7.09267C14.3836 7.05387 13.7177 6.8987 12.6444 6.37499C11.5453 5.83189 10.6207 5.0043 9.89008 3.9181C9.57327 3.44611 9.52801 3.27801 9.66379 3.07111C9.83835 2.81249 10.0259 2.80603 10.7888 3.05818C12.3922 3.59482 13.4138 3.42672 15.2241 2.34051C16.75 1.42241 17.3771 1.18318 18.7026 1.02801C19.5366 0.931029 20.8491 0.989218 21.6315 1.15086C22.7565 1.39008 23.959 1.95258 24.7478 2.59913C25.1293 2.91594 25.3103 2.9612 25.5302 2.79956C25.7112 2.66379 25.7694 2.47629 25.7112 2.2306C25.6918 2.14655 25.472 1.92672 25.2069 1.72629C24.2047 0.982753 23.0539 0.45258 21.8254 0.19396C21.0819 0.0387873 19.2392 -0.0323334 18.431 0.0711148ZM14.028 7.89439C14.3707 7.97198 14.9526 8.03663 15.5603 8.06249L16.5302 8.10129L17.1896 9.18103C17.5582 9.77585 17.8944 10.306 17.9526 10.3448C18.1595 10.5259 18.4375 10.4353 18.7543 10.0927C19.1358 9.67887 19.5043 9.5043 20.0151 9.5043C21.5668 9.5043 22.181 11.4246 20.9332 12.375C20.8168 12.4655 20.5517 12.5819 20.3448 12.6336C20.1315 12.6918 19.9116 12.7823 19.8405 12.8405C19.5948 13.0668 19.6789 13.2543 20.9526 15.3427L22.181 17.3534V18.1228C22.181 18.8276 22.1746 18.8922 22.0711 18.847C21.7284 18.7177 21.2306 18.6724 20.5065 18.6983C19.8146 18.7241 19.6013 18.7629 19.097 18.931C18.3534 19.1832 17.8297 19.4483 17.1896 19.8879L16.6853 20.2306V19.4612C16.6853 18.459 16.6465 18.4073 15.7996 18.2392C15.056 18.084 14.2802 17.6896 13.7565 17.1983L13.3685 16.8362L14.0086 16.3319C14.9461 15.5819 15.069 15.459 15.069 15.2392C15.069 14.6832 13.7629 13.7651 12.5991 13.5L12.2888 13.4289V7.32542L12.8836 7.54525C13.2069 7.6681 13.7241 7.82327 14.028 7.89439ZM13.194 14.7414C13.3879 14.8384 13.6207 14.9806 13.7112 15.0582L13.8728 15.194L13.7306 15.3039C13.653 15.3685 13.4138 15.5625 13.2004 15.7306L12.8125 16.0409L12.722 15.8599C12.5797 15.5884 12.3534 14.819 12.3534 14.6121C12.3534 14.431 12.3599 14.431 12.5991 14.4957C12.7284 14.5345 13 14.6444 13.194 14.7414Z" fill="#FF7E00"/>
<path d="M13.795 10.5712C13.6075 10.7005 13.5558 10.9527 13.6721 11.1725C13.8273 11.4764 15.0493 12.0195 15.573 12.026C15.767 12.026 16.0385 11.748 16.0385 11.554C16.0385 11.2954 15.8445 11.1273 15.4243 11.0173C15.2109 10.9592 14.8553 10.8169 14.629 10.6941C14.1829 10.4548 14.0019 10.4225 13.795 10.5712Z" fill="#FF7E00"/>
<path d="M2.00215 3.58836C1.65948 3.69827 1.25861 4.06034 1.12284 4.39008C1.05818 4.53232 1.02586 4.8168 1.02586 5.10775C1.03232 5.5862 1.02586 5.59267 0.825424 5.72198C0.650855 5.83189 0.612062 5.90301 0.599131 6.12284C0.573269 6.43318 1.45258 14.3534 1.56249 14.7996C1.71767 15.4655 2.24784 16.1056 2.90086 16.4095L3.26939 16.584L5.59698 16.6034C8.2543 16.6228 8.28663 16.6164 8.71982 16.125C9.08835 15.7177 9.13361 15.472 9.10775 14.1207L9.08836 12.9504L8.89439 12.6336C8.77154 12.4396 8.57758 12.2457 8.38361 12.1228C8.07973 11.9418 8.02154 11.9289 7.21982 11.8965L6.3793 11.8642L6.0431 8.89008C5.70689 5.93534 5.70689 5.92241 5.53232 5.7737C5.4418 5.68965 5.28017 5.62499 5.17672 5.62499C4.96982 5.62499 4.95042 5.5862 4.88577 5.01077C4.85991 4.79741 4.79525 4.51292 4.74353 4.38361C4.60775 4.05387 4.1487 3.65301 3.78663 3.56249C3.3987 3.46551 2.36422 3.47844 2.00215 3.58836ZM3.74784 4.62284C3.83189 4.70689 3.89654 4.90086 3.93534 5.1918L3.99353 5.63146L2.04094 5.59267L2.02154 5.16594C2.00215 4.75861 2.01508 4.72629 2.18318 4.59051C2.34482 4.4612 2.42241 4.45474 2.99137 4.47413C3.51508 4.48706 3.64439 4.51292 3.74784 4.62284ZM4.82111 6.80172C4.84698 6.98275 5.82327 15.5302 5.82327 15.6271C5.82327 15.6401 5.2931 15.6465 4.64008 15.6336L3.45042 15.6142L3.13361 15.4203C2.89439 15.2715 2.77801 15.1358 2.64223 14.8707C2.4806 14.5409 2.4418 14.2629 2.04741 10.7328C1.80818 8.65086 1.62068 6.87284 1.62068 6.76939V6.59482H4.78232L4.82111 6.80172ZM7.84698 12.9375C8.1056 13.0539 8.15086 13.2543 8.15086 14.3276C8.15086 15.3039 8.14439 15.3362 7.98922 15.4849C7.84698 15.6271 7.78232 15.6465 7.31034 15.6465C6.9418 15.6465 6.7931 15.6207 6.7931 15.5625C6.7931 15.5237 6.73491 14.9871 6.66379 14.3858C6.59267 13.778 6.53448 13.1896 6.53448 13.0733V12.8664H7.11637C7.43318 12.8664 7.76292 12.8987 7.84698 12.9375Z" fill="#FF7E00"/>
<path d="M9.71551 20.6638C9.35344 20.9159 8.11853 22.7263 8.0862 23.0496C8.04741 23.4246 8.22198 23.6638 8.53232 23.6638C8.75215 23.6638 8.86853 23.5345 9.28232 22.8233C9.44396 22.5582 9.7737 22.0797 10.0259 21.7629C10.2715 21.4526 10.4784 21.1552 10.4784 21.1034C10.4784 20.9353 10.3297 20.7026 10.1746 20.6315C9.96767 20.5345 9.89008 20.5409 9.71551 20.6638Z" fill="#FF7E00"/>
<path d="M12.1469 21.1488C11.9853 21.2393 11.1447 22.3772 10.7439 23.0367C10.259 23.8449 9.73526 24.9634 9.44432 25.8427C9.09518 26.8966 9.08225 27.0195 9.25035 27.2393C9.40552 27.4333 9.72233 27.4785 9.9163 27.3298C9.96802 27.291 10.162 26.8126 10.3366 26.2824C10.815 24.8277 11.5585 23.4117 12.4572 22.2673C12.9163 21.6725 12.9616 21.485 12.7094 21.2393C12.5478 21.0712 12.3344 21.0389 12.1469 21.1488Z" fill="#FF7E00"/>
<path d="M25.1746 23.5345C25.097 23.5668 24.9871 23.6638 24.9289 23.7478C24.8384 23.8965 24.8448 23.9677 25.0905 24.9246C25.375 26.0431 25.6789 27.8017 25.8276 29.1595C25.9246 29.9935 26.0603 31.681 26.0603 31.9849V32.1336H23.0215V25.6875L22.8728 25.5517C22.6595 25.3513 22.3556 25.3642 22.1875 25.5776C22.0582 25.7392 22.0517 25.8297 22.0517 27.4203V29.0948H17.0151L16.9957 27.375C16.9763 25.6552 16.9763 25.6552 16.8211 25.5323C16.6271 25.3707 16.3297 25.3771 16.1681 25.5388C16.0452 25.6616 16.0388 25.7521 16.0388 28.9009V32.1336H12.2759L12.3211 31.5323C12.3793 30.7047 12.5151 29.7478 12.6702 29.0302C12.7478 28.694 12.806 28.3384 12.806 28.2414C12.806 27.8728 12.3664 27.6789 12.0496 27.8987C11.7845 28.0862 11.4159 30.1358 11.3384 31.8168L11.2996 32.7672L11.6358 33.1034H19.1616C27.9677 33.1034 27.0302 33.2004 27.0302 32.3082C27.0302 31.0668 26.7974 28.681 26.5065 26.9612C26.2996 25.7457 25.9052 24.0646 25.7565 23.7737C25.6853 23.6379 25.4138 23.444 25.3297 23.4763C25.3233 23.4763 25.2521 23.5021 25.1746 23.5345ZM22.0517 32.1336H17.0086V30.0646H22.0517V32.1336Z" fill="#FF7E00"/>
</svg>
