<svg width="36" height="36" viewBox="0 0 36 36" fill="none" xmlns="http://www.w3.org/2000/svg">
<path fill-rule="evenodd" clip-rule="evenodd" d="M26.6892 18.8276C23.1462 18.8276 20.2754 21.6985 20.2754 25.2414C20.2754 28.7844 23.1462 31.6552 26.6892 31.6552C30.2321 31.6552 33.103 28.7844 33.103 25.2414C33.103 21.6985 30.2321 18.8276 26.6892 18.8276ZM26.6892 30.4138C23.8373 30.4138 21.5168 28.0932 21.5168 25.2414C21.5168 22.3897 23.8373 20.069 26.6892 20.069C29.541 20.069 31.8616 22.3897 31.8616 25.2414C31.8616 28.0932 29.541 30.4138 26.6892 30.4138Z" fill="#8F3F97"/>
<path fill-rule="evenodd" clip-rule="evenodd" d="M35.4044 1.47321C35.6468 1.23082 35.6463 0.838591 35.4048 0.595884C35.1627 0.353708 34.7689 0.353327 34.5268 0.595512L27.8236 7.29868C27.5652 5.84858 26.3017 4.74069 24.776 4.74069C23.0644 4.74069 21.6725 6.13352 21.6725 7.84414C21.6725 9.36996 22.7804 10.6335 24.2306 10.8924L22.2614 12.8609L21.2524 9.32991C21.066 8.67793 20.4437 8.24055 19.7759 8.2773L19.7747 8.27738C18.0055 8.3848 16.1344 9.4226 14.5629 10.8252C12.9887 12.2303 11.6854 14.0275 11.0626 15.7003C10.8083 16.3823 11.0973 17.1537 11.7359 17.4943L15.5771 19.5459L14.1214 21.0009C12.9461 19.669 11.2267 18.8279 9.31004 18.8279C5.76789 18.8279 2.89616 21.6987 2.89616 25.2417C2.89616 27.1584 3.73806 28.8778 5.07006 30.053L0.595322 34.5269C0.353849 34.7697 0.353312 35.1619 0.595695 35.4043C0.716804 35.5253 0.875883 35.5865 1.03413 35.5865C1.19299 35.5865 1.35213 35.5255 1.4734 35.4043L6.09462 30.7838C7.03955 31.3349 8.13602 31.6555 9.31004 31.6555C12.8529 31.6555 15.7238 28.7838 15.7238 25.2417C15.7238 24.0668 15.4032 22.9711 14.8521 22.0256L16.7208 20.1576L18.0932 20.8898C18.1746 20.9337 18.2154 21.0225 18.1929 21.1171L17.0352 26.0723C16.956 26.4063 17.1642 26.7409 17.4976 26.8185C17.5427 26.8291 17.591 26.8356 17.6397 26.8356C17.9207 26.8356 18.1774 26.6413 18.2435 26.3548L19.402 21.3998C19.5505 20.7632 19.2537 20.1025 18.6781 19.7949L17.6382 19.2395L21.8838 14.9938C22.1256 15.1867 22.4276 15.3106 22.7616 15.3106H28.3528C28.6954 15.3106 28.9735 15.0326 28.9735 14.6899C28.9735 14.3472 28.6954 14.0692 28.3528 14.0692H22.8085L26.4029 10.4755C26.8111 10.2222 27.1533 9.87901 27.4065 9.47118L35.4044 1.47321ZM20.0584 9.6712L21.2564 13.8658L16.4937 18.6286L12.3209 16.4003C12.2288 16.3506 12.1859 16.242 12.2267 16.1334C12.7769 14.6548 13.9314 13.0406 15.3347 11.7727C16.7411 10.5021 18.3675 9.60624 19.8504 9.51628C19.9473 9.51032 20.0297 9.56991 20.0584 9.6712ZM24.776 9.70621C23.7498 9.70621 22.9139 8.87109 22.9139 7.84414C22.9139 6.81802 23.7498 5.98207 24.776 5.98207C25.8028 5.98207 26.638 6.81793 26.638 7.84414C26.638 8.15457 26.5545 8.44472 26.4156 8.70748L25.6384 9.48384C25.3765 9.62271 25.0865 9.70621 24.776 9.70621ZM14.4824 25.2417C14.4824 28.0934 12.1618 30.4141 9.31004 30.4141C8.4832 30.4141 7.70278 30.2162 7.00869 29.8689L7.95131 28.9263C8.13172 28.9938 8.31917 29.0511 8.51547 29.0917C8.5614 29.1024 8.60601 29.1057 8.64383 29.1057C8.93241 29.1057 9.19028 28.9033 9.25103 28.6098C9.30797 28.3355 9.17332 28.0654 8.93862 27.939L13.9381 22.9404C14.2852 23.6343 14.4824 24.4148 14.4824 25.2417ZM4.13754 25.2417C4.13754 22.3899 6.45817 20.0692 9.31004 20.0692C10.8808 20.0692 12.2874 20.7751 13.2373 21.8849L7.7195 27.4028C7.1315 26.9723 6.72813 26.3155 6.63884 25.558C6.60044 25.2207 6.29878 24.9697 5.9488 25.014C5.61073 25.0542 5.36626 25.3612 5.40681 25.7017C5.52822 26.7461 6.05895 27.658 6.83539 28.2868L5.95326 29.169C4.84339 28.2191 4.13754 26.8125 4.13754 25.2417Z" fill="#8F3F97"/>
<path fill-rule="evenodd" clip-rule="evenodd" d="M26.6319 28.6107C26.7012 28.2751 26.485 27.9454 26.1494 27.8777C25.0097 27.6432 24.155 26.7115 24.0196 25.5583C23.981 25.2196 23.6758 24.9711 23.3298 25.0141C22.9914 25.0543 22.7469 25.3616 22.7877 25.7023C22.9842 27.3889 24.2342 28.7513 25.8969 29.0921C25.9425 29.1025 25.9858 29.1059 26.0246 29.1059C26.313 29.1059 26.571 28.9035 26.6319 28.6107Z" fill="#8F3F97"/>
</svg>
