<svg width="36" height="36" viewBox="0 0 36 36" fill="none" xmlns="http://www.w3.org/2000/svg">
<path fill-rule="evenodd" clip-rule="evenodd" d="M35.4049 0.594346C35.162 0.352666 34.77 0.352666 34.5271 0.594346L30.6502 4.47123C30.5746 4.45236 30.4946 4.44119 30.4118 4.44119C30.2188 4.44119 30.0196 4.49689 29.8402 4.61581L23.7309 8.68919H12.27L6.16028 4.61548C5.98094 4.49656 5.78215 4.44119 5.58916 4.44119C5.05338 4.44119 4.55219 4.86616 4.55219 5.4765V30.5226C4.55219 30.5385 4.55335 30.5534 4.55509 30.5672L0.595323 34.5261C0.353643 34.7691 0.353643 35.161 0.595323 35.4039L0.596448 35.405C0.717491 35.5248 0.87623 35.5857 1.03496 35.5857C1.19368 35.5857 1.35243 35.5248 1.47347 35.405L1.47424 35.4043L5.35024 31.5274C5.42629 31.5466 5.50632 31.5579 5.58916 31.5579C5.78215 31.5579 5.98144 31.5021 6.16077 31.3833L12.27 27.3099H23.7309L29.8407 31.3835C30.02 31.5024 30.2188 31.5579 30.4118 31.5579C30.9476 31.5579 31.4487 31.1328 31.4487 30.5226V5.4765C31.4487 5.46053 31.4476 5.44555 31.4459 5.43181L35.4056 1.47288C35.6473 1.22996 35.6473 0.838012 35.4056 0.595099L35.4049 0.594346ZM5.79531 17.3788L5.79763 5.86555L11.1729 9.44949V17.3788H5.79531ZM24.8281 17.3788V12.0496L30.2074 6.67029V17.3788H24.8281ZM24.8281 10.2942V9.44958L27.3611 7.76122L24.8281 10.2942ZM12.4556 22.6666V9.97195H23.5453V11.577L12.4556 22.6666ZM12.4556 26.0271V24.422L23.5453 13.3324V26.0271H12.4556ZM5.79366 29.3286L5.79523 18.6202H11.1729V23.9494L5.79366 29.3286ZM24.8281 26.5495V18.6202H30.2074V30.1359L24.8281 26.5495ZM11.1729 26.5495L8.63939 28.2383L11.1729 25.7048V26.5495Z" fill="#8F3F97"/>
</svg>
