<svg width="32" height="28" viewBox="0 0 32 28" fill="none" xmlns="http://www.w3.org/2000/svg">
<path fill-rule="evenodd" clip-rule="evenodd" d="M24.6892 14.8271C21.1462 14.8271 18.2754 17.698 18.2754 21.2409C18.2754 24.7839 21.1462 27.6547 24.6892 27.6547C28.2322 27.6547 31.103 24.7839 31.103 21.2409C31.103 17.698 28.2322 14.8271 24.6892 14.8271ZM24.6892 16.0685C27.541 16.0685 29.8616 18.3892 29.8616 21.2409C29.8616 24.0927 27.541 26.4134 24.6892 26.4134C21.8374 26.4134 19.5168 24.0927 19.5168 21.2409C19.5168 18.3892 21.8374 16.0685 24.6892 16.0685Z" fill="#675823"/>
<path fill-rule="evenodd" clip-rule="evenodd" d="M24.6299 24.6094C24.6993 24.2738 24.4831 23.9442 24.1474 23.8765C23.0078 23.642 22.153 22.7102 22.0176 21.557C21.9791 21.2184 21.6739 20.9699 21.3278 21.0129C20.9894 21.053 20.7449 21.3604 20.7857 21.701C20.9822 23.3877 22.2322 24.7501 23.8949 25.0908C23.9405 25.1013 23.9838 25.1047 24.0226 25.1047C24.311 25.1047 24.5691 24.9023 24.6299 24.6094Z" fill="#675823"/>
<path fill-rule="evenodd" clip-rule="evenodd" d="M19.6728 3.84368C19.6728 5.55521 21.0648 6.94713 22.7763 6.94713C24.4878 6.94713 25.8797 5.55521 25.8797 3.84368C25.8797 2.13215 24.4878 0.740234 22.7763 0.740234C21.0648 0.740234 19.6728 2.13215 19.6728 3.84368ZM20.9142 3.84368C20.9142 2.81756 21.7502 1.98161 22.7763 1.98161C23.8032 1.98161 24.6384 2.81748 24.6384 3.84368C24.6384 4.87063 23.8032 5.70575 22.7763 5.70575C21.7501 5.70575 20.9142 4.87063 20.9142 3.84368Z" fill="#675823"/>
<path d="M18.0584 5.67027L19.3701 10.2592C19.5469 10.8784 20.1179 11.3097 20.7616 11.3097H26.3528C26.6952 11.3097 26.9735 11.0328 26.9735 10.689C26.9735 10.3463 26.6955 10.0683 26.3528 10.0683H20.7616C20.6706 10.0683 20.5884 10.0066 20.5634 9.91885L19.2524 5.32897C19.066 4.67708 18.4438 4.23962 17.7759 4.27628L17.7748 4.27637C16.0059 4.38379 14.1349 5.42183 12.5633 6.82467C10.989 8.22983 9.68543 10.0273 9.06267 11.7C8.80843 12.3811 9.09743 13.1536 9.73616 13.4934L16.0936 16.8898C16.1743 16.9327 16.2153 17.022 16.193 17.1161L15.0353 22.072C14.9559 22.4056 15.1645 22.74 15.4976 22.8174C15.5427 22.8281 15.5911 22.8347 15.6397 22.8347C15.9213 22.8347 16.1773 22.6411 16.2436 22.3537L17.402 17.3989C17.5506 16.7622 17.2538 16.1016 16.6781 15.7939L10.3208 12.3993C10.2287 12.3496 10.1857 12.242 10.2267 12.1324C10.3043 11.9238 10.394 11.7125 10.4946 11.4998C11.1076 10.2053 12.1294 8.86094 13.3348 7.77201C14.741 6.50166 16.3671 5.6058 17.8499 5.51535C17.948 5.50988 18.03 5.5698 18.0584 5.67027Z" fill="#675823"/>
<path fill-rule="evenodd" clip-rule="evenodd" d="M7.31034 14.8271C3.76736 14.8271 0.896545 17.6979 0.896545 21.2409C0.896545 24.7839 3.76736 27.6547 7.31034 27.6547C10.8533 27.6547 13.7241 24.7839 13.7241 21.2409C13.7241 17.6979 10.8533 14.8271 7.31034 14.8271ZM7.31034 16.0685C10.1621 16.0685 12.4828 18.3891 12.4828 21.2409C12.4828 24.0927 10.1621 26.4133 7.31034 26.4133C4.45856 26.4133 2.13792 24.0927 2.13792 21.2409C2.13792 18.3891 4.45856 16.0685 7.31034 16.0685Z" fill="#675823"/>
<path d="M6.6438 25.1047C6.93221 25.1047 7.19026 24.9025 7.25108 24.6097C7.32043 24.2739 7.10501 23.9441 6.76901 23.8767C5.62918 23.6422 4.7742 22.7104 4.63881 21.5571C4.60032 21.2191 4.29908 20.9699 3.94918 21.013C3.61061 21.053 3.36581 21.3599 3.40686 21.7008C3.60325 23.3876 4.85332 24.7502 6.51619 25.0909C6.5617 25.1013 6.60507 25.1047 6.6438 25.1047Z" fill="#675823"/>
</svg>
