<svg width="28" height="28" viewBox="0 0 28 28" fill="none" xmlns="http://www.w3.org/2000/svg">
<path fill-rule="evenodd" clip-rule="evenodd" d="M1.58866 0.439453C1.05263 0.439453 0.551697 0.865494 0.551697 1.47559V26.5208C0.551697 27.1318 1.05272 27.557 1.58866 27.557C1.78174 27.557 1.98077 27.5015 2.16044 27.3814L8.26952 23.309H19.7304L25.8395 27.3814C26.0192 27.5015 26.2182 27.557 26.4113 27.557C26.9472 27.557 27.4482 27.1318 27.4482 26.5208V1.47559C27.4482 0.865494 26.9473 0.439453 26.4113 0.439453C26.2176 0.439453 26.0184 0.496391 25.8397 0.614901L19.7304 4.68828H8.26952L2.15978 0.614571C1.98102 0.49606 1.78232 0.439453 1.58866 0.439453ZM20.8276 13.3779V5.44867L26.2069 1.86298V13.3779H20.8276ZM1.79481 13.3779L1.79713 1.86464L7.17239 5.44867V13.3779H1.79481ZM8.45514 22.0262V5.97104H19.5448V22.0262H8.45514ZM1.79316 26.1342L1.79473 14.6193H7.17239V22.5486L1.79316 26.1342ZM20.8276 22.5486V14.6193H26.2069V26.1343L20.8276 22.5486Z" fill="#675823"/>
</svg>
