<svg width="48" height="62" viewBox="0 0 48 62" fill="none" xmlns="http://www.w3.org/2000/svg">
<path fill-rule="evenodd" clip-rule="evenodd" d="M21.9528 41.4239C22.6928 41.6373 23.3745 41.7412 24.0378 41.7412C24.701 41.7412 25.3827 41.6373 26.1227 41.4239C26.4543 41.3285 26.6464 40.9813 26.5497 40.6482C26.5027 40.486 26.396 40.3522 26.2465 40.2711C26.1042 40.1928 25.9363 40.1743 25.7769 40.2213C24.5273 40.5814 23.5524 40.5828 22.3015 40.2213C22.1435 40.1729 21.9741 40.1928 21.8276 40.2725C21.6795 40.3536 21.5714 40.486 21.5244 40.6482C21.4789 40.8105 21.4974 40.9784 21.5771 41.125C21.6582 41.2716 21.7906 41.3769 21.9528 41.4239Z" fill="#00C800"/>
<path fill-rule="evenodd" clip-rule="evenodd" d="M47.0204 32.2971C46.6816 32.0551 46.2831 31.9313 45.8533 31.9313L45.7651 31.9327C46.2888 29.3966 46.6532 26.8648 46.8496 24.4055C47.3946 17.5629 45.6157 11.708 41.7019 7.47542C37.5292 2.96111 31.0765 0.372347 23.999 0.372347C22.2258 0.372347 20.6403 0.545975 19.7338 0.712487C19.3296 0.49901 18.9966 0.306881 18.6906 0.107636L18.6166 0.0592481C18.4558 -0.0489134 18.2366 -0.00479488 18.1242 0.157447L17.6488 0.854804C17.5947 0.933079 17.5734 1.0327 17.5919 1.12948C17.6118 1.22483 17.6687 1.30737 17.7484 1.35861L17.8239 1.407C19.0506 2.21252 20.3899 2.81737 21.4985 3.06642C22.7153 3.34109 23.3202 3.92887 23.5721 4.25477L23.6176 4.3117C23.7229 4.44833 23.9065 4.4896 24.0673 4.41132L24.8231 4.01568C24.9141 3.96729 24.9796 3.8819 25.0052 3.78086C25.028 3.67839 25.0081 3.57307 24.9469 3.48911L24.8871 3.40514C24.6736 3.10769 24.0844 2.41176 22.9615 1.91649C23.3501 1.90084 23.7514 1.88945 24.0005 1.88945C30.6609 1.88945 36.7052 4.30032 40.5862 8.50438C44.2565 12.4807 45.8533 17.7892 45.3353 24.2846C45.1119 27.0825 44.6593 29.9915 43.9918 32.9389L43.9207 33.3246C43.8951 33.4555 43.9292 33.5893 44.0146 33.6918C44.0986 33.7942 44.2281 33.8554 44.3604 33.8554H44.8742C44.9738 33.8554 45.0663 33.8227 45.1489 33.7601L45.23 33.6975C45.5431 33.4584 45.9345 33.3872 46.1423 33.5366C46.5905 33.8526 46.5877 34.9926 46.1366 36.3716L45.6199 37.957C45.3538 38.7796 45.0791 39.6307 44.7376 40.6411C44.2281 42.1554 43.3144 43.1829 42.2741 43.4291L42.294 43.3793L42.3239 43.3096C42.3822 43.1758 42.4406 43.0392 42.4989 42.8969C42.5402 42.7873 42.5373 42.6635 42.4918 42.5553C42.4448 42.4486 42.3552 42.3603 42.2442 42.3162L41.6607 42.0885C41.433 42.0031 41.1739 42.117 41.0843 42.339C38.5653 48.665 35.4143 53.4497 31.1647 57.3962C28.8734 59.5253 26.6433 59.9622 23.999 59.9622C21.3548 59.9622 19.1246 59.5253 16.8319 57.3948C12.5837 53.4483 9.43139 48.6636 6.91237 42.339C6.82271 42.1127 6.56938 42.0046 6.33313 42.0885L5.75248 42.3162C5.64289 42.3603 5.55323 42.4486 5.50627 42.5553C5.4593 42.6635 5.45788 42.7887 5.502 42.8997C5.56319 43.0549 5.62724 43.2043 5.6927 43.3537L5.72117 43.422C4.66944 43.1744 3.77711 42.1682 3.26049 40.6411C2.90185 39.5795 2.60726 38.6629 2.37101 37.9272L1.86436 36.3688C1.41179 34.9911 1.40894 33.8512 1.85724 33.5352C2.07499 33.3829 2.45213 33.4555 2.80223 33.7202L2.89901 33.7829C2.9787 33.8312 3.07833 33.8597 3.16372 33.8497C3.38289 33.8241 4.00339 33.7644 4.04182 33.7544C4.56412 33.6263 5.07789 33.1709 5.44934 32.512C6.03854 31.4673 6.45695 29.9517 6.94368 28.194C7.91144 24.6788 9.12114 20.3054 12.2493 18.3343C15.7603 16.1212 18.7916 16.5126 22.3026 16.9652C25.6883 17.4007 29.521 17.8945 34.5021 16.1597L34.5448 16.1881C34.9233 18.8964 36.6312 22.4544 40.303 24.3671C40.6104 24.5208 40.9861 24.4027 41.1455 24.101C41.2237 23.953 41.238 23.7836 41.1882 23.6228C41.1384 23.4634 41.0288 23.3339 40.8793 23.257C37.5021 21.4966 36.0163 18.2261 35.7531 15.7526C35.7331 15.5648 35.625 15.3926 35.4656 15.2901L34.9162 14.94C34.7497 14.8361 34.5519 14.8119 34.3683 14.8802C29.521 16.6364 25.7624 16.1511 22.4463 15.7213C18.8571 15.2616 15.4657 14.829 11.5818 17.2754C8.04379 19.5055 6.76436 24.138 5.73682 27.861C5.27429 29.5375 4.87438 30.9849 4.35919 31.8971C4.18698 32.2031 4.01478 32.3668 3.90092 32.4508C3.2918 29.6756 2.87624 26.9288 2.66418 24.2846C1.61103 11.0775 9.53955 5.75196 14.3627 3.75382L14.3897 3.74101C14.9789 3.99718 15.5311 4.18504 16.0335 4.29889C17.2503 4.57214 17.8552 5.15992 18.1071 5.48725L18.1526 5.54417C18.2565 5.67938 18.4429 5.72065 18.6009 5.6438L19.3581 5.24815C19.4491 5.19834 19.5146 5.11295 19.5388 5.01333C19.563 4.91371 19.5431 4.80697 19.4819 4.72015L19.4221 4.63619C19.1175 4.2135 18.2124 3.18597 16.3765 2.77182C15.4472 2.56262 14.2987 2.04031 13.2256 1.33868L13.1516 1.2903C12.9879 1.18356 12.7716 1.22483 12.6592 1.38992L12.1838 2.08728C12.1297 2.16555 12.1084 2.26375 12.1269 2.36195C12.1468 2.45588 12.2037 2.53985 12.2834 2.5925L12.3589 2.63947C12.4685 2.71063 12.5823 2.78179 12.6976 2.84868C4.56982 6.70691 0.365751 14.5543 1.15135 24.407C1.3449 26.842 1.70923 29.3739 2.23581 31.9327C1.78324 31.9185 1.34205 32.0395 0.980564 32.2956C0.358635 32.7354 -0.539389 33.9109 0.421255 36.8427L0.923637 38.3925C1.19404 39.2308 1.47441 40.0961 1.82024 41.125C2.788 43.9856 4.72921 45.006 6.22497 45.006C6.27905 45.006 6.33456 45.0018 6.39291 44.9961C8.8607 50.5436 11.8494 54.8388 15.7987 58.5077C18.608 61.1207 21.4003 61.4822 23.999 61.4822C26.5978 61.4822 29.39 61.1207 32.2008 58.5077C36.1501 54.8388 39.1402 50.5436 41.6066 44.9961C41.6635 45.0018 41.7204 45.006 41.7759 45.006C43.2703 45.006 45.2129 43.9856 46.1778 41.1236C46.5521 40.0149 46.8524 39.087 47.1043 38.3029L47.5768 36.8455C48.5403 33.9109 47.6423 32.7354 47.0204 32.2971Z" fill="#00C800"/>
<path fill-rule="evenodd" clip-rule="evenodd" d="M34.0894 32.5547C34.0894 31.7719 33.0675 31.1343 31.8123 31.1343C30.5599 31.1343 29.5395 31.7705 29.5395 32.5547C29.5395 33.3502 30.5371 33.9736 31.8137 33.9736C33.0675 33.9736 34.0894 33.3374 34.0894 32.5547ZM16.1545 33.9736C17.4097 33.9736 18.4316 33.3374 18.4316 32.5547C18.4316 31.7719 17.4097 31.1343 16.1545 31.1343C14.8993 31.1343 13.8788 31.7705 13.8788 32.5547C13.8788 33.3516 14.8793 33.9736 16.1545 33.9736ZM19.0393 48.2039H28.9617C28.3839 49.5901 27.0005 51.769 24.0005 51.769C20.9976 51.769 19.6157 49.5915 19.0393 48.2039ZM24.0005 53.0199C27.6424 53.0199 29.7174 50.2974 30.4446 47.7499C30.4987 47.5621 30.4603 47.3571 30.3421 47.2006C30.224 47.044 30.0376 46.9515 29.844 46.9515H18.1583C17.9619 46.9515 17.7741 47.044 17.6574 47.2006C17.5407 47.3571 17.5022 47.5621 17.5549 47.7499C18.2821 50.2974 20.3586 53.0199 24.0005 53.0199ZM35.3859 29.1817C35.4485 29.0266 35.4471 28.8572 35.383 28.7035C35.319 28.5484 35.198 28.4289 35.0415 28.3662C34.3313 28.0788 33.1956 27.7372 31.8208 27.7372C30.4403 27.7372 29.3018 28.083 28.5874 28.3734C28.2672 28.5014 28.112 28.8672 28.2415 29.1874C28.3383 29.4251 28.5646 29.5788 28.8208 29.5788C28.9047 29.5788 28.9844 29.5631 29.0556 29.5318C29.6704 29.2842 30.6481 28.9882 31.8208 28.9882C32.9978 28.9882 33.967 29.2814 34.5733 29.5261C34.8892 29.6542 35.2564 29.4991 35.3859 29.1817ZM18.9126 29.5318C18.9866 29.5631 19.0663 29.5788 19.1489 29.5788C19.405 29.5788 19.6327 29.4251 19.7281 29.1874C19.7907 29.0323 19.7893 28.8629 19.7238 28.7092C19.6584 28.5555 19.5388 28.436 19.3823 28.3719C18.6692 28.083 17.5279 27.7358 16.1488 27.7358C14.7754 27.7358 13.6397 28.0773 12.9282 28.3662C12.7716 28.4289 12.6521 28.5484 12.5866 28.7021C12.5225 28.8558 12.5197 29.0266 12.5837 29.1803C12.7076 29.4963 13.0733 29.6528 13.3978 29.5261C14.0055 29.2814 14.9775 28.9882 16.1488 28.9882C17.3243 28.9882 18.2992 29.2842 18.9126 29.5318Z" fill="#00C800"/>
</svg>
