<svg width="48" height="62" viewBox="0 0 48 62" fill="none" xmlns="http://www.w3.org/2000/svg">
<path fill-rule="evenodd" clip-rule="evenodd" d="M24.0391 41.7389C24.7008 41.7389 25.3825 41.635 26.1211 41.4215C26.4541 41.3262 26.6448 40.9775 26.5494 40.646C26.5039 40.4837 26.3957 40.3499 26.2477 40.2688C26.1054 40.1891 25.9361 40.1721 25.7781 40.219C24.5258 40.5791 23.5509 40.5791 22.3 40.219C22.1435 40.1706 21.9756 40.1891 21.8276 40.2703C21.6781 40.3514 21.5714 40.4851 21.5244 40.6474C21.4291 40.9775 21.6212 41.3262 21.9542 41.4215C22.6928 41.635 23.3759 41.7389 24.0391 41.7389Z" fill="#675823"/>
<path fill-rule="evenodd" clip-rule="evenodd" d="M47.0193 32.2952C46.6578 32.0376 46.2181 31.9095 45.7641 31.9309C46.2878 29.3949 46.6521 26.8646 46.8485 24.4041C47.3935 17.5618 45.6147 11.7071 41.7011 7.47478C37.5286 2.96069 31.0762 0.372058 24.0005 0.372058C22.2259 0.372058 20.6391 0.545677 19.734 0.71218C19.3327 0.501561 18.9997 0.309441 18.6909 0.10736L18.6169 0.0575513C18.4561 -0.0477585 18.2355 -0.00506535 18.1245 0.157169L17.6492 0.854491C17.5937 0.934185 17.5723 1.0338 17.5937 1.12773C17.6122 1.22308 17.6691 1.30704 17.7502 1.35827L17.8242 1.40666C19.051 2.21213 20.3901 2.81695 21.4959 3.066C22.7169 3.34208 23.3203 3.9284 23.5722 4.25429L23.6191 4.31406C23.7259 4.44926 23.9038 4.48768 24.066 4.41083L24.8231 4.01521C24.9142 3.96682 24.9796 3.88144 25.0038 3.78182C25.028 3.6822 25.0081 3.57547 24.9469 3.48866L24.8871 3.4047C24.6737 3.10727 24.0845 2.41137 22.9617 1.91613C23.3516 1.90047 23.7515 1.88909 24.0005 1.88909C30.6607 1.88909 36.7046 4.29983 40.5854 8.50369C44.2556 12.4798 45.8523 17.788 45.3343 24.2831C45.1109 27.0809 44.6583 29.9897 43.9909 32.937L43.9197 33.3227C43.8941 33.4536 43.9283 33.5874 44.0137 33.6898C44.0976 33.7923 44.2271 33.8535 44.3595 33.8535H44.8732C44.9728 33.8535 45.0653 33.8207 45.1479 33.7581L45.229 33.6955C45.5421 33.4564 45.9306 33.3853 46.1412 33.5347C46.5895 33.8506 46.5866 34.9905 46.1355 36.3695L45.6189 37.9549C45.3528 38.7774 45.0782 39.6284 44.7366 40.6389C44.2271 42.153 43.3135 43.1805 42.2732 43.4267L42.2931 43.3769L42.323 43.3072C42.3814 43.1734 42.4397 43.0368 42.4981 42.8945C42.5393 42.7849 42.5365 42.6611 42.4909 42.5529C42.444 42.4462 42.3543 42.358 42.2433 42.3138L41.6598 42.0862C41.4322 42.0008 41.1731 42.1146 41.0835 42.3366C38.5646 48.6623 35.4138 53.4468 31.1644 57.3931C28.8732 59.522 26.6432 59.9589 23.9991 59.9589C21.355 59.9589 19.125 59.522 16.8323 57.3917C12.5844 53.4468 9.43503 48.6623 6.91328 42.338C6.82363 42.1089 6.56747 41.9993 6.3355 42.0862L5.75345 42.3138C5.64387 42.358 5.55422 42.4462 5.50726 42.5529C5.46172 42.6611 5.46029 42.7849 5.50299 42.8973C5.56703 43.061 5.63534 43.2161 5.70222 43.3712L5.72499 43.421C4.67189 43.1734 3.7796 42.1658 3.26302 40.6374C2.92147 39.6327 2.64823 38.7831 2.38354 37.962L1.86553 36.3681C1.41298 34.9891 1.41013 33.8492 1.85841 33.5333C2.07472 33.381 2.45185 33.4536 2.80335 33.7183L2.8987 33.7809C2.98124 33.8307 3.07232 33.8535 3.16767 33.8478C3.38683 33.8321 3.98595 33.7667 4.04288 33.7524C4.56658 33.6215 5.08032 33.169 5.45033 32.5101C6.03807 31.4655 6.45789 29.9485 6.94459 28.1938C7.9123 24.6787 9.12194 20.3055 12.2499 18.3317C15.7607 16.1187 18.7934 16.5101 22.3028 16.9641C25.6869 17.3995 29.5193 17.8933 34.5016 16.1586L34.5443 16.187C34.9229 18.8952 36.6306 22.453 40.3022 24.3656C40.6096 24.5193 40.9853 24.4012 41.1447 24.0995C41.223 23.9515 41.2372 23.7822 41.1874 23.6213C41.1376 23.462 41.028 23.3325 40.8786 23.2556C37.5015 21.4952 36.0158 18.2249 35.7525 15.7516C35.7326 15.5637 35.6245 15.3915 35.4651 15.2891L34.9157 14.939C34.7507 14.8351 34.5514 14.8109 34.3679 14.8792C29.5208 16.6353 25.7623 16.15 22.4465 15.7203C18.8588 15.262 15.4676 14.8265 11.5811 17.2743C8.04608 19.5043 6.76528 24.1365 5.73211 27.8764C5.27102 29.5443 4.87255 30.9859 4.36023 31.8953C4.18804 32.2027 4.01584 32.3649 3.90199 32.4503C3.29148 29.6681 2.87593 26.9215 2.66531 24.2831C1.61221 11.0767 9.54176 5.7514 14.3632 3.75336L14.3903 3.74197C14.9795 3.99813 15.5316 4.18598 16.0325 4.29699C17.2522 4.57307 17.8541 5.15939 18.1074 5.4867L18.153 5.54363C18.2554 5.67882 18.4419 5.71867 18.6013 5.64324L19.3555 5.24762C19.448 5.20066 19.5135 5.11527 19.5391 5.01423C19.5647 4.91319 19.5448 4.80503 19.4822 4.71965L19.4224 4.63711C19.1193 4.21444 18.217 3.18696 16.3769 2.77142C15.4519 2.56364 14.3021 2.04136 13.2262 1.33835L13.155 1.29138C12.9942 1.18181 12.7722 1.2245 12.6584 1.38816L12.1845 2.08548C12.1304 2.16517 12.1076 2.26337 12.1275 2.36014C12.146 2.45406 12.203 2.53803 12.2841 2.5921L12.3595 2.63907C12.4705 2.71022 12.5858 2.78138 12.6982 2.84826C4.57085 6.7063 0.366995 14.5533 1.15255 24.4055C1.34752 26.8447 1.71041 29.375 2.23553 31.9309C1.78014 31.9067 1.3404 32.039 0.981777 32.2938C0.35988 32.7335 -0.540947 33.909 0.422496 36.8406L0.899237 38.3021C1.21232 39.2755 1.47986 40.1023 1.82426 41.1241C2.79055 43.9846 4.73166 45.0049 6.22592 45.0049C6.28285 45.0049 6.3355 45.0007 6.3967 44.995C8.86294 50.5437 11.8515 54.8386 15.8006 58.506C18.6112 61.1188 21.4019 61.4802 24.0005 61.4802C26.5991 61.4802 29.3912 61.1188 32.2019 58.506C36.151 54.8372 39.1409 50.5422 41.6072 44.995C41.6641 45.0007 41.721 45.0049 41.7765 45.0049C43.2708 45.0049 45.2133 43.9846 46.1782 41.1227C46.5525 40.0141 46.8528 39.0862 47.1046 38.3021L47.5771 36.8448C48.5406 33.9104 47.6412 32.7349 47.0207 32.2966" fill="#675823"/>
<path fill-rule="evenodd" clip-rule="evenodd" d="M26.0964 52.2257V52.0123C26.2018 51.8984 26.2587 51.7533 26.2587 51.5996C26.2587 51.4459 26.2018 51.3007 26.0964 51.1869V50.972H21.9125V51.1769C21.8001 51.2936 21.7389 51.4416 21.7389 51.5996C21.7389 51.7561 21.8001 51.9055 21.9111 52.0208V52.2257H26.0964ZM29.8122 48.5812C29.8122 48.2368 29.5318 47.955 29.1874 47.955H18.813C18.4672 47.955 18.1868 48.2368 18.1868 48.5812C18.1868 48.927 18.4672 49.2073 18.813 49.2073H29.1874C29.5318 49.2073 29.8122 48.927 29.8122 48.5812ZM35.5658 28.3958C35.5658 28.05 35.2854 27.7697 34.9425 27.7697H28.6865C28.3407 27.7697 28.0603 28.05 28.0603 28.3958C28.0603 28.7402 28.3407 29.022 28.6865 29.022H34.9425C35.2854 29.022 35.5658 28.7402 35.5658 28.3958ZM31.8131 33.9716C33.0668 33.9716 34.0886 33.3354 34.0886 32.5527C34.0886 31.77 33.0668 31.1325 31.8116 31.1325C30.5593 31.1325 29.5389 31.7686 29.5389 32.5527C29.5389 33.3497 30.5365 33.9716 31.8131 33.9716ZM19.9088 28.3958C19.9088 28.05 19.6284 27.7697 19.2826 27.7697H13.0295C12.6851 27.7697 12.4033 28.05 12.4033 28.3958C12.4033 28.7402 12.6851 29.022 13.0295 29.022H19.2855C19.6299 29.022 19.9088 28.7402 19.9088 28.3958ZM16.1546 33.9716C17.4098 33.9716 18.4316 33.3354 18.4316 32.5527C18.4316 31.77 17.4098 31.1325 16.1546 31.1325C14.9009 31.1325 13.8819 31.7686 13.8819 32.5527C13.8819 33.3497 14.8781 33.9716 16.1546 33.9716Z" fill="#675823"/>
</svg>
