<svg width="48" height="62" viewBox="0 0 48 62" fill="none" xmlns="http://www.w3.org/2000/svg">
<path fill-rule="evenodd" clip-rule="evenodd" d="M22.3662 50.9749C22.0204 50.9749 21.74 51.2553 21.74 51.6011C21.74 51.9455 22.0204 52.2273 22.3662 52.2273H25.6366C25.981 52.2273 26.2614 51.9455 26.2614 51.6011C26.2614 51.2553 25.981 50.9749 25.6352 50.9749H22.3662ZM21.9535 41.4227C22.6936 41.6362 23.3752 41.7401 24.0384 41.7401C24.703 41.7401 25.3833 41.6362 26.1233 41.4227C26.4549 41.3274 26.6471 40.9801 26.5503 40.6471C26.5033 40.4849 26.3966 40.3511 26.2472 40.27C26.1034 40.1917 25.9341 40.1732 25.7775 40.2202C24.5251 40.5817 23.5517 40.5817 22.3022 40.2202C22.1442 40.1718 21.9749 40.1903 21.8297 40.2714C21.6803 40.3525 21.5721 40.4849 21.5266 40.6471C21.4796 40.8065 21.4981 40.9773 21.5792 41.1239C21.6603 41.2705 21.7927 41.3772 21.9535 41.4227ZM29.6101 50.4626C29.8022 50.4626 29.9801 50.3772 30.0982 50.2292C30.2035 50.0982 30.2519 49.9346 30.232 49.7695C30.2149 49.603 30.1338 49.4536 30.0043 49.3497C28.362 48.0261 26.4151 47.3544 24.2192 47.3544C22.0218 47.3544 20.0764 48.0261 18.4326 49.3482C18.3031 49.4536 18.2206 49.603 18.2049 49.7681C18.185 49.9346 18.2334 50.0982 18.3387 50.2292C18.444 50.3601 18.5949 50.4426 18.7614 50.4583C18.9251 50.4754 19.0887 50.427 19.2168 50.3245C20.6314 49.186 22.3136 48.6082 24.2192 48.6082C26.1233 48.6082 27.8055 49.1846 29.2187 50.3245C29.3325 50.4142 29.4677 50.4626 29.6101 50.4626ZM35.4179 29.7885C35.5844 29.7672 35.731 29.6803 35.8321 29.548C35.9345 29.4156 35.9772 29.252 35.9573 29.0869C35.9146 28.7738 35.6414 28.5447 35.3254 28.5447L35.2528 28.5489C33.0156 28.8421 30.6433 28.0665 29.0536 26.5181C28.8088 26.279 28.4118 26.2847 28.1713 26.5295C28.0531 26.649 27.9891 26.8084 27.9919 26.9735C27.9934 27.1414 28.0617 27.298 28.1812 27.4147C29.7524 28.9474 32.0422 29.8625 34.3093 29.8625C34.6793 29.8625 35.0522 29.8369 35.4179 29.7885ZM19.8103 26.5295C19.6921 26.4085 19.5356 26.3416 19.362 26.3402C19.1969 26.3402 19.0432 26.4028 18.9265 26.5181C17.3354 28.0693 14.9559 28.8478 12.7272 28.5489C12.3885 28.5005 12.0726 28.7396 12.0242 29.0869C11.9801 29.4284 12.2235 29.7415 12.5636 29.7885C12.9293 29.8369 13.3036 29.8625 13.6736 29.8625C15.9364 29.8625 18.2291 28.946 19.8017 27.4147C20.0479 27.1728 20.0522 26.7757 19.8103 26.5295ZM34.0901 32.5537C34.0901 31.7709 33.0683 31.1334 31.8131 31.1334C30.5607 31.1334 29.5403 31.7695 29.5403 32.5537C29.5403 33.3492 30.5379 33.9726 31.8145 33.9726C33.0683 33.9726 34.0901 33.3364 34.0901 32.5537ZM16.1556 33.9726C17.4108 33.9726 18.4326 33.3364 18.4326 32.5537C18.4326 31.7709 17.4108 31.1334 16.1556 31.1334C14.9018 31.1334 13.8828 31.7695 13.8828 32.5537C13.8828 33.3506 14.879 33.9726 16.1556 33.9726Z" fill="#FF9C3C"/>
<path fill-rule="evenodd" clip-rule="evenodd" d="M47.0207 32.2961C46.6592 32.0385 46.2223 31.9105 45.7654 31.9318C46.2892 29.3958 46.6535 26.8654 46.8499 24.4048C47.3949 17.5623 45.616 11.7074 41.7024 7.475C37.5297 2.96078 31.0771 0.372069 24.0012 0.372069C22.2266 0.372069 20.6398 0.545693 19.7346 0.712201C19.3333 0.501575 19.0003 0.30945 18.6915 0.107363L18.6175 0.057553C18.4581 -0.0477599 18.2361 -0.0050655 18.1251 0.157173L17.6497 0.854516C17.5942 0.934212 17.5729 1.03383 17.5942 1.12776C17.6127 1.22311 17.6696 1.30708 17.7508 1.35831L17.8248 1.4067C19.0515 2.2122 20.3907 2.81704 21.4965 3.06609C22.7176 3.34218 23.321 3.92852 23.5729 4.25442L23.6198 4.31419C23.7266 4.44939 23.9045 4.48781 24.0667 4.41096L24.8238 4.01533C24.9149 3.96694 24.9804 3.88155 25.0046 3.78193C25.0287 3.68231 25.0088 3.57558 24.9476 3.48876L24.8879 3.4048C24.6744 3.10736 24.0852 2.41144 22.9623 1.91619C23.3523 1.90053 23.7522 1.88915 24.0012 1.88915C30.6616 1.88915 36.7057 4.29996 40.5866 8.50394C44.2569 12.4802 45.8537 17.7886 45.3356 24.2838C45.1122 27.0817 44.6597 29.9906 43.9922 32.938L43.921 33.3236C43.8954 33.4546 43.9296 33.5884 44.015 33.6908C44.0989 33.7933 44.2284 33.8545 44.3608 33.8545H44.8745C44.9742 33.8545 45.0667 33.8218 45.1492 33.7591L45.2303 33.6965C45.5434 33.4574 45.9334 33.3863 46.1426 33.5357C46.5909 33.8516 46.588 34.9916 46.1369 36.3706C46.1369 36.3706 45.0809 39.6296 44.7393 40.6401C44.227 42.1543 43.3148 43.1818 42.2745 43.428L42.2944 43.3782L42.3243 43.3085C42.3826 43.1747 42.441 43.0381 42.4993 42.8957C42.5406 42.7862 42.5377 42.6623 42.4922 42.5542C42.4452 42.4475 42.3556 42.3592 42.2446 42.3151L41.6611 42.0874C41.4334 42.002 41.1744 42.1159 41.0847 42.3379C38.5657 48.6638 35.4149 53.4484 31.1654 57.3948C28.8741 59.5238 26.644 59.9607 23.9998 59.9607C21.3556 59.9607 19.1255 59.5238 16.8343 57.3934C12.5847 53.4484 9.43388 48.6638 6.91491 42.3379C6.82383 42.1102 6.57051 42.0006 6.33569 42.0874L5.75505 42.3151C5.64404 42.3578 5.55438 42.446 5.50742 42.557C5.46188 42.6638 5.46045 42.789 5.50457 42.8986C5.57004 43.0651 5.63835 43.2231 5.70666 43.3825C5.71377 43.3967 5.71947 43.4081 5.72374 43.4223C4.67061 43.1747 3.77972 42.1671 3.26169 40.6386C2.92156 39.6339 1.86558 36.3692 1.86558 36.3692C1.41302 34.9902 1.41017 33.8502 1.85847 33.5343C2.07621 33.3806 2.45192 33.4546 2.80344 33.7193L2.89879 33.7819C2.97991 33.8303 3.06814 33.8588 3.16776 33.8488C3.3855 33.826 4.01311 33.7606 4.043 33.7534C4.56672 33.6197 5.08047 33.1699 5.45049 32.511C6.03825 31.4664 6.45808 29.9494 6.9448 28.1946C7.91254 24.6794 9.12221 20.3061 12.2503 18.3322C15.7612 16.1192 18.7939 16.5106 22.3034 16.9646C25.6877 17.4 29.523 17.8939 34.5026 16.1591L34.5453 16.1875C34.9239 18.8958 36.6317 22.4536 40.3034 24.3664C40.6108 24.5229 40.9879 24.4034 41.1459 24.1002C41.2242 23.9522 41.2384 23.7829 41.1886 23.622C41.1388 23.4627 41.0292 23.3331 40.8798 23.2563C37.5026 21.4959 36.0169 18.2255 35.7536 15.752C35.7337 15.5642 35.6255 15.392 35.4661 15.2895L34.9168 14.9394C34.7503 14.8355 34.551 14.8113 34.3689 14.8796C29.5202 16.6358 25.7617 16.1505 22.4472 15.7207C18.858 15.2625 15.468 14.8284 11.5814 17.2748C8.04632 19.5049 6.76548 24.1372 5.73228 27.8773C5.27118 29.5452 4.87269 30.9868 4.36036 31.8962C4.18816 32.2036 4.01596 32.3659 3.90211 32.4513C3.29158 29.669 2.87602 26.9223 2.66539 24.2838C1.61226 11.077 9.54204 5.75157 14.3637 3.75347L14.3907 3.74208C14.9799 3.99825 15.5321 4.18611 16.033 4.29711C17.2527 4.5732 17.8547 5.15954 18.108 5.48686L18.1535 5.54379C18.256 5.67899 18.4424 5.72026 18.6018 5.64341L19.3561 5.24778C19.4486 5.20081 19.514 5.11542 19.5397 5.01438C19.5653 4.91334 19.5454 4.80518 19.4827 4.71979L19.423 4.63724C19.1198 4.21457 18.2176 3.18706 16.3774 2.7715C15.4524 2.56372 14.3025 2.04142 13.2266 1.33839L13.1554 1.29142C12.996 1.18184 12.7726 1.22453 12.6587 1.3882L12.1848 2.08554C12.1308 2.16524 12.108 2.26343 12.1279 2.36021C12.1464 2.45414 12.2033 2.5381 12.2844 2.59218L12.3599 2.63914C12.4709 2.7103 12.5862 2.78146 12.6986 2.84835C4.57099 6.7065 0.367006 14.5537 1.15258 24.4062C1.34756 26.8455 1.71046 29.3758 2.2356 31.9318C1.78162 31.9076 1.34044 32.04 0.981806 32.2947C0.35989 32.7345 -0.540963 33.91 0.422509 36.8417C0.422509 36.8417 1.47848 40.1007 1.82289 41.1239C2.7892 43.9845 4.73038 45.0049 6.22468 45.0049C6.28161 45.0049 6.33427 45.0006 6.39546 44.9949C8.86178 50.5437 11.8504 54.8388 15.7996 58.5063C18.6103 61.1192 21.4011 61.4806 23.9998 61.4806C26.5985 61.4806 29.3907 61.1192 32.2014 58.5063C36.1492 54.8388 39.1393 50.5423 41.607 44.9949C41.6625 45.0006 41.7209 45.0049 41.7764 45.0049C43.2707 45.0049 45.2133 43.9845 46.1782 41.1225C46.5524 40.0139 47.5771 36.8445 47.5771 36.8445C48.5406 33.91 47.6411 32.7345 47.0207 32.2961Z" fill="#FF9C3C"/>
</svg>
