<svg width="48" height="62" viewBox="0 0 48 62" fill="none" xmlns="http://www.w3.org/2000/svg">
<path fill-rule="evenodd" clip-rule="evenodd" d="M35.567 28.3949C35.567 28.0505 35.2866 27.7687 34.9436 27.7687H28.6875C28.3416 27.7687 28.0613 28.0505 28.0613 28.3949C28.0613 28.7407 28.3416 29.0211 28.6875 29.0211H34.9436C35.2866 29.0211 35.567 28.7407 35.567 28.3949ZM29.5399 32.5534C29.5399 33.3503 30.5376 33.9722 31.8127 33.9722C33.0693 33.9722 34.0897 33.3361 34.0897 32.5534C34.0897 31.7706 33.0693 31.1316 31.8127 31.1316C30.5603 31.1316 29.5399 31.7706 29.5399 32.5548M19.9095 28.3949C19.9095 28.0505 19.6291 27.7687 19.2833 27.7687H13.03C12.6856 27.7687 12.4038 28.0505 12.4038 28.3949C12.4038 28.7407 12.6856 29.0211 13.03 29.0211H19.2862C19.6306 29.0211 19.9095 28.7407 19.9095 28.3949ZM13.881 32.5534C13.881 33.3503 14.8787 33.9722 16.1552 33.9722C17.4104 33.9722 18.4323 33.3361 18.4323 32.5534C18.4323 31.7706 17.4104 31.1316 16.1552 31.1316C14.9029 31.1316 13.881 31.7706 13.881 32.5548M29.2738 45.4457H18.7283C18.3825 45.4457 18.1021 45.726 18.1021 46.0719C18.1021 46.4177 18.3825 46.698 18.7283 46.698H29.2738C29.6196 46.698 29.9 46.4177 29.9 46.0719C29.9 45.726 29.6196 45.4457 29.2738 45.4457ZM29.2738 48.5922H18.7283C18.3825 48.5922 18.1021 48.874 18.1021 49.2184C18.1021 49.5643 18.3825 49.8446 18.7283 49.8446H29.2738C29.6196 49.8446 29.9 49.5643 29.9 49.2184C29.9 48.874 29.6196 48.5922 29.2738 48.5922ZM29.2738 51.7417H18.7283C18.3825 51.7417 18.1021 52.022 18.1021 52.3679C18.1021 52.7123 18.3825 52.994 18.7283 52.994H29.2738C29.6196 52.994 29.9 52.7123 29.9 52.3679C29.9 52.022 29.6196 51.7417 29.2738 51.7417Z" fill="#FA0A00"/>
<path fill-rule="evenodd" clip-rule="evenodd" d="M6.19338 43.5031C5.99413 43.4818 5.82763 43.4519 5.69527 43.4178L5.65827 43.4064C5.05628 43.2413 3.94622 42.6649 3.26311 40.6383C2.90733 39.5852 2.61843 38.6872 2.36084 37.8959L1.867 36.3675C1.41587 34.9884 1.4116 33.8485 1.85989 33.5326C1.93389 33.4799 2.03209 33.4543 2.14167 33.4543C2.34091 33.4543 2.57573 33.5383 2.76928 33.6934C2.9059 33.8001 2.94006 33.8812 2.9486 33.9083C3.63029 36.5269 4.69907 39.7574 5.8077 42.5539L6.19622 43.5017L6.19338 43.5031ZM24.0012 59.9604C21.3556 59.9604 19.1255 59.5235 16.8343 57.3945C13.1426 53.9647 10.3262 49.96 7.97373 44.7968C8.72516 44.7612 9.75979 44.589 11.2071 43.755C12.5335 42.9922 13.7332 42.228 14.8931 41.4865L14.9628 41.4438C18.3158 39.302 20.9628 37.6113 23.9998 37.6099C27.0382 37.6113 29.6867 39.302 33.0453 41.4467C34.2223 42.1981 35.4391 42.9752 36.7939 43.755C38.2427 44.589 39.2773 44.7612 40.0273 44.7968C37.6748 49.9614 34.8584 53.9661 31.1682 57.3945C28.8769 59.5235 26.6454 59.9604 24.0012 59.9604ZM46.1369 36.3703L45.6402 37.8959C45.384 38.6886 45.0951 39.5852 44.7393 40.6383C44.0562 42.6649 42.9462 43.2427 42.3385 43.4092L42.3115 43.4178C42.1777 43.4533 42.0083 43.4818 41.8077 43.5031L42.1948 42.5553C43.3048 39.7588 44.3736 36.5297 45.0524 33.9168C45.0738 33.8499 45.135 33.7745 45.2346 33.6948C45.4225 33.5454 45.6559 33.4557 45.8608 33.4557C45.9718 33.4557 46.07 33.4842 46.1426 33.5354C46.5909 33.8514 46.5866 34.9899 46.1369 36.3703ZM47.0192 32.2958C46.6634 32.0397 46.218 31.9144 45.7654 31.9315C46.2877 29.3969 46.6535 26.8651 46.8485 24.4031C47.3949 17.562 45.616 11.7072 41.7024 7.47472C37.5297 2.96049 31.0771 0.373209 24.0012 0.373209C22.2266 0.373209 20.6398 0.546833 19.7346 0.711918C19.3333 0.501292 19.0003 0.307744 18.6915 0.10708L18.6175 0.0586929C18.4566 -0.0480432 18.2346 -0.00534871 18.1236 0.155467L17.6497 0.854233C17.5942 0.932506 17.5743 1.03213 17.5928 1.12748C17.6113 1.22283 17.6682 1.30822 17.7493 1.35945L17.8248 1.40784C19.0515 2.21334 20.3921 2.81675 21.4979 3.06723C22.7176 3.34047 23.3195 3.92823 23.5729 4.25413L23.6198 4.31391C23.7237 4.44768 23.9073 4.48895 24.0667 4.41068L24.8238 4.01505C24.9149 3.96666 24.9804 3.88127 25.0046 3.78165C25.0287 3.68203 25.0088 3.57529 24.9476 3.48848L24.8879 3.40594C24.6744 3.10708 24.0852 2.41258 22.9623 1.91448C23.3523 1.90025 23.7536 1.88886 24.0012 1.88886C30.6616 1.88886 36.7057 4.29967 40.5866 8.50366C44.2569 12.4785 45.8551 17.7883 45.3356 24.2864C45.1051 27.1583 44.654 30.0672 43.995 32.9306C43.3304 35.8096 41.802 40.3651 40.4301 43.5558H40.3774C39.495 43.5558 38.6739 43.395 37.4173 42.6692C36.0738 41.8964 34.8741 41.1308 33.7099 40.3865C30.3286 38.2275 27.4082 36.3618 23.9955 36.3575C20.5971 36.3604 17.6739 38.2261 14.2897 40.3879C13.127 41.1308 11.9272 41.8964 10.5838 42.6706C9.32857 43.3921 8.48322 43.5558 7.62364 43.5558H7.57383C6.34138 40.6938 4.98939 36.756 4.18816 33.7076C4.66065 33.5368 5.11748 33.1042 5.45192 32.5122C6.0411 31.4647 6.4595 29.9505 6.94622 28.1943C7.91396 24.6792 9.12364 20.3058 12.2517 18.3319C15.7626 16.1189 18.7954 16.5103 22.3063 16.9643C25.6891 17.3998 29.5216 17.8936 34.5041 16.1588L34.5468 16.1872C34.9267 18.8955 36.6345 22.4534 40.3048 24.3661C40.6122 24.5212 40.9879 24.4016 41.1473 24.0999C41.2256 23.9534 41.2398 23.7826 41.19 23.6218C41.1402 23.4624 41.0306 23.3329 40.8812 23.256C37.5041 21.4956 36.0197 18.2238 35.755 15.7518C35.7351 15.5639 35.6269 15.3917 35.4675 15.2892L34.9182 14.9406C34.7531 14.8352 34.5539 14.8125 34.3703 14.8794C29.5216 16.6355 25.7645 16.1488 22.4486 15.719C18.8594 15.2622 15.468 14.8267 11.5828 17.2759C8.04631 19.5046 6.7669 24.1384 5.7337 27.8756C5.2726 29.5449 4.87412 30.9866 4.36178 31.8959C4.18816 32.2033 4.01738 32.3656 3.90353 32.451C3.293 29.673 2.87744 26.9263 2.66539 24.2849C1.61226 11.0781 9.54347 5.75271 14.3637 3.75176L14.3921 3.7418C14.9813 3.99797 15.5335 4.1844 16.0344 4.29683C17.2541 4.57292 17.8575 5.15926 18.1094 5.48658L18.1549 5.54351C18.2588 5.67871 18.4438 5.71998 18.6032 5.64313L19.3575 5.24749C19.45 5.20053 19.5155 5.11514 19.5411 5.0141C19.5667 4.91305 19.5468 4.80489 19.4842 4.72093L19.4244 4.63554C19.1213 4.21429 18.219 3.18677 16.3788 2.77121C15.4538 2.56343 14.3039 2.04114 13.228 1.3381L13.1568 1.29114C12.996 1.18298 12.774 1.22425 12.6602 1.38791L12.1863 2.08526C12.1322 2.16353 12.1108 2.26457 12.1293 2.35992C12.1478 2.45385 12.2048 2.53782 12.2859 2.59047L12.3613 2.63886C12.4723 2.71144 12.5876 2.78118 12.7 2.84806C4.57099 6.70622 0.367006 14.5535 1.15258 24.4045C1.34613 26.8438 1.71046 29.3755 2.2356 31.9329C1.78588 31.9159 1.34186 32.0397 0.981806 32.2944C0.35989 32.7356 -0.540963 33.9097 0.422509 36.8414C0.422509 36.8414 1.45002 40.0179 1.82289 41.1251C2.7892 43.9856 4.73038 45.0046 6.22468 45.0046C6.28161 45.0046 6.33569 45.0003 6.39546 44.9946C8.86463 50.5449 11.8532 54.8414 15.7996 58.5088C18.6103 61.1189 21.4026 61.4804 24.0012 61.4804C26.5985 61.4804 29.3921 61.1189 32.2028 58.506C36.1478 54.8399 39.1378 50.5449 41.607 44.9946C41.6639 45.0003 41.7194 45.0046 41.7778 45.0046C43.2721 45.0046 45.2133 43.9856 46.1782 41.1236C46.5482 40.0278 47.5771 36.8442 47.5771 36.8442C48.5406 33.9097 47.6397 32.7356 47.0192 32.2958Z" fill="#FA0A00"/>
</svg>
