<svg width="48" height="65" viewBox="0 0 48 65" fill="none" xmlns="http://www.w3.org/2000/svg">
<path fill-rule="evenodd" clip-rule="evenodd" d="M23.9144 52.6635C22.2678 52.6635 20.9258 51.3229 20.9258 49.6763C20.9258 48.0312 22.2678 46.6906 23.9144 46.6906C25.561 46.6906 26.9002 48.0312 26.9002 49.6763C26.9002 51.3229 25.561 52.6635 23.9144 52.6635ZM23.9144 45.4396C21.5762 45.4396 19.6763 47.341 19.6763 49.6763C19.6763 52.0132 21.5762 53.9159 23.9144 53.9159C26.2512 53.9159 28.1511 52.0132 28.1511 49.6763C28.1511 47.341 26.2512 45.4396 23.9144 45.4396Z" fill="#8F3F97"/>
<path fill-rule="evenodd" clip-rule="evenodd" d="M23.9144 54.8708C21.0496 54.8708 18.7199 52.5411 18.7199 49.6763C18.7199 46.8144 21.0496 44.4847 23.9144 44.4847C26.7778 44.4847 29.1075 46.8144 29.1075 49.6763C29.1075 52.5411 26.7778 54.8708 23.913 54.8708M23.913 43.2323C20.3594 43.2323 17.469 46.1241 17.469 49.6763C17.469 53.2313 20.3594 56.1232 23.9144 56.1232C27.468 56.1232 30.3585 53.2313 30.3585 49.6763C30.3585 46.1241 27.468 43.2323 23.9144 43.2323" fill="#8F3F97"/>
<path fill-rule="evenodd" clip-rule="evenodd" d="M43.6122 49.9738C43.6165 49.9894 43.6151 50.0065 43.6079 50.0179L37.0686 62.6896C37.0544 62.7181 37.0188 62.728 36.9903 62.7152L35.6127 62.0036L42.2061 49.2295L43.5823 49.941C43.5966 49.9481 43.6065 49.9595 43.6108 49.9723L43.6122 49.9738ZM4.4429 49.9396L5.82193 49.2309L12.414 62.0051L11.0378 62.7138C11.0107 62.728 10.9723 62.7166 10.9595 62.6896L4.41871 50.0207C4.41159 50.0065 4.41159 49.9894 4.41444 49.9738C4.42013 49.9553 4.43294 49.9453 4.4429 49.9396ZM11.0492 47.2242C11.5871 47.3964 12.0226 47.7665 12.2816 48.266L16.941 57.2959C17.2 57.794 17.247 58.3661 17.0762 58.9026C16.9054 59.4391 16.5354 59.8774 16.0359 60.1336L13.5254 61.4301L6.93199 48.6559L9.44242 47.3609C9.93626 47.1061 10.5226 47.0563 11.0492 47.2242ZM29.6212 58.581C27.6815 59.7906 25.7731 59.96 23.9998 59.96C22.2351 59.96 20.3352 59.7935 18.4011 58.5938C18.4695 57.9391 18.3499 57.293 18.0539 56.7223L13.3931 47.6939C13.3618 47.6313 13.3219 47.5743 13.2821 47.5146C16.3276 41.8618 21.451 37.6393 24.014 37.6351C26.5771 37.6393 31.7019 41.8618 34.746 47.5131C34.7076 47.5701 34.6663 47.6298 34.6336 47.6925L29.9728 56.7223C29.6796 57.2916 29.5586 57.9334 29.6212 58.581ZM37.6193 47.1246C37.9566 47.1246 38.2811 47.2043 38.5842 47.3609L41.0947 48.6559L34.5012 61.4301L31.9908 60.135C30.9604 59.6014 30.5534 58.3276 31.0842 57.2959L35.7465 48.266C36.0026 47.7679 36.4395 47.3979 36.9761 47.2242C37.1853 47.1588 37.4016 47.1246 37.6193 47.1246ZM47.0207 32.2954C46.6634 32.0392 46.2237 31.9112 45.7654 31.9311C46.2892 29.395 46.6535 26.8647 46.8499 24.4026C47.3949 17.5601 45.6146 11.7067 41.7024 7.47286C37.5297 2.96147 31.0771 0.371345 24.0012 0.371345C22.2266 0.371345 20.6398 0.544969 19.7346 0.710054C19.3333 0.500851 19.0003 0.307303 18.6915 0.106639L18.6175 0.0582518C18.4566 -0.0484843 18.2375 -0.0043667 18.1251 0.156449L17.6497 0.853792C17.5942 0.932065 17.5729 1.03169 17.5928 1.12561C17.6113 1.22239 17.6682 1.30635 17.7493 1.35901L17.8248 1.40597C19.0515 2.21148 20.3907 2.81631 21.4965 3.06679C22.7176 3.34003 23.321 3.92779 23.5729 4.25369L23.6198 4.31347C23.7237 4.44724 23.9073 4.48851 24.0667 4.41024L24.8238 4.01603C24.9149 3.96622 24.9804 3.88083 25.0046 3.78121C25.0287 3.68159 25.0088 3.57485 24.9476 3.48804L24.8879 3.40407C24.6744 3.10664 24.0852 2.41072 22.9623 1.91546C23.3523 1.89838 23.7522 1.887 24.0012 1.887C30.6616 1.887 36.7057 4.29923 40.5866 8.50464C44.2569 12.4781 45.8537 17.7878 45.3356 24.2845C45.1122 27.081 44.6597 29.9913 43.9922 32.9373L43.921 33.3215C43.8954 33.4539 43.9296 33.5891 44.015 33.6901C44.0989 33.794 44.2242 33.8538 44.3608 33.8538H44.8745C44.9742 33.8538 45.0667 33.821 45.1492 33.7598L45.2303 33.6972C45.5434 33.4567 45.9319 33.3855 46.1426 33.5336C46.5909 33.8509 46.588 34.9909 46.1369 36.3713C46.1369 36.3713 45.0951 39.5848 44.7393 40.6379C44.227 42.1521 43.3162 43.1811 42.2745 43.4273L42.2958 43.3746C42.3627 43.2181 42.4324 43.0615 42.4993 42.8964C42.542 42.7826 42.5392 42.663 42.4922 42.5549C42.4452 42.4467 42.3556 42.3599 42.2446 42.3144L41.6611 42.0867C41.4334 42.0013 41.1744 42.1151 41.0847 42.3386C40.5439 43.6991 39.9576 45.0084 39.3058 46.3234L39.1592 46.2494C38.3608 45.8367 37.4514 45.7598 36.5975 46.0345C36.2474 46.1455 35.9215 46.3106 35.6298 46.5255C34.255 44.0947 32.2797 41.6128 30.1976 39.7015C27.8736 37.5668 25.6763 36.3884 24.0098 36.3841C22.3518 36.3884 20.1573 37.5668 17.8319 39.7015C15.7498 41.6142 13.7759 44.0962 12.3997 46.5269C12.1066 46.3106 11.7807 46.1455 11.4291 46.0345C10.5752 45.7612 9.66444 45.8367 8.86889 46.248L8.71662 46.3277L8.68531 46.2878C8.02212 44.9572 7.44432 43.6649 6.91491 42.3386C6.82383 42.1109 6.57051 41.9999 6.33569 42.0867L5.75362 42.3144C5.64404 42.3599 5.55438 42.4467 5.50742 42.5535C5.46045 42.663 5.45903 42.784 5.50315 42.8979C5.55865 43.0373 5.617 43.1697 5.67393 43.3035L5.69954 43.3675L5.72374 43.4216C4.67061 43.174 3.77972 42.1678 3.26169 40.6379C2.92298 39.6332 1.86558 36.3685 1.86558 36.3685C1.41302 34.9894 1.41017 33.8509 1.85847 33.5336C2.07478 33.3798 2.45192 33.4553 2.80344 33.72L2.89879 33.7798C2.97991 33.831 3.06956 33.8552 3.16776 33.8481C3.38693 33.8324 4.01169 33.7598 4.043 33.7527C4.56672 33.6218 5.08047 33.1692 5.45049 32.5117C6.03968 31.4643 6.45808 29.9501 6.9448 28.1939C7.91254 24.6787 9.12221 20.3054 12.2503 18.3329C15.7612 16.1185 18.7939 16.5113 22.3034 16.9638C25.6877 17.3993 29.523 17.8931 34.5026 16.1583L34.5453 16.1868C34.9239 18.895 36.6317 22.4529 40.3034 24.3656C40.6094 24.5222 40.9894 24.4012 41.1459 24.0995C41.2242 23.9515 41.2384 23.7821 41.1886 23.6213C41.1388 23.4619 41.0292 23.3324 40.8798 23.2556C37.5026 21.4951 36.0169 18.2247 35.7536 15.7499C35.7337 15.5649 35.6255 15.3898 35.4661 15.2888L34.9168 14.9387C34.7517 14.8348 34.551 14.8106 34.3689 14.8789C29.5216 16.6351 25.7645 16.1484 22.4472 15.72C18.858 15.2617 15.468 14.8277 11.5814 17.2755C8.04489 19.5042 6.76548 24.1365 5.73228 27.8751C5.27118 29.5445 4.87269 30.9861 4.36036 31.8955C4.18674 32.2043 4.01169 32.3694 3.90211 32.4505C3.29015 29.6669 2.87602 26.9202 2.66397 24.2845C1.61084 11.0777 9.54204 5.75227 14.3622 3.75275L14.3907 3.73994C14.9799 3.99753 15.5321 4.18396 16.033 4.29781C17.2527 4.57248 17.8547 5.16024 18.108 5.48472L18.1535 5.54307C18.2574 5.67827 18.4424 5.71811 18.6018 5.64269L19.3561 5.24705C19.4486 5.20009 19.514 5.1147 19.5397 5.01365C19.5653 4.91261 19.5454 4.80445 19.4827 4.72049L19.423 4.63652C19.1198 4.21385 18.2176 3.18633 16.3774 2.77077C15.4524 2.56157 14.3025 2.03927 13.2266 1.33766L13.154 1.2907C12.9946 1.18254 12.7726 1.22523 12.6587 1.38747L12.1848 2.08482C12.1308 2.16451 12.108 2.26413 12.1279 2.35948C12.1464 2.45341 12.2033 2.53738 12.2844 2.59146L12.3599 2.637C12.4709 2.711 12.5862 2.78074 12.6986 2.84762C4.57099 6.70862 0.367006 14.553 1.15258 24.4041C1.34756 26.8433 1.71046 29.3765 2.2356 31.9325C1.78162 31.9055 1.34044 32.0392 0.981806 32.294C0.35989 32.7352 -0.540963 33.9093 0.422509 36.8409C0.422509 36.8409 1.45002 40.0174 1.82289 41.1232C2.7892 43.9837 4.73038 45.0041 6.22468 45.0041C6.28161 45.0041 6.33427 44.9999 6.39262 44.9942C6.64878 45.5705 6.9263 46.1583 7.23797 46.7873L3.74556 48.5905C2.97279 48.9889 2.66824 49.9439 3.06672 50.7181L9.60751 63.3898C9.88075 63.9163 10.4187 64.2437 11.0122 64.2437C11.2655 64.2437 11.5074 64.1839 11.7337 64.0672L16.7318 61.4856C17.3082 61.191 17.7906 60.7456 18.135 60.2005C20.2085 61.3248 22.1782 61.4813 23.9998 61.4813C25.7389 61.4813 27.7939 61.3248 29.8831 60.1891C30.2261 60.7399 30.7128 61.1867 31.2949 61.4856L36.293 64.0672C36.515 64.1825 36.7654 64.2437 37.0145 64.2437C37.608 64.2437 38.1473 63.9163 38.4191 63.3898L44.9585 50.7181C45.357 49.9453 45.0539 48.9918 44.2811 48.5905L40.7673 46.7788C41.0705 46.1668 41.3451 45.5819 41.607 44.9956C41.6625 45.0013 41.7194 45.0056 41.7764 45.0056C43.2707 45.0056 45.2133 43.9866 46.1782 41.1246C46.5482 40.0288 47.5771 36.8452 47.5771 36.8452C48.5406 33.9107 47.6411 32.7352 47.0207 32.2968V32.2954Z" fill="#8F3F97"/>
<path fill-rule="evenodd" clip-rule="evenodd" d="M35.567 28.396C35.567 28.0502 35.2866 27.7698 34.9436 27.7698H28.6875C28.3416 27.7698 28.0613 28.0502 28.0613 28.396C28.0613 28.7404 28.3416 29.0222 28.6875 29.0222H34.9436C35.2866 29.0222 35.567 28.7404 35.567 28.396ZM29.5399 32.553C29.5399 33.35 30.5376 33.9719 31.8127 33.9719C33.0693 33.9719 34.0897 33.3358 34.0897 32.553C34.0897 31.7703 33.0693 31.1327 31.8127 31.1327C30.5603 31.1327 29.5399 31.7703 29.5399 32.553ZM19.9095 28.396C19.9095 28.0502 19.6291 27.7698 19.2833 27.7698H13.03C12.6856 27.7698 12.4038 28.0502 12.4038 28.396C12.4038 28.7404 12.6856 29.0222 13.03 29.0222H19.2862C19.6306 29.0222 19.9095 28.7404 19.9095 28.396ZM13.881 32.553C13.881 33.35 14.8787 33.9719 16.1552 33.9719C17.4104 33.9719 18.4323 33.3358 18.4323 32.553C18.4323 31.7703 17.4104 31.1327 16.1552 31.1327C14.9029 31.1327 13.881 31.7703 13.881 32.553Z" fill="#8F3F97"/>
</svg>
