<svg width="48" height="65" viewBox="0 0 48 65" fill="none" xmlns="http://www.w3.org/2000/svg">
<path fill-rule="evenodd" clip-rule="evenodd" d="M32.1273 28.7135C33.6188 28.7135 34.8327 30.3687 34.8327 32.4023C34.8327 34.436 33.6188 36.0897 32.1287 36.0897C30.6345 36.0897 29.4219 34.436 29.4219 32.4037C29.4219 30.3687 30.6359 28.7135 32.1273 28.7135ZM32.1273 37.342C34.309 37.342 36.0837 35.1262 36.0837 32.4037C36.0837 29.6784 34.309 27.4612 32.1273 27.4612C29.9471 27.4612 28.171 29.6784 28.171 32.4023C28.171 35.1262 29.9471 37.3406 32.1273 37.3406M15.8722 28.7135C17.3637 28.7135 18.5776 30.3687 18.5776 32.4023C18.5776 34.436 17.3637 36.0897 15.8736 36.0897C14.3793 36.0897 13.1668 34.436 13.1668 32.4037C13.1668 30.3687 14.3808 28.7135 15.8722 28.7135ZM15.8722 37.342C18.0539 37.342 19.8286 35.1262 19.8286 32.4037C19.8286 29.6784 18.0539 27.4612 15.8722 27.4612C13.6905 27.4612 11.9159 29.6784 11.9159 32.4023C11.9159 35.1262 13.6905 37.3406 15.8722 37.3406M18.8565 53.516C20.237 52.7546 22.0871 52.3206 24.0012 52.3206C25.9139 52.3206 27.7654 52.7546 29.1444 53.516H18.8565ZM16.6678 56.0008C16.7631 55.5753 16.9752 55.1612 17.2982 54.7684H30.707C31.0301 55.1612 31.2407 55.5753 31.3361 56.0008H16.6678ZM28.7588 59.7394C27.4238 60.3827 25.7517 60.7342 24.0026 60.7342C22.2522 60.7342 20.58 60.3827 19.2479 59.738H28.7588V59.7394ZM31.2834 57.2532C31.1496 57.6844 30.8992 58.1 30.5348 58.4871H17.469C17.1061 58.1 16.8556 57.6844 16.7204 57.2532H31.2834ZM24.0026 61.9866C28.7716 61.9866 32.6525 59.5388 32.6525 56.5274C32.6525 53.5175 28.7716 51.0682 24.0026 51.0682C19.2323 51.0682 15.3528 53.516 15.3528 56.5274C15.3528 59.5373 19.2323 61.9866 24.0026 61.9866Z" fill="#7E0023"/>
<path fill-rule="evenodd" clip-rule="evenodd" d="M15.1805 51.6261V51.6247C15.5448 48.5791 19.4357 46.1826 24.0381 46.1698C28.6405 46.184 32.5314 48.5863 32.8971 51.6446C33.5048 55.9852 33.5518 56.6071 33.5518 56.6925C33.5518 60.0568 29.2824 62.8034 24.0381 62.8162C18.7924 62.8034 14.5244 60.0553 14.5244 56.6925C14.5244 56.6056 14.5699 55.9837 15.1805 51.6261ZM24.0367 21.0485C31.2235 21.0585 37.0271 24.0983 38.4815 28.6111C40.185 33.9123 36.5148 42.0327 32.103 47.7651C30.1875 45.9933 27.196 44.9274 24.0751 44.9103H23.9997C20.8787 44.9274 17.8873 45.9919 15.9732 47.7651C11.5614 42.0327 7.88972 33.9123 9.59322 28.6096C11.0477 24.0983 16.8512 21.0585 24.0381 21.0485M47.0204 32.2956C46.6845 32.0565 46.2746 31.9298 45.8491 31.9298L45.7652 31.9313C46.2875 29.3966 46.6532 26.8649 46.8482 24.4043C47.3947 17.5618 45.6157 11.707 41.7021 7.47459C37.5295 2.96039 31.0769 0.371701 24.0011 0.371701C22.2264 0.371701 20.6396 0.545324 19.7345 0.711832C19.3332 0.501207 19.0002 0.309083 18.6914 0.105574L18.6174 0.0571873C18.4565 -0.0481251 18.2345 -0.00400774 18.1235 0.156807L17.6496 0.854146C17.5941 0.933841 17.5742 1.03204 17.5927 1.12597C17.6112 1.22274 17.6681 1.3067 17.7492 1.35794L17.8247 1.40632C19.0543 2.21182 20.3934 2.81666 21.4978 3.0657C22.7174 3.34179 23.3194 3.92813 23.5727 4.25403L23.6197 4.3138C23.725 4.44757 23.91 4.486 24.0666 4.41057L24.8237 4.01494C24.9147 3.96798 24.9802 3.88116 25.0044 3.78297C25.03 3.6805 25.0101 3.57377 24.9475 3.48838L24.8877 3.40441C24.6742 3.10698 24.0851 2.41106 22.9622 1.91581C23.3521 1.89873 23.752 1.88735 24.0011 1.88735C30.6614 1.88735 36.7055 4.29957 40.5864 8.50352C44.2552 12.4784 45.852 17.7881 45.3354 24.2847C45.1119 27.0812 44.6594 29.9915 43.9934 32.9374L43.9194 33.3231C43.8952 33.454 43.9293 33.5878 44.0147 33.6903C44.1001 33.7927 44.2282 33.8539 44.3605 33.8539H44.8743C44.9739 33.8539 45.0664 33.8212 45.1489 33.76L45.2301 33.6959C45.5432 33.4569 45.9345 33.3871 46.1423 33.5351C46.5906 33.8511 46.5863 34.991 46.1352 36.37C46.1352 36.37 45.0707 39.6532 44.7391 40.6394C44.2268 42.1537 43.3145 43.1812 42.2742 43.4274L42.2941 43.3776L42.324 43.3093C42.3824 43.1741 42.4407 43.0389 42.4991 42.8965C42.5389 42.7855 42.5375 42.6617 42.4919 42.555C42.445 42.4468 42.3553 42.3586 42.2429 42.3145L41.6623 42.0868C41.4346 42.0014 41.177 42.1138 41.0845 42.3387C39.2813 46.8643 37.1167 50.6327 34.4711 53.8533C34.3786 53.1787 34.2719 52.3875 34.1438 51.4752C34.0271 50.5103 33.6315 49.5796 32.964 48.7101C37.6575 42.6802 41.5456 34.0261 39.677 28.224C38.0574 23.1903 31.7729 19.8004 24.0367 19.789C16.3019 19.8004 10.0173 23.1903 8.39778 28.224C6.53062 34.0247 10.4172 42.6802 15.1093 48.7086C14.4433 49.581 14.0462 50.5103 13.9338 51.4695C13.8 52.4173 13.6876 53.2342 13.5951 53.9273C10.9153 50.6854 8.72795 46.8913 6.91487 42.3372C6.82094 42.1095 6.56762 42 6.33565 42.0868L5.75643 42.3145C5.64401 42.3572 5.55435 42.4468 5.50739 42.5564C5.46184 42.6631 5.46042 42.7884 5.50312 42.898C5.56858 43.063 5.63831 43.2224 5.70662 43.3818C5.71232 43.3946 5.71943 43.4075 5.7237 43.4217C4.67058 43.1741 3.77827 42.1665 3.26167 40.638C2.92154 39.6333 1.86699 36.3686 1.86699 36.3686C1.41301 34.9896 1.41159 33.8496 1.85845 33.5337C2.07477 33.3814 2.4519 33.454 2.80342 33.7201L2.89877 33.7813C2.98131 33.8311 3.06955 33.8553 3.16774 33.8482C3.38691 33.8326 4.01309 33.76 4.04155 33.7529C4.56527 33.6191 5.08044 33.1694 5.45046 32.5105C6.03964 31.4659 6.45804 29.9488 6.94476 28.1941C7.91249 24.6789 9.12216 20.3056 12.2502 18.3317C15.7611 16.1187 18.7938 16.5101 22.3047 16.9655C25.6904 17.3996 29.5243 17.8934 34.5024 16.1586L34.5451 16.1871C34.9251 18.8953 36.6329 22.4531 40.3032 24.3658C40.6106 24.5195 40.9877 24.4014 41.1457 24.0997C41.2239 23.9517 41.2382 23.7824 41.1884 23.6215C41.1385 23.4636 41.029 23.3326 40.8795 23.2558C37.5024 21.4954 36.0181 18.225 35.7534 15.7516C35.7335 15.5637 35.6253 15.3901 35.4659 15.2876L34.9166 14.939C34.7486 14.8351 34.5508 14.8109 34.3687 14.8792C29.52 16.6353 25.7615 16.1501 22.447 15.7203C18.8579 15.262 15.4651 14.828 11.5813 17.2743C8.04627 19.5044 6.76544 24.1367 5.73224 27.8767C5.27114 29.5446 4.87266 30.9863 4.36033 31.8957C4.18956 32.2031 4.01593 32.3653 3.90208 32.4507C3.29013 29.6685 2.876 26.9218 2.66537 24.2847C1.61225 11.0766 9.54199 5.75117 14.3636 3.75308L14.392 3.7417C14.9798 3.99786 15.532 4.18572 16.0329 4.29672C17.2526 4.57281 17.8545 5.15914 18.1079 5.48504L18.1534 5.54197C18.2573 5.67859 18.4423 5.71844 18.6017 5.64159L19.3588 5.24595C19.4499 5.19757 19.5154 5.11218 19.5395 5.01398C19.5652 4.91294 19.5438 4.80478 19.4826 4.71939L19.4228 4.63685C19.1197 4.21418 18.2174 3.18525 16.3773 2.77254C15.4523 2.56334 14.3024 2.04104 13.2265 1.33801L13.1553 1.29105C12.9945 1.18289 12.7725 1.22558 12.6587 1.38782L12.1848 2.08516C12.1293 2.16486 12.1093 2.26448 12.1278 2.35983C12.1463 2.45518 12.2033 2.53914 12.2844 2.59038L12.3598 2.63876C12.4708 2.71134 12.5861 2.78108 12.6985 2.84796C4.57096 6.7061 0.367004 14.5533 1.15258 24.4057C1.34612 26.8435 1.71045 29.3753 2.23559 31.9313C1.78445 31.9113 1.34185 32.0394 0.9818 32.2942C0.359888 32.7339 -0.540959 33.9094 0.422506 36.8411C0.422506 36.8411 1.47848 40.1001 1.82288 41.1233C2.78919 43.9838 4.73035 45.0042 6.22465 45.0042C6.28157 45.0042 6.33423 44.9999 6.39543 44.9943C8.29105 49.2608 10.5624 52.8486 13.3332 55.9595C13.2877 56.3609 13.2663 56.5943 13.2663 56.6925C13.2663 60.7356 18.0808 64.0472 24.0011 64.0757H24.0751C29.9939 64.0472 34.8084 60.7356 34.8084 56.6925C34.8084 56.5871 34.7856 56.3296 34.7316 55.8841C37.474 52.7888 39.7239 49.2267 41.6053 44.9943C41.6623 44.9999 41.7192 45.0042 41.7761 45.0042C43.2704 45.0042 45.213 43.9852 46.1779 41.1219C46.5522 40.0133 47.5768 36.8439 47.5768 36.8439C48.5403 33.9094 47.6423 32.7339 47.0204 32.2956Z" fill="#7E0023"/>
</svg>
