<svg width="28" height="28" viewBox="0 0 28 28" fill="none" xmlns="http://www.w3.org/2000/svg">
<path fill-rule="evenodd" clip-rule="evenodd" d="M1.58869 0.439453C1.05267 0.439453 0.551727 0.865494 0.551727 1.47559V26.5208C0.551727 27.1318 1.05275 27.557 1.58869 27.557C1.78177 27.557 1.9808 27.5015 2.16047 27.3814L8.26955 23.309H19.7305L25.8395 27.3814C26.0192 27.5015 26.2182 27.557 26.4113 27.557C26.9473 27.557 27.4483 27.1318 27.4483 26.5208V1.47559C27.4483 0.865494 26.9473 0.439453 26.4113 0.439453C26.2177 0.439453 26.0185 0.496391 25.8397 0.614901L19.7305 4.68828H8.26955L2.15981 0.614571C1.98105 0.49606 1.78235 0.439453 1.58869 0.439453ZM20.8276 13.3779V5.44867L26.2069 1.86298V13.3779H20.8276ZM1.79484 13.3779L1.79716 1.86464L7.17242 5.44867V13.3779H1.79484ZM8.45517 22.0262V5.97104H19.5448V22.0262H8.45517ZM1.79319 26.1342L1.79476 14.6193H7.17242V22.5486L1.79319 26.1342ZM20.8276 22.5486V14.6193H26.2069V26.1343L20.8276 22.5486Z" fill="#00C800"/>
</svg>
