<svg width="15" height="18" viewBox="0 0 15 18" fill="none" xmlns="http://www.w3.org/2000/svg">
<path d="M7.38462 18C5.27692 18 3.51938 17.2769 2.112 15.8308C0.704616 14.3846 0.000615385 12.5846 0 10.4308C0 9.47692 0.215384 8.52308 0.646154 7.56923C1.07692 6.61538 1.61538 5.7 2.26154 4.82308C2.90769 3.94615 3.60769 3.12308 4.36154 2.35385C5.11539 1.58462 5.81539 0.915385 6.46154 0.346154C6.58462 0.223077 6.72708 0.134769 6.88892 0.0812308C7.05077 0.0276924 7.216 0.000615385 7.38462 0C7.55385 0 7.71939 0.027077 7.88123 0.0812308C8.04308 0.135385 8.18523 0.223692 8.30769 0.346154C8.95385 0.915385 9.65385 1.58462 10.4077 2.35385C11.1615 3.12308 11.8615 3.94615 12.5077 4.82308C13.1538 5.7 13.6923 6.61538 14.1231 7.56923C14.5538 8.52308 14.7692 9.47692 14.7692 10.4308C14.7692 12.5846 14.0655 14.3846 12.6582 15.8308C11.2508 17.2769 9.49292 18 7.38462 18ZM9.69231 14.3077C10.0769 14.3077 10.404 14.1732 10.6735 13.9043C10.9431 13.6354 11.0775 13.3083 11.0769 12.9231C11.0769 12.5385 10.9425 12.2117 10.6735 11.9428C10.4046 11.6738 10.0775 11.5391 9.69231 11.5385C9.30769 11.5385 8.98092 11.6732 8.712 11.9428C8.44308 12.2123 8.30831 12.5391 8.30769 12.9231C8.30769 13.3077 8.44246 13.6348 8.712 13.9043C8.98154 14.1738 9.30831 14.3083 9.69231 14.3077ZM4.38462 13.6154C4.56923 13.8 4.78462 13.8923 5.03077 13.8923C5.27692 13.8923 5.49231 13.8 5.67692 13.6154L10.3846 8.90769C10.5692 8.72308 10.6615 8.50769 10.6615 8.26154C10.6615 8.01538 10.5692 7.8 10.3846 7.61538C10.2 7.43077 9.98092 7.33846 9.72739 7.33846C9.47385 7.33846 9.25446 7.43077 9.06923 7.61538L4.38462 12.3C4.2 12.4846 4.10769 12.704 4.10769 12.9582C4.10769 13.2123 4.2 13.4314 4.38462 13.6154ZM5.07692 9.69231C5.46154 9.69231 5.78862 9.55785 6.05815 9.28892C6.32769 9.02 6.46215 8.69292 6.46154 8.30769C6.46154 7.92308 6.32708 7.59631 6.05815 7.32738C5.78923 7.05846 5.46215 6.92369 5.07692 6.92308C4.69231 6.92308 4.36554 7.05785 4.09662 7.32738C3.82769 7.59692 3.69292 7.92369 3.69231 8.30769C3.69231 8.69231 3.82708 9.01938 4.09662 9.28892C4.36615 9.55846 4.69292 9.69292 5.07692 9.69231Z" fill="white"/>
</svg>
