<svg width="10" height="20" viewBox="0 0 10 20" fill="none" xmlns="http://www.w3.org/2000/svg">
<path d="M8 11V3C8 2.20435 7.68393 1.44129 7.12132 0.87868C6.55871 0.316071 5.79565 0 5 0C4.20435 0 3.44129 0.316071 2.87868 0.87868C2.31607 1.44129 2 2.20435 2 3V11C1.16047 11.6296 0.540333 12.5075 0.227432 13.5092C-0.0854685 14.5108 -0.0752697 15.5856 0.256584 16.5811C0.588437 17.5767 1.22512 18.4426 2.07645 19.0562C2.92778 19.6698 3.95059 20 5 20C6.04941 20 7.07222 19.6698 7.92355 19.0562C8.77488 18.4426 9.41156 17.5767 9.74342 16.5811C10.0753 15.5856 10.0855 14.5108 9.77257 13.5092C9.45967 12.5075 8.83953 11.6296 8 11ZM5 2C5.26522 2 5.51957 2.10536 5.70711 2.29289C5.89464 2.48043 6 2.73478 6 3V6H4V3C4 2.73478 4.10536 2.48043 4.29289 2.29289C4.48043 2.10536 4.73478 2 5 2Z" fill="white"/>
</svg>
