<svg width="18" height="18" viewBox="0 0 18 18" fill="none" xmlns="http://www.w3.org/2000/svg">
<path fill-rule="evenodd" clip-rule="evenodd" d="M7.71428 2.57143C7.54743 2.57135 7.38419 2.61997 7.24457 2.71132C7.10495 2.80268 6.99503 2.93279 6.92828 3.08572C6.86075 3.24049 6.76339 3.38044 6.64176 3.49759C6.52014 3.61473 6.37663 3.70678 6.21943 3.76846C6.06224 3.83014 5.89443 3.86026 5.7256 3.8571C5.55676 3.85393 5.3902 3.81754 5.23543 3.75C5.08066 3.68246 4.9407 3.5851 4.82356 3.46348C4.70641 3.34185 4.61437 3.19835 4.55268 3.04115C4.491 2.88395 4.46088 2.71615 4.46405 2.54731C4.46721 2.37848 4.50361 2.21192 4.57114 2.05714C4.81838 1.49064 5.21417 1.00152 5.71662 0.641522C6.21907 0.281529 6.80949 0.0640584 7.42541 0.0121248C8.04132 -0.0398088 8.65983 0.075726 9.21546 0.346503C9.7711 0.61728 10.2432 1.03323 10.5818 1.55033C10.9204 2.06743 11.1129 2.66645 11.139 3.28401C11.1651 3.90156 11.0237 4.51467 10.7299 5.05847C10.436 5.60226 10.0006 6.0565 9.4698 6.37313C8.93895 6.68976 8.33239 6.857 7.71428 6.85714H3C2.65901 6.85714 2.33198 6.72169 2.09086 6.48057C1.84974 6.23945 1.71429 5.91242 1.71429 5.57143C1.71429 5.23044 1.84974 4.90341 2.09086 4.66229C2.33198 4.42117 2.65901 4.28572 3 4.28572H7.71428C7.94161 4.28572 8.15963 4.19541 8.32038 4.03466C8.48112 3.87392 8.57143 3.6559 8.57143 3.42857C8.57143 3.20124 8.48112 2.98323 8.32038 2.82248C8.15963 2.66174 7.94161 2.57143 7.71428 2.57143ZM14.5714 6C14.4046 5.99992 14.2413 6.04854 14.1017 6.13989C13.9621 6.23125 13.8522 6.36137 13.7854 6.51429C13.649 6.82686 13.394 7.07245 13.0766 7.19703C12.7591 7.32161 12.4051 7.31497 12.0926 7.17857C11.78 7.04217 11.5344 6.78719 11.4098 6.46972C11.2852 6.15225 11.2919 5.79829 11.4283 5.48572C11.6755 4.91921 12.0713 4.43009 12.5738 4.07009C13.0762 3.7101 13.6666 3.49263 14.2826 3.4407C14.8985 3.38876 15.517 3.5043 16.0726 3.77507C16.6282 4.04585 17.1003 4.4618 17.4389 4.9789C17.7776 5.496 17.9701 6.09502 17.9961 6.71258C18.0222 7.33013 17.8808 7.94324 17.587 8.48704C17.2932 9.03083 16.8578 9.48507 16.3269 9.8017C15.7961 10.1183 15.1895 10.2856 14.5714 10.2857H1.28571C0.944722 10.2857 0.617695 10.1503 0.376577 9.90914C0.135459 9.66802 0 9.34099 0 9C0 8.65901 0.135459 8.33198 0.376577 8.09086C0.617695 7.84974 0.944722 7.71429 1.28571 7.71429H14.5714C14.7988 7.71429 15.0168 7.62398 15.1775 7.46323C15.3383 7.30249 15.4286 7.08447 15.4286 6.85714C15.4286 6.62981 15.3383 6.4118 15.1775 6.25105C15.0168 6.09031 14.7988 6 14.5714 6ZM10.3569 14.9143C10.4187 15.0559 10.5176 15.1782 10.6432 15.2682C10.7688 15.3582 10.9164 15.4125 11.0704 15.4255C11.2243 15.4385 11.379 15.4097 11.5179 15.342C11.6568 15.2743 11.7748 15.1703 11.8595 15.0411C11.9441 14.9118 11.9923 14.7621 11.9988 14.6077C12.0054 14.4533 11.97 14.3001 11.8966 14.1641C11.8232 14.0281 11.7144 13.9146 11.5817 13.8354C11.449 13.7562 11.2974 13.7144 11.1429 13.7143H5.57143C5.23044 13.7143 4.90341 13.5788 4.66229 13.3377C4.42117 13.0966 4.28571 12.7696 4.28571 12.4286C4.28571 12.0876 4.42117 11.7606 4.66229 11.5194C4.90341 11.2783 5.23044 11.1429 5.57143 11.1429H11.1429C11.761 11.1428 12.3676 11.31 12.8986 11.6265C13.4295 11.943 13.865 12.3972 14.159 12.941C14.4529 13.4847 14.5944 14.0979 14.5685 14.7155C14.5425 15.3331 14.35 15.9321 14.0115 16.4493C13.6729 16.9665 13.2008 17.3825 12.6452 17.6534C12.0895 17.9242 11.471 18.0398 10.855 17.9879C10.2391 17.936 9.64862 17.7185 9.14613 17.3585C8.64364 16.9985 8.24783 16.5094 8.00057 15.9429C7.92939 15.7876 7.88986 15.6197 7.88429 15.4489C7.87873 15.2782 7.90724 15.1081 7.96816 14.9485C8.02908 14.7889 8.12119 14.6431 8.23911 14.5195C8.35704 14.3959 8.4984 14.2971 8.65495 14.2287C8.8115 14.1604 8.9801 14.1239 9.1509 14.1215C9.3217 14.119 9.49128 14.1506 9.64972 14.2145C9.80817 14.2783 9.95231 14.3731 10.0737 14.4932C10.1951 14.6134 10.2914 14.7565 10.3569 14.9143Z" fill="white"/>
</svg>
