<svg width="22" height="32" viewBox="0 0 22 32" fill="none" xmlns="http://www.w3.org/2000/svg">
<path d="M7.94347 0.0688903C5.66847 0.325139 3.81222 1.11264 2.68097 2.30014C1.89347 3.12514 1.58722 3.89389 1.64347 4.90639C1.66222 5.21264 1.71847 5.58139 1.76222 5.71889C1.84347 5.93764 1.84347 6.00639 1.75597 6.31264C1.68097 6.56889 1.65597 6.93764 1.66222 7.75014C1.66222 8.91889 1.75597 9.60014 2.10597 10.8626L2.26847 11.4376L1.98097 11.7439C1.40597 12.3564 1.21222 13.0001 1.26222 14.1064C1.30597 14.9939 1.44972 15.3751 1.93722 15.9001C2.48722 16.4876 3.13722 16.7501 4.02472 16.7501H4.41847L4.52472 17.1376C4.84347 18.2814 5.62472 19.2751 6.69347 19.8939C7.06847 20.1126 7.81847 20.3689 8.23097 20.4189L8.56222 20.4564V21.9376H6.94347C5.16847 21.9376 4.71222 21.9939 3.98097 22.2814C2.71222 22.7939 1.65597 23.9126 1.21847 25.2189C1.09347 25.5939 0.749722 27.6126 0.749722 27.9814C0.749722 28.2689 0.905972 28.4376 1.17472 28.4376C1.56847 28.4376 1.61222 28.3314 1.84347 26.8439C2.09347 25.2564 2.32472 24.7251 3.08722 23.9689C3.87472 23.1876 4.72472 22.8751 6.07472 22.8751H6.80597L7.03722 23.2314C8.04972 24.8126 10.0685 25.6564 11.9185 25.2751C13.1747 25.0189 14.306 24.2564 14.9622 23.2314L15.1935 22.8751H15.9247C16.3247 22.8751 16.8497 22.9189 17.0872 22.9689C18.3622 23.2376 19.4872 24.2626 19.8997 25.5314C20.0622 26.0501 20.806 30.8251 20.7435 30.9564C20.6872 31.0501 20.5622 31.0626 19.4685 31.0626H18.2497V29.6189C18.2497 28.7564 18.2247 28.1314 18.1872 28.0626C18.0185 27.7501 17.5622 27.7564 17.406 28.0626C17.331 28.2064 17.3122 28.5314 17.3122 29.6564V31.0626H4.68722V29.6564C4.68722 28.1689 4.66222 28.0001 4.39347 27.8814C4.16847 27.7814 4.07472 27.7939 3.90597 27.9689L3.74972 28.1189V31.0626H2.53097C1.14347 31.0626 1.15597 31.0689 1.24972 30.5626C1.33722 30.1189 1.32472 30.0064 1.15597 29.8439C0.799722 29.4814 0.437222 29.7314 0.324722 30.4251C0.199722 31.1564 0.412222 31.6314 0.968472 31.8814C1.20597 31.9939 1.64347 32.0001 10.9997 32.0001C20.356 32.0001 20.7935 31.9939 21.031 31.8814C21.1747 31.8189 21.3622 31.6814 21.456 31.5689C21.7872 31.1689 21.7872 31.1126 21.3747 28.5189C20.8872 25.4439 20.8622 25.3376 20.4935 24.5814C19.8372 23.2439 18.606 22.3064 17.1372 22.0251C16.8122 21.9626 16.1872 21.9376 15.056 21.9376H13.4372V20.4564L13.7685 20.4189C14.181 20.3689 14.931 20.1126 15.306 19.8939C16.3747 19.2751 17.156 18.2814 17.4747 17.1376L17.581 16.7501H17.9747C18.7935 16.7501 19.481 16.4939 19.9685 16.0064C20.531 15.4439 20.7497 14.8626 20.7497 13.8939C20.7497 12.9001 20.5685 12.3626 20.031 11.7626L19.7435 11.4439L19.9622 10.5564C20.2122 9.56889 20.3747 8.47514 20.3747 7.77514C20.3747 7.36264 20.356 7.28764 20.2185 7.15639C20.0247 6.95639 19.7872 6.95639 19.5935 7.15639C19.456 7.28764 19.4372 7.36264 19.4372 7.79389C19.4372 8.06264 19.3935 8.56264 19.3435 8.90639C19.2497 9.55014 18.956 10.8814 18.881 10.9751C18.8622 11.0064 18.581 11.0251 18.2685 11.0126L17.6872 10.9939V9.88764C17.6872 9.28139 17.6622 8.61889 17.6247 8.41889C17.5435 7.92514 17.3185 7.44389 16.9935 7.09389C16.3622 6.40639 15.8122 6.30014 15.0122 6.70639C13.831 7.31264 12.0685 7.68764 10.4122 7.68764C9.21847 7.68764 7.27472 7.35639 6.36222 6.99389C5.51222 6.66264 4.85597 6.98764 4.48722 7.93139C4.36847 8.24389 4.34972 8.43764 4.32472 9.63764L4.29972 11.0001H3.81222C3.54347 11.0001 3.28097 11.0189 3.23097 11.0376C3.11847 11.0814 3.00597 10.7314 2.76222 9.59389C2.55597 8.61264 2.53097 7.10014 2.70597 6.40014C2.81847 5.95639 2.81847 5.95014 2.68097 5.50639C1.64972 2.08764 7.82472 -0.224862 13.1935 1.56264C15.0935 2.19389 16.3935 3.15014 16.9747 4.34389C17.3372 5.08764 17.4372 5.18139 17.9935 5.26264C18.2872 5.30639 18.5122 5.38139 18.6435 5.47514C19.256 5.92514 19.331 5.95014 19.5872 5.74389C20.1185 5.32514 19.3622 4.53764 18.2435 4.35014C18.0372 4.31264 17.9935 4.26889 17.8122 3.90014C16.9247 2.09389 14.5997 0.71889 11.5622 0.18764C10.6622 0.0313899 8.79972 -0.0311101 7.94347 0.0688903ZM16.1122 7.56264C16.2622 7.66889 16.4435 7.88764 16.5435 8.07514L16.7185 8.40639V13.5876L15.981 13.8251C14.3497 14.3439 12.831 14.5689 10.9997 14.5689C9.16847 14.5689 7.64972 14.3439 6.01847 13.8251L5.28097 13.5876V11.0001C5.28097 8.41264 5.28097 8.40639 5.42472 8.13764C5.50597 7.98764 5.61222 7.85014 5.66222 7.83139C5.71847 7.81264 6.04347 7.88139 6.38722 7.99389C7.58097 8.36889 9.21847 8.62514 10.431 8.62514C12.1247 8.62514 13.9747 8.24389 15.2747 7.61889C15.556 7.48764 15.7997 7.38139 15.8185 7.37514C15.8372 7.37514 15.9747 7.45639 16.1122 7.56264ZM4.31222 15.8126H3.98097C3.25597 15.8126 2.65597 15.4751 2.35597 14.9126C2.17472 14.5626 2.13097 13.5439 2.27472 13.0564C2.48097 12.3439 3.05597 11.9376 3.85597 11.9376H4.31222V15.8126ZM18.9247 12.1001C19.5997 12.4376 19.8435 12.9751 19.7997 14.0251C19.781 14.5126 19.7435 14.7126 19.6435 14.9126C19.3435 15.4751 18.7435 15.8126 18.0185 15.8126H17.6872V11.9376H18.1435C18.5122 11.9376 18.6622 11.9689 18.9247 12.1001ZM5.93097 14.7814C6.21847 14.8689 6.47472 14.9501 6.49347 14.9751C6.54972 15.0314 6.53722 17.7314 6.48097 18.1501L6.42472 18.5189L6.21847 18.3064C5.91847 18.0064 5.58097 17.4126 5.43097 16.9376C5.26222 16.4064 5.17472 14.6251 5.31847 14.6251C5.36847 14.6251 5.64347 14.7001 5.93097 14.7814ZM16.731 15.5751C16.706 16.2876 16.6685 16.6314 16.5685 16.9376C16.4247 17.4001 16.081 18.0001 15.7935 18.3001L15.5935 18.5064L15.5497 18.3001C15.4685 17.9626 15.4185 16.0751 15.4622 15.4939L15.5122 14.9564L16.0185 14.7939C16.8372 14.5439 16.7747 14.4689 16.731 15.5751ZM8.46222 15.3501C10.3122 15.6251 12.5622 15.5751 14.3435 15.2189L14.531 15.1814V16.4814C14.531 17.2376 14.5685 18.0626 14.6185 18.4564C14.7185 19.2439 14.756 19.1814 14.0935 19.3939C13.6685 19.5251 13.581 19.5314 10.9997 19.5314C8.41847 19.5314 8.33097 19.5251 7.90597 19.3939C7.24347 19.1814 7.28097 19.2439 7.38097 18.4564C7.43097 18.0626 7.46847 17.2376 7.46847 16.4814V15.1814L7.65597 15.2189C7.76222 15.2376 8.12472 15.2939 8.46222 15.3501ZM12.4997 21.3251C12.4997 21.9939 12.5185 22.2001 12.6122 22.3751C12.7685 22.6876 13.0685 22.8376 13.6247 22.8751L14.0935 22.9064L13.681 23.3189C13.2497 23.7376 12.6935 24.0751 12.0622 24.2876C11.581 24.4501 10.4185 24.4501 9.93722 24.2876C9.30597 24.0751 8.74972 23.7376 8.31847 23.3189L7.90597 22.9064L8.37472 22.8751C8.92472 22.8376 9.21222 22.6939 9.38097 22.3751C9.48097 22.1939 9.49972 22.0189 9.49972 21.3314V20.5001H12.4997V21.3251Z" fill="#7E0023"/>
<path d="M7.44303 10.0001C7.18678 10.0688 6.91803 10.1626 6.83678 10.2126C6.56178 10.4001 6.59928 10.8751 6.90553 11.0126C7.03053 11.0688 7.13053 11.0626 7.40553 10.9751C7.93678 10.8126 8.46803 10.7876 8.93678 10.9063C9.62428 11.0813 9.64303 11.0813 9.83053 10.9376C10.0493 10.7626 10.0618 10.4563 9.86178 10.2688C9.49303 9.92506 8.22428 9.78756 7.44303 10.0001Z" fill="#7E0023"/>
<path d="M13.1247 9.91264C12.6935 10.0001 12.2685 10.1501 12.1435 10.2689C11.9372 10.4564 11.9497 10.7626 12.1685 10.9376C12.356 11.0814 12.3747 11.0814 13.0622 10.9064C13.531 10.7814 14.0622 10.8126 14.5997 10.9814C14.906 11.0751 14.9685 11.0814 15.1122 11.0001C15.3247 10.8751 15.406 10.6189 15.2997 10.3939C15.1872 10.1439 14.5247 9.93139 13.8122 9.90639C13.5185 9.89389 13.2122 9.90014 13.1247 9.91264Z" fill="#7E0023"/>
<path d="M8.01222 12.0189C7.82472 12.2126 7.82472 12.6689 7.99972 12.8626C8.31222 13.2001 8.81222 12.9314 8.81222 12.4251C8.81222 11.9564 8.31222 11.7001 8.01222 12.0189Z" fill="#7E0023"/>
<path d="M13.3431 12.0314C13.0181 12.3501 13.2244 13.0001 13.6494 13.0001C13.9431 13.0001 14.1244 12.7876 14.1244 12.4314C14.1244 11.9314 13.6744 11.7001 13.3431 12.0314Z" fill="#7E0023"/>
<path d="M8.54944 16.0752C8.31819 16.1565 8.19944 16.4627 8.31819 16.6815C8.45569 16.919 8.63069 16.9815 9.56194 17.1002C10.5432 17.219 12.0619 17.194 12.9369 17.0377C13.3619 16.9627 13.4994 16.9065 13.6119 16.7815C13.7682 16.6002 13.7807 16.5127 13.6807 16.2877C13.5682 16.0502 13.3557 16.0065 12.8119 16.1127C12.4869 16.1815 11.9307 16.2065 10.9994 16.2065C10.0682 16.2065 9.51194 16.1815 9.18694 16.1127C8.88069 16.0565 8.65569 16.044 8.54944 16.0752Z" fill="#7E0023"/>
<path d="M8.38066 17.8502C8.21816 18.0565 8.21191 18.2565 8.36191 18.4315C8.78066 18.9377 13.2182 18.9377 13.6432 18.4315C13.7932 18.2502 13.7744 18.0377 13.5994 17.8377L13.4557 17.6627L12.6494 17.7752C11.6619 17.9065 10.2619 17.9127 9.41191 17.7815C8.58691 17.6565 8.53066 17.6627 8.38066 17.8502Z" fill="#7E0023"/>
</svg>
