<svg width="29" height="30" viewBox="0 0 29 30" fill="none" xmlns="http://www.w3.org/2000/svg">
<path fill-rule="evenodd" clip-rule="evenodd" d="M7.98295 0C7.64448 0 7.36978 0.27462 7.36978 0.613175V11.0371H7.16539C6.82692 11.0371 6.55221 11.3118 6.55221 11.6503C6.55221 11.9889 6.82692 12.2635 7.16539 12.2635H7.36978V14.7162H3.05876C2.72192 14.7162 2.45294 14.99 2.45294 15.3294C2.45294 15.6579 2.7193 15.9425 3.05876 15.9425H7.36978V18.3952H6.33638C5.9979 18.3952 5.7232 18.6699 5.7232 19.0084C5.7232 19.347 5.9979 19.6216 6.33638 19.6216H7.36978V28.6148H6.75088C6.41241 28.6148 6.13771 28.8894 6.13771 29.228C6.13771 29.5665 6.41241 29.8412 6.75088 29.8412H19.8319C20.1716 29.8412 20.4451 29.5662 20.4451 29.228C20.4451 28.8898 20.1716 28.6148 19.8319 28.6148H18.4069V19.6191H26.3349C27.3732 19.6191 28.2177 18.7747 28.2177 17.7363C28.2177 16.6979 27.3732 15.8534 26.3349 15.8534C25.5449 15.8534 24.8346 16.3521 24.5649 17.0933C24.4487 17.4118 24.6128 17.7639 24.9309 17.8794C25.2504 17.9952 25.6022 17.8319 25.7169 17.5122C25.8111 17.254 26.0604 17.0798 26.3349 17.0798C26.6963 17.0798 26.9914 17.3743 26.9914 17.7363C26.9914 18.0976 26.6962 18.3928 26.3349 18.3928H18.4069V15.9425H22.6877C23.0273 15.9425 23.3009 15.6676 23.3009 15.3294C23.3009 14.9911 23.0273 14.7162 22.6877 14.7162H18.4069V12.2627H23.054C24.0917 12.2627 24.936 11.418 24.936 10.379C24.936 9.34053 24.0915 8.49696 23.054 8.49696C22.2634 8.49696 21.552 8.99543 21.2831 9.73705C21.1669 10.0561 21.3328 10.4078 21.6502 10.523C21.9676 10.6377 22.3204 10.4759 22.4352 10.1556C22.5294 9.89746 22.7779 9.72331 23.054 9.72331C23.4153 9.72331 23.7097 10.0177 23.7097 10.379C23.7097 10.7415 23.4149 11.0363 23.054 11.0363H18.4069V0.613175C18.4069 0.27462 18.1323 0 17.7937 0H7.98295ZM8.59613 11.0371V1.22635H17.1806V28.6148H8.59613V19.6216H11.2418C11.5814 19.6216 11.8549 19.3466 11.8549 19.0084C11.8549 18.6702 11.5814 18.3952 11.2418 18.3952H8.59613V15.9425H11.2499C11.59 15.9425 11.8549 15.6573 11.8549 15.3294C11.8549 14.9906 11.5874 14.7162 11.2499 14.7162H8.59613V12.2635H11.2418C11.5814 12.2635 11.8549 11.9885 11.8549 11.6503C11.8549 11.3121 11.5814 11.0371 11.2418 11.0371H8.59613Z" fill="#7E0023"/>
<path d="M0.613175 18.3948C0.27462 18.3948 0 18.6694 0 19.0079C0 19.3465 0.27462 19.6211 0.613175 19.6211H1.43074C1.76929 19.6211 2.04392 19.3465 2.04392 19.0079C2.04392 18.6694 1.76929 18.3948 1.43074 18.3948H0.613175Z" fill="#7E0023"/>
<path d="M3.88354 18.3949C3.54524 18.3949 3.27037 18.6644 3.27037 18.9999C3.27037 19.3377 3.5378 19.6212 3.88354 19.6212C4.22063 19.6212 4.49672 19.3398 4.49672 18.9999C4.49672 18.6623 4.21311 18.3949 3.88354 18.3949Z" fill="#7E0023"/>
<path d="M0.613174 14.7158C0.270287 14.7158 0 14.9875 0 15.329C0 15.6597 0.267671 15.9422 0.613174 15.9422C0.952137 15.9422 1.21817 15.6572 1.21817 15.329C1.21817 14.9899 0.949521 14.7158 0.613174 14.7158Z" fill="#7E0023"/>
<path d="M4.71278 11.0361C4.37096 11.0361 4.09961 11.3076 4.09961 11.6493C4.09961 11.9911 4.37096 12.2625 4.71278 12.2625C5.04373 12.2625 5.32596 11.9937 5.32596 11.6493C5.32596 11.3049 5.04373 11.0361 4.71278 11.0361Z" fill="#7E0023"/>
<path d="M0.613175 11.0371C0.274702 11.0371 0 11.3118 0 11.6503C0 11.9889 0.274702 12.2635 0.613175 12.2635H2.25975C2.59831 12.2635 2.87293 11.9889 2.87293 11.6503C2.87293 11.3118 2.59831 11.0371 2.25975 11.0371H0.613175Z" fill="#7E0023"/>
</svg>
